<?xml version="1.0" encoding="utf-8" standalone="no"?>
<!DOCTYPE svg PUBLIC "-//W3C//DTD SVG 1.1//EN"
  "http://www.w3.org/Graphics/SVG/1.1/DTD/svg11.dtd">
<svg xmlns:xlink="http://www.w3.org/1999/xlink" width="548.39952pt" height="249.59952pt" viewBox="0 0 548.39952 249.59952" xmlns="http://www.w3.org/2000/svg" version="1.1">
 <metadata>
  <rdf:RDF xmlns:dc="http://purl.org/dc/elements/1.1/" xmlns:cc="http://creativecommons.org/ns#" xmlns:rdf="http://www.w3.org/1999/02/22-rdf-syntax-ns#">
   <cc:Work>
    <dc:type rdf:resource="http://purl.org/dc/dcmitype/StillImage"/>
    <dc:date>2026-07-19T02:46:07.427071</dc:date>
    <dc:format>image/svg+xml</dc:format>
    <dc:creator>
     <cc:Agent>
      <dc:title>Matplotlib v3.11.0, https://matplotlib.org/</dc:title>
     </cc:Agent>
    </dc:creator>
   </cc:Work>
  </rdf:RDF>
 </metadata>
 <defs>
  <style type="text/css">*{stroke-linejoin: round; stroke-linecap: butt}</style>
 </defs>
 <g id="figure_1">
  <g id="patch_1">
   <path d="M 0 249.59952
L 548.39952 249.59952
L 548.39952 0
L 0 0
z
" style="fill: #ffffff"/>
  </g>
  <g id="axes_1">
   <g id="patch_2">
    <path d="M 78.606063 214.998848
L 267.899754 214.998848
L 267.899754 37.744855
L 78.606063 37.744855
z
" style="fill: #ffffff"/>
   </g>
   <g id="matplotlib.axis_1">
    <g id="xtick_1">
     <g id="line2d_1">
      <path d="M 78.606063 214.998848
L 78.606063 37.744855
" clip-path="url(#p8c95baf253)" style="fill: none; stroke: #e5e7eb; stroke-opacity: 0.9; stroke-width: 0.7; stroke-linecap: square"/>
     </g>
     <g id="line2d_2">
      <defs>
       <path id="ma3f5db9961" d="M 0 0
L 0 3.5
" style="stroke: #4b5563; stroke-width: 0.8"/>
      </defs>
      <g>
       <use xlink:href="#ma3f5db9961" x="78.606063" y="214.998848" style="fill: #4b5563; stroke: #4b5563; stroke-width: 0.8"/>
      </g>
     </g>
     <g id="text_1">
      <!-- 0 -->
      <g style="fill: #4b5563" transform="translate(76.124688 227.92502) scale(0.078 -0.078)">
       <defs>
        <path id="DejaVuSans-13" d="M 2034 4250
Q 1547 4250 1301 3770
Q 1056 3291 1056 2328
Q 1056 1369 1301 889
Q 1547 409 2034 409
Q 2525 409 2770 889
Q 3016 1369 3016 2328
Q 3016 3291 2770 3770
Q 2525 4250 2034 4250
z
M 2034 4750
Q 2819 4750 3233 4129
Q 3647 3509 3647 2328
Q 3647 1150 3233 529
Q 2819 -91 2034 -91
Q 1250 -91 836 529
Q 422 1150 422 2328
Q 422 3509 836 4129
Q 1250 4750 2034 4750
z
" transform="scale(0.015625)"/>
       </defs>
       <use xlink:href="#DejaVuSans-13"/>
      </g>
     </g>
    </g>
    <g id="xtick_2">
     <g id="line2d_3">
      <path d="M 114.662004 214.998848
L 114.662004 37.744855
" clip-path="url(#p8c95baf253)" style="fill: none; stroke: #e5e7eb; stroke-opacity: 0.9; stroke-width: 0.7; stroke-linecap: square"/>
     </g>
     <g id="line2d_4">
      <g>
       <use xlink:href="#ma3f5db9961" x="114.662004" y="214.998848" style="fill: #4b5563; stroke: #4b5563; stroke-width: 0.8"/>
      </g>
     </g>
     <g id="text_2">
      <!-- 20 -->
      <g style="fill: #4b5563" transform="translate(109.699254 227.92502) scale(0.078 -0.078)">
       <defs>
        <path id="DejaVuSans-15" d="M 1228 531
L 3431 531
L 3431 0
L 469 0
L 469 531
Q 828 903 1448 1529
Q 2069 2156 2228 2338
Q 2531 2678 2651 2914
Q 2772 3150 2772 3378
Q 2772 3750 2511 3984
Q 2250 4219 1831 4219
Q 1534 4219 1204 4116
Q 875 4013 500 3803
L 500 4441
Q 881 4594 1212 4672
Q 1544 4750 1819 4750
Q 2544 4750 2975 4387
Q 3406 4025 3406 3419
Q 3406 3131 3298 2873
Q 3191 2616 2906 2266
Q 2828 2175 2409 1742
Q 1991 1309 1228 531
z
" transform="scale(0.015625)"/>
       </defs>
       <use xlink:href="#DejaVuSans-15"/>
       <use xlink:href="#DejaVuSans-13" transform="translate(63.625 0)"/>
      </g>
     </g>
    </g>
    <g id="xtick_3">
     <g id="line2d_5">
      <path d="M 150.717945 214.998848
L 150.717945 37.744855
" clip-path="url(#p8c95baf253)" style="fill: none; stroke: #e5e7eb; stroke-opacity: 0.9; stroke-width: 0.7; stroke-linecap: square"/>
     </g>
     <g id="line2d_6">
      <g>
       <use xlink:href="#ma3f5db9961" x="150.717945" y="214.998848" style="fill: #4b5563; stroke: #4b5563; stroke-width: 0.8"/>
      </g>
     </g>
     <g id="text_3">
      <!-- 40 -->
      <g style="fill: #4b5563" transform="translate(145.755195 227.92502) scale(0.078 -0.078)">
       <defs>
        <path id="DejaVuSans-17" d="M 2419 4116
L 825 1625
L 2419 1625
L 2419 4116
z
M 2253 4666
L 3047 4666
L 3047 1625
L 3713 1625
L 3713 1100
L 3047 1100
L 3047 0
L 2419 0
L 2419 1100
L 313 1100
L 313 1709
L 2253 4666
z
" transform="scale(0.015625)"/>
       </defs>
       <use xlink:href="#DejaVuSans-17"/>
       <use xlink:href="#DejaVuSans-13" transform="translate(63.625 0)"/>
      </g>
     </g>
    </g>
    <g id="xtick_4">
     <g id="line2d_7">
      <path d="M 186.773886 214.998848
L 186.773886 37.744855
" clip-path="url(#p8c95baf253)" style="fill: none; stroke: #e5e7eb; stroke-opacity: 0.9; stroke-width: 0.7; stroke-linecap: square"/>
     </g>
     <g id="line2d_8">
      <g>
       <use xlink:href="#ma3f5db9961" x="186.773886" y="214.998848" style="fill: #4b5563; stroke: #4b5563; stroke-width: 0.8"/>
      </g>
     </g>
     <g id="text_4">
      <!-- 60 -->
      <g style="fill: #4b5563" transform="translate(181.811136 227.92502) scale(0.078 -0.078)">
       <defs>
        <path id="DejaVuSans-19" d="M 2113 2584
Q 1688 2584 1439 2293
Q 1191 2003 1191 1497
Q 1191 994 1439 701
Q 1688 409 2113 409
Q 2538 409 2786 701
Q 3034 994 3034 1497
Q 3034 2003 2786 2293
Q 2538 2584 2113 2584
z
M 3366 4563
L 3366 3988
Q 3128 4100 2886 4159
Q 2644 4219 2406 4219
Q 1781 4219 1451 3797
Q 1122 3375 1075 2522
Q 1259 2794 1537 2939
Q 1816 3084 2150 3084
Q 2853 3084 3261 2657
Q 3669 2231 3669 1497
Q 3669 778 3244 343
Q 2819 -91 2113 -91
Q 1303 -91 875 529
Q 447 1150 447 2328
Q 447 3434 972 4092
Q 1497 4750 2381 4750
Q 2619 4750 2861 4703
Q 3103 4656 3366 4563
z
" transform="scale(0.015625)"/>
       </defs>
       <use xlink:href="#DejaVuSans-19"/>
       <use xlink:href="#DejaVuSans-13" transform="translate(63.625 0)"/>
      </g>
     </g>
    </g>
    <g id="xtick_5">
     <g id="line2d_9">
      <path d="M 222.829828 214.998848
L 222.829828 37.744855
" clip-path="url(#p8c95baf253)" style="fill: none; stroke: #e5e7eb; stroke-opacity: 0.9; stroke-width: 0.7; stroke-linecap: square"/>
     </g>
     <g id="line2d_10">
      <g>
       <use xlink:href="#ma3f5db9961" x="222.829828" y="214.998848" style="fill: #4b5563; stroke: #4b5563; stroke-width: 0.8"/>
      </g>
     </g>
     <g id="text_5">
      <!-- 80 -->
      <g style="fill: #4b5563" transform="translate(217.867078 227.92502) scale(0.078 -0.078)">
       <defs>
        <path id="DejaVuSans-1b" d="M 2034 2216
Q 1584 2216 1326 1975
Q 1069 1734 1069 1313
Q 1069 891 1326 650
Q 1584 409 2034 409
Q 2484 409 2743 651
Q 3003 894 3003 1313
Q 3003 1734 2745 1975
Q 2488 2216 2034 2216
z
M 1403 2484
Q 997 2584 770 2862
Q 544 3141 544 3541
Q 544 4100 942 4425
Q 1341 4750 2034 4750
Q 2731 4750 3128 4425
Q 3525 4100 3525 3541
Q 3525 3141 3298 2862
Q 3072 2584 2669 2484
Q 3125 2378 3379 2068
Q 3634 1759 3634 1313
Q 3634 634 3220 271
Q 2806 -91 2034 -91
Q 1263 -91 848 271
Q 434 634 434 1313
Q 434 1759 690 2068
Q 947 2378 1403 2484
z
M 1172 3481
Q 1172 3119 1398 2916
Q 1625 2713 2034 2713
Q 2441 2713 2670 2916
Q 2900 3119 2900 3481
Q 2900 3844 2670 4047
Q 2441 4250 2034 4250
Q 1625 4250 1398 4047
Q 1172 3844 1172 3481
z
" transform="scale(0.015625)"/>
       </defs>
       <use xlink:href="#DejaVuSans-1b"/>
       <use xlink:href="#DejaVuSans-13" transform="translate(63.625 0)"/>
      </g>
     </g>
    </g>
    <g id="xtick_6">
     <g id="line2d_11">
      <path d="M 258.885769 214.998848
L 258.885769 37.744855
" clip-path="url(#p8c95baf253)" style="fill: none; stroke: #e5e7eb; stroke-opacity: 0.9; stroke-width: 0.7; stroke-linecap: square"/>
     </g>
     <g id="line2d_12">
      <g>
       <use xlink:href="#ma3f5db9961" x="258.885769" y="214.998848" style="fill: #4b5563; stroke: #4b5563; stroke-width: 0.8"/>
      </g>
     </g>
     <g id="text_6">
      <!-- 100 -->
      <g style="fill: #4b5563" transform="translate(251.441644 227.92502) scale(0.078 -0.078)">
       <defs>
        <path id="DejaVuSans-14" d="M 794 531
L 1825 531
L 1825 4091
L 703 3866
L 703 4441
L 1819 4666
L 2450 4666
L 2450 531
L 3481 531
L 3481 0
L 794 0
L 794 531
z
" transform="scale(0.015625)"/>
       </defs>
       <use xlink:href="#DejaVuSans-14"/>
       <use xlink:href="#DejaVuSans-13" transform="translate(63.625 0)"/>
       <use xlink:href="#DejaVuSans-13" transform="translate(127.25 0)"/>
      </g>
     </g>
    </g>
    <g id="text_7">
     <!-- Damage reproduced (%) -->
     <g style="fill: #172033" transform="translate(120.385752 240.333504) scale(0.086 -0.086)">
      <defs>
       <path id="DejaVuSans-27" d="M 1259 4147
L 1259 519
L 2022 519
Q 2988 519 3436 956
Q 3884 1394 3884 2338
Q 3884 3275 3436 3711
Q 2988 4147 2022 4147
L 1259 4147
z
M 628 4666
L 1925 4666
Q 3281 4666 3915 4102
Q 4550 3538 4550 2338
Q 4550 1131 3912 565
Q 3275 0 1925 0
L 628 0
L 628 4666
z
" transform="scale(0.015625)"/>
       <path id="DejaVuSans-44" d="M 2194 1759
Q 1497 1759 1228 1600
Q 959 1441 959 1056
Q 959 750 1161 570
Q 1363 391 1709 391
Q 2188 391 2477 730
Q 2766 1069 2766 1631
L 2766 1759
L 2194 1759
z
M 3341 1997
L 3341 0
L 2766 0
L 2766 531
Q 2569 213 2275 61
Q 1981 -91 1556 -91
Q 1019 -91 701 211
Q 384 513 384 1019
Q 384 1609 779 1909
Q 1175 2209 1959 2209
L 2766 2209
L 2766 2266
Q 2766 2663 2505 2880
Q 2244 3097 1772 3097
Q 1472 3097 1187 3025
Q 903 2953 641 2809
L 641 3341
Q 956 3463 1253 3523
Q 1550 3584 1831 3584
Q 2591 3584 2966 3190
Q 3341 2797 3341 1997
z
" transform="scale(0.015625)"/>
       <path id="DejaVuSans-50" d="M 3328 2828
Q 3544 3216 3844 3400
Q 4144 3584 4550 3584
Q 5097 3584 5394 3201
Q 5691 2819 5691 2113
L 5691 0
L 5113 0
L 5113 2094
Q 5113 2597 4934 2840
Q 4756 3084 4391 3084
Q 3944 3084 3684 2787
Q 3425 2491 3425 1978
L 3425 0
L 2847 0
L 2847 2094
Q 2847 2600 2669 2842
Q 2491 3084 2119 3084
Q 1678 3084 1418 2786
Q 1159 2488 1159 1978
L 1159 0
L 581 0
L 581 3500
L 1159 3500
L 1159 2956
Q 1356 3278 1631 3431
Q 1906 3584 2284 3584
Q 2666 3584 2933 3390
Q 3200 3197 3328 2828
z
" transform="scale(0.015625)"/>
       <path id="DejaVuSans-4a" d="M 2906 1791
Q 2906 2416 2648 2759
Q 2391 3103 1925 3103
Q 1463 3103 1205 2759
Q 947 2416 947 1791
Q 947 1169 1205 825
Q 1463 481 1925 481
Q 2391 481 2648 825
Q 2906 1169 2906 1791
z
M 3481 434
Q 3481 -459 3084 -895
Q 2688 -1331 1869 -1331
Q 1566 -1331 1297 -1286
Q 1028 -1241 775 -1147
L 775 -588
Q 1028 -725 1275 -790
Q 1522 -856 1778 -856
Q 2344 -856 2625 -561
Q 2906 -266 2906 331
L 2906 616
Q 2728 306 2450 153
Q 2172 0 1784 0
Q 1141 0 747 490
Q 353 981 353 1791
Q 353 2603 747 3093
Q 1141 3584 1784 3584
Q 2172 3584 2450 3431
Q 2728 3278 2906 2969
L 2906 3500
L 3481 3500
L 3481 434
z
" transform="scale(0.015625)"/>
       <path id="DejaVuSans-48" d="M 3597 1894
L 3597 1613
L 953 1613
Q 991 1019 1311 708
Q 1631 397 2203 397
Q 2534 397 2845 478
Q 3156 559 3463 722
L 3463 178
Q 3153 47 2828 -22
Q 2503 -91 2169 -91
Q 1331 -91 842 396
Q 353 884 353 1716
Q 353 2575 817 3079
Q 1281 3584 2069 3584
Q 2775 3584 3186 3129
Q 3597 2675 3597 1894
z
M 3022 2063
Q 3016 2534 2758 2815
Q 2500 3097 2075 3097
Q 1594 3097 1305 2825
Q 1016 2553 972 2059
L 3022 2063
z
" transform="scale(0.015625)"/>
       <path id="DejaVuSans-3" transform="scale(0.015625)"/>
       <path id="DejaVuSans-55" d="M 2631 2963
Q 2534 3019 2420 3045
Q 2306 3072 2169 3072
Q 1681 3072 1420 2755
Q 1159 2438 1159 1844
L 1159 0
L 581 0
L 581 3500
L 1159 3500
L 1159 2956
Q 1341 3275 1631 3429
Q 1922 3584 2338 3584
Q 2397 3584 2469 3576
Q 2541 3569 2628 3553
L 2631 2963
z
" transform="scale(0.015625)"/>
       <path id="DejaVuSans-53" d="M 1159 525
L 1159 -1331
L 581 -1331
L 581 3500
L 1159 3500
L 1159 2969
Q 1341 3281 1617 3432
Q 1894 3584 2278 3584
Q 2916 3584 3314 3078
Q 3713 2572 3713 1747
Q 3713 922 3314 415
Q 2916 -91 2278 -91
Q 1894 -91 1617 61
Q 1341 213 1159 525
z
M 3116 1747
Q 3116 2381 2855 2742
Q 2594 3103 2138 3103
Q 1681 3103 1420 2742
Q 1159 2381 1159 1747
Q 1159 1113 1420 752
Q 1681 391 2138 391
Q 2594 391 2855 752
Q 3116 1113 3116 1747
z
" transform="scale(0.015625)"/>
       <path id="DejaVuSans-52" d="M 1959 3097
Q 1497 3097 1228 2736
Q 959 2375 959 1747
Q 959 1119 1226 758
Q 1494 397 1959 397
Q 2419 397 2687 759
Q 2956 1122 2956 1747
Q 2956 2369 2687 2733
Q 2419 3097 1959 3097
z
M 1959 3584
Q 2709 3584 3137 3096
Q 3566 2609 3566 1747
Q 3566 888 3137 398
Q 2709 -91 1959 -91
Q 1206 -91 779 398
Q 353 888 353 1747
Q 353 2609 779 3096
Q 1206 3584 1959 3584
z
" transform="scale(0.015625)"/>
       <path id="DejaVuSans-47" d="M 2906 2969
L 2906 4863
L 3481 4863
L 3481 0
L 2906 0
L 2906 525
Q 2725 213 2448 61
Q 2172 -91 1784 -91
Q 1150 -91 751 415
Q 353 922 353 1747
Q 353 2572 751 3078
Q 1150 3584 1784 3584
Q 2172 3584 2448 3432
Q 2725 3281 2906 2969
z
M 947 1747
Q 947 1113 1208 752
Q 1469 391 1925 391
Q 2381 391 2643 752
Q 2906 1113 2906 1747
Q 2906 2381 2643 2742
Q 2381 3103 1925 3103
Q 1469 3103 1208 2742
Q 947 2381 947 1747
z
" transform="scale(0.015625)"/>
       <path id="DejaVuSans-58" d="M 544 1381
L 544 3500
L 1119 3500
L 1119 1403
Q 1119 906 1312 657
Q 1506 409 1894 409
Q 2359 409 2629 706
Q 2900 1003 2900 1516
L 2900 3500
L 3475 3500
L 3475 0
L 2900 0
L 2900 538
Q 2691 219 2414 64
Q 2138 -91 1772 -91
Q 1169 -91 856 284
Q 544 659 544 1381
z
M 1991 3584
L 1991 3584
z
" transform="scale(0.015625)"/>
       <path id="DejaVuSans-46" d="M 3122 3366
L 3122 2828
Q 2878 2963 2633 3030
Q 2388 3097 2138 3097
Q 1578 3097 1268 2742
Q 959 2388 959 1747
Q 959 1106 1268 751
Q 1578 397 2138 397
Q 2388 397 2633 464
Q 2878 531 3122 666
L 3122 134
Q 2881 22 2623 -34
Q 2366 -91 2075 -91
Q 1284 -91 818 406
Q 353 903 353 1747
Q 353 2603 823 3093
Q 1294 3584 2113 3584
Q 2378 3584 2631 3529
Q 2884 3475 3122 3366
z
" transform="scale(0.015625)"/>
       <path id="DejaVuSans-b" d="M 1984 4856
Q 1566 4138 1362 3434
Q 1159 2731 1159 2009
Q 1159 1288 1364 580
Q 1569 -128 1984 -844
L 1484 -844
Q 1016 -109 783 600
Q 550 1309 550 2009
Q 550 2706 781 3412
Q 1013 4119 1484 4856
L 1984 4856
z
" transform="scale(0.015625)"/>
       <path id="DejaVuSans-8" d="M 4653 2053
Q 4381 2053 4226 1822
Q 4072 1591 4072 1178
Q 4072 772 4226 539
Q 4381 306 4653 306
Q 4919 306 5073 539
Q 5228 772 5228 1178
Q 5228 1588 5073 1820
Q 4919 2053 4653 2053
z
M 4653 2450
Q 5147 2450 5437 2106
Q 5728 1763 5728 1178
Q 5728 594 5436 251
Q 5144 -91 4653 -91
Q 4153 -91 3862 251
Q 3572 594 3572 1178
Q 3572 1766 3864 2108
Q 4156 2450 4653 2450
z
M 1428 4353
Q 1159 4353 1004 4120
Q 850 3888 850 3481
Q 850 3069 1003 2837
Q 1156 2606 1428 2606
Q 1700 2606 1854 2837
Q 2009 3069 2009 3481
Q 2009 3884 1853 4118
Q 1697 4353 1428 4353
z
M 4250 4750
L 4750 4750
L 1831 -91
L 1331 -91
L 4250 4750
z
M 1428 4750
Q 1922 4750 2215 4408
Q 2509 4066 2509 3481
Q 2509 2891 2217 2550
Q 1925 2209 1428 2209
Q 931 2209 642 2551
Q 353 2894 353 3481
Q 353 4063 643 4406
Q 934 4750 1428 4750
z
" transform="scale(0.015625)"/>
       <path id="DejaVuSans-c" d="M 513 4856
L 1013 4856
Q 1481 4119 1714 3412
Q 1947 2706 1947 2009
Q 1947 1309 1714 600
Q 1481 -109 1013 -844
L 513 -844
Q 928 -128 1133 580
Q 1338 1288 1338 2009
Q 1338 2731 1133 3434
Q 928 4138 513 4856
z
" transform="scale(0.015625)"/>
      </defs>
      <use xlink:href="#DejaVuSans-27"/>
      <use xlink:href="#DejaVuSans-44" transform="translate(77 0)"/>
      <use xlink:href="#DejaVuSans-50" transform="translate(138.28125 0)"/>
      <use xlink:href="#DejaVuSans-44" transform="translate(235.6875 0)"/>
      <use xlink:href="#DejaVuSans-4a" transform="translate(296.96875 0)"/>
      <use xlink:href="#DejaVuSans-48" transform="translate(360.453125 0)"/>
      <use xlink:href="#DejaVuSans-3" transform="translate(421.984375 0)"/>
      <use xlink:href="#DejaVuSans-55" transform="translate(453.765625 0)"/>
      <use xlink:href="#DejaVuSans-48" transform="translate(492.671875 0)"/>
      <use xlink:href="#DejaVuSans-53" transform="translate(554.203125 0)"/>
      <use xlink:href="#DejaVuSans-55" transform="translate(617.6875 0)"/>
      <use xlink:href="#DejaVuSans-52" transform="translate(656.59375 0)"/>
      <use xlink:href="#DejaVuSans-47" transform="translate(717.78125 0)"/>
      <use xlink:href="#DejaVuSans-58" transform="translate(781.265625 0)"/>
      <use xlink:href="#DejaVuSans-46" transform="translate(844.640625 0)"/>
      <use xlink:href="#DejaVuSans-48" transform="translate(899.625 0)"/>
      <use xlink:href="#DejaVuSans-47" transform="translate(961.15625 0)"/>
      <use xlink:href="#DejaVuSans-3" transform="translate(1024.640625 0)"/>
      <use xlink:href="#DejaVuSans-b" transform="translate(1056.421875 0)"/>
      <use xlink:href="#DejaVuSans-8" transform="translate(1095.4375 0)"/>
      <use xlink:href="#DejaVuSans-c" transform="translate(1190.453125 0)"/>
     </g>
    </g>
   </g>
   <g id="matplotlib.axis_2">
    <g id="ytick_1">
     <g id="line2d_13">
      <defs>
       <path id="m5f2e6d2c14" d="M 0 0
L -3.5 0
" style="stroke: #4b5563; stroke-width: 0.8"/>
      </defs>
      <g>
       <use xlink:href="#m5f2e6d2c14" x="78.606063" y="73.365275" style="fill: #4b5563; stroke: #4b5563; stroke-width: 0.8"/>
      </g>
     </g>
     <g id="text_8">
      <!-- Remove d = 0 -->
      <g style="fill: #4b5563" transform="translate(16.06275 76.328665) scale(0.078 -0.078)">
       <defs>
        <path id="DejaVuSans-35" d="M 2841 2188
Q 3044 2119 3236 1894
Q 3428 1669 3622 1275
L 4263 0
L 3584 0
L 2988 1197
Q 2756 1666 2539 1819
Q 2322 1972 1947 1972
L 1259 1972
L 1259 0
L 628 0
L 628 4666
L 2053 4666
Q 2853 4666 3247 4331
Q 3641 3997 3641 3322
Q 3641 2881 3436 2590
Q 3231 2300 2841 2188
z
M 1259 4147
L 1259 2491
L 2053 2491
Q 2509 2491 2742 2702
Q 2975 2913 2975 3322
Q 2975 3731 2742 3939
Q 2509 4147 2053 4147
L 1259 4147
z
" transform="scale(0.015625)"/>
        <path id="DejaVuSans-59" d="M 191 3500
L 800 3500
L 1894 563
L 2988 3500
L 3597 3500
L 2284 0
L 1503 0
L 191 3500
z
" transform="scale(0.015625)"/>
        <path id="DejaVuSans-20" d="M 678 2906
L 4684 2906
L 4684 2381
L 678 2381
L 678 2906
z
M 678 1631
L 4684 1631
L 4684 1100
L 678 1100
L 678 1631
z
" transform="scale(0.015625)"/>
       </defs>
       <use xlink:href="#DejaVuSans-35"/>
       <use xlink:href="#DejaVuSans-48" transform="translate(65 0)"/>
       <use xlink:href="#DejaVuSans-50" transform="translate(126.53125 0)"/>
       <use xlink:href="#DejaVuSans-52" transform="translate(223.9375 0)"/>
       <use xlink:href="#DejaVuSans-59" transform="translate(285.125 0)"/>
       <use xlink:href="#DejaVuSans-48" transform="translate(344.3125 0)"/>
       <use xlink:href="#DejaVuSans-3" transform="translate(405.84375 0)"/>
       <use xlink:href="#DejaVuSans-47" transform="translate(437.625 0)"/>
       <use xlink:href="#DejaVuSans-3" transform="translate(501.109375 0)"/>
       <use xlink:href="#DejaVuSans-20" transform="translate(532.890625 0)"/>
       <use xlink:href="#DejaVuSans-3" transform="translate(616.6875 0)"/>
       <use xlink:href="#DejaVuSans-13" transform="translate(648.46875 0)"/>
      </g>
     </g>
    </g>
    <g id="ytick_2">
     <g id="line2d_14">
      <g>
       <use xlink:href="#m5f2e6d2c14" x="78.606063" y="179.378428" style="fill: #4b5563; stroke: #4b5563; stroke-width: 0.8"/>
      </g>
     </g>
     <g id="text_9">
      <!-- Remove d = 1–3 -->
      <g style="fill: #4b5563" transform="translate(7.2 182.341819) scale(0.078 -0.078)">
       <defs>
        <path id="DejaVuSans-af5" d="M 313 1978
L 2888 1978
L 2888 1528
L 313 1528
L 313 1978
z
" transform="scale(0.015625)"/>
        <path id="DejaVuSans-16" d="M 2597 2516
Q 3050 2419 3304 2112
Q 3559 1806 3559 1356
Q 3559 666 3084 287
Q 2609 -91 1734 -91
Q 1441 -91 1130 -33
Q 819 25 488 141
L 488 750
Q 750 597 1062 519
Q 1375 441 1716 441
Q 2309 441 2620 675
Q 2931 909 2931 1356
Q 2931 1769 2642 2001
Q 2353 2234 1838 2234
L 1294 2234
L 1294 2753
L 1863 2753
Q 2328 2753 2575 2939
Q 2822 3125 2822 3475
Q 2822 3834 2567 4026
Q 2313 4219 1838 4219
Q 1578 4219 1281 4162
Q 984 4106 628 3988
L 628 4550
Q 988 4650 1302 4700
Q 1616 4750 1894 4750
Q 2613 4750 3031 4423
Q 3450 4097 3450 3541
Q 3450 3153 3228 2886
Q 3006 2619 2597 2516
z
" transform="scale(0.015625)"/>
       </defs>
       <use xlink:href="#DejaVuSans-35"/>
       <use xlink:href="#DejaVuSans-48" transform="translate(65 0)"/>
       <use xlink:href="#DejaVuSans-50" transform="translate(126.53125 0)"/>
       <use xlink:href="#DejaVuSans-52" transform="translate(223.9375 0)"/>
       <use xlink:href="#DejaVuSans-59" transform="translate(285.125 0)"/>
       <use xlink:href="#DejaVuSans-48" transform="translate(344.3125 0)"/>
       <use xlink:href="#DejaVuSans-3" transform="translate(405.84375 0)"/>
       <use xlink:href="#DejaVuSans-47" transform="translate(437.625 0)"/>
       <use xlink:href="#DejaVuSans-3" transform="translate(501.109375 0)"/>
       <use xlink:href="#DejaVuSans-20" transform="translate(532.890625 0)"/>
       <use xlink:href="#DejaVuSans-3" transform="translate(616.6875 0)"/>
       <use xlink:href="#DejaVuSans-14" transform="translate(648.46875 0)"/>
       <use xlink:href="#DejaVuSans-af5" transform="translate(712.09375 0)"/>
       <use xlink:href="#DejaVuSans-16" transform="translate(762.09375 0)"/>
      </g>
     </g>
    </g>
   </g>
   <g id="patch_3">
    <path d="M 78.606063 100.928695
L 218.783688 100.928695
L 218.783688 45.801855
L 78.606063 45.801855
z
" clip-path="url(#p8c95baf253)" style="fill: #2f6bde"/>
   </g>
   <g id="patch_4">
    <path d="M 78.606063 206.941848
L 79.634613 206.941848
L 79.634613 151.815008
L 78.606063 151.815008
z
" clip-path="url(#p8c95baf253)" style="fill: #6b7280"/>
   </g>
   <g id="line2d_15">
    <path d="M 258.885769 214.998848
L 258.885769 37.744855
" clip-path="url(#p8c95baf253)" style="fill: none; stroke-dasharray: 3.7,1.6; stroke-dashoffset: 0; stroke: #d1495b"/>
   </g>
   <g id="patch_5">
    <path d="M 78.606063 214.998848
L 78.606063 37.744855
" style="fill: none; stroke: #9ca3af; stroke-width: 0.8; stroke-linejoin: miter; stroke-linecap: square"/>
   </g>
   <g id="patch_6">
    <path d="M 78.606063 214.998848
L 267.899754 214.998848
" style="fill: none; stroke: #9ca3af; stroke-width: 0.8; stroke-linejoin: miter; stroke-linecap: square"/>
   </g>
   <g id="text_10">
    <!-- 77.8% -->
    <g style="fill: #172033" transform="translate(221.623094 75.28754) scale(0.074 -0.074)">
     <defs>
      <path id="DejaVuSans-1a" d="M 525 4666
L 3525 4666
L 3525 4397
L 1831 0
L 1172 0
L 2766 4134
L 525 4134
L 525 4666
z
" transform="scale(0.015625)"/>
      <path id="DejaVuSans-11" d="M 684 794
L 1344 794
L 1344 0
L 684 0
L 684 794
z
" transform="scale(0.015625)"/>
     </defs>
     <use xlink:href="#DejaVuSans-1a"/>
     <use xlink:href="#DejaVuSans-1a" transform="translate(63.625 0)"/>
     <use xlink:href="#DejaVuSans-11" transform="translate(127.25 0)"/>
     <use xlink:href="#DejaVuSans-1b" transform="translate(159.03125 0)"/>
     <use xlink:href="#DejaVuSans-8" transform="translate(222.65625 0)"/>
    </g>
   </g>
   <g id="text_11">
    <!-- 0.6% -->
    <g style="fill: #172033" transform="translate(82.474018 181.300694) scale(0.074 -0.074)">
     <use xlink:href="#DejaVuSans-13"/>
     <use xlink:href="#DejaVuSans-11" transform="translate(63.625 0)"/>
     <use xlink:href="#DejaVuSans-19" transform="translate(95.40625 0)"/>
     <use xlink:href="#DejaVuSans-8" transform="translate(159.03125 0)"/>
    </g>
   </g>
   <g id="text_12">
    <!-- Necessity · remove cells -->
    <g style="fill: #172033" transform="translate(78.606063 31.744855) scale(0.096 -0.096)">
     <defs>
      <path id="DejaVuSans-Bold-31" d="M 588 4666
L 1931 4666
L 3628 1466
L 3628 4666
L 4769 4666
L 4769 0
L 3425 0
L 1728 3200
L 1728 0
L 588 0
L 588 4666
z
" transform="scale(0.015625)"/>
      <path id="DejaVuSans-Bold-48" d="M 4031 1759
L 4031 1441
L 1416 1441
Q 1456 1047 1700 850
Q 1944 653 2381 653
Q 2734 653 3104 758
Q 3475 863 3866 1075
L 3866 213
Q 3469 63 3072 -14
Q 2675 -91 2278 -91
Q 1328 -91 801 392
Q 275 875 275 1747
Q 275 2603 792 3093
Q 1309 3584 2216 3584
Q 3041 3584 3536 3087
Q 4031 2591 4031 1759
z
M 2881 2131
Q 2881 2450 2695 2645
Q 2509 2841 2209 2841
Q 1884 2841 1681 2658
Q 1478 2475 1428 2131
L 2881 2131
z
" transform="scale(0.015625)"/>
      <path id="DejaVuSans-Bold-46" d="M 3366 3391
L 3366 2478
Q 3138 2634 2908 2709
Q 2678 2784 2431 2784
Q 1963 2784 1702 2511
Q 1441 2238 1441 1747
Q 1441 1256 1702 982
Q 1963 709 2431 709
Q 2694 709 2930 787
Q 3166 866 3366 1019
L 3366 103
Q 3103 6 2833 -42
Q 2563 -91 2291 -91
Q 1344 -91 809 395
Q 275 881 275 1747
Q 275 2613 809 3098
Q 1344 3584 2291 3584
Q 2566 3584 2833 3536
Q 3100 3488 3366 3391
z
" transform="scale(0.015625)"/>
      <path id="DejaVuSans-Bold-56" d="M 3272 3391
L 3272 2541
Q 2913 2691 2578 2766
Q 2244 2841 1947 2841
Q 1628 2841 1473 2761
Q 1319 2681 1319 2516
Q 1319 2381 1436 2309
Q 1553 2238 1856 2203
L 2053 2175
Q 2913 2066 3209 1816
Q 3506 1566 3506 1031
Q 3506 472 3093 190
Q 2681 -91 1863 -91
Q 1516 -91 1145 -36
Q 775 19 384 128
L 384 978
Q 719 816 1070 734
Q 1422 653 1784 653
Q 2113 653 2278 743
Q 2444 834 2444 1013
Q 2444 1163 2330 1236
Q 2216 1309 1875 1350
L 1678 1375
Q 931 1469 631 1722
Q 331 1975 331 2491
Q 331 3047 712 3315
Q 1094 3584 1881 3584
Q 2191 3584 2531 3537
Q 2872 3491 3272 3391
z
" transform="scale(0.015625)"/>
      <path id="DejaVuSans-Bold-4c" d="M 538 3500
L 1656 3500
L 1656 0
L 538 0
L 538 3500
z
M 538 4863
L 1656 4863
L 1656 3950
L 538 3950
L 538 4863
z
" transform="scale(0.015625)"/>
      <path id="DejaVuSans-Bold-57" d="M 1759 4494
L 1759 3500
L 2913 3500
L 2913 2700
L 1759 2700
L 1759 1216
Q 1759 972 1856 886
Q 1953 800 2241 800
L 2816 800
L 2816 0
L 1856 0
Q 1194 0 917 276
Q 641 553 641 1216
L 641 2700
L 84 2700
L 84 3500
L 641 3500
L 641 4494
L 1759 4494
z
" transform="scale(0.015625)"/>
      <path id="DejaVuSans-Bold-5c" d="M 78 3500
L 1197 3500
L 2138 1125
L 2938 3500
L 4056 3500
L 2584 -331
Q 2363 -916 2067 -1148
Q 1772 -1381 1288 -1381
L 641 -1381
L 641 -647
L 991 -647
Q 1275 -647 1404 -556
Q 1534 -466 1606 -231
L 1638 -134
L 78 3500
z
" transform="scale(0.015625)"/>
      <path id="DejaVuSans-Bold-3" transform="scale(0.015625)"/>
      <path id="DejaVuSans-Bold-79" d="M 653 2828
L 1778 2828
L 1778 1619
L 653 1619
L 653 2828
z
" transform="scale(0.015625)"/>
      <path id="DejaVuSans-Bold-55" d="M 3138 2547
Q 2991 2616 2845 2648
Q 2700 2681 2553 2681
Q 2122 2681 1889 2404
Q 1656 2128 1656 1613
L 1656 0
L 538 0
L 538 3500
L 1656 3500
L 1656 2925
Q 1872 3269 2151 3426
Q 2431 3584 2822 3584
Q 2878 3584 2943 3579
Q 3009 3575 3134 3559
L 3138 2547
z
" transform="scale(0.015625)"/>
      <path id="DejaVuSans-Bold-50" d="M 3781 2919
Q 3994 3244 4286 3414
Q 4578 3584 4928 3584
Q 5531 3584 5847 3212
Q 6163 2841 6163 2131
L 6163 0
L 5038 0
L 5038 1825
Q 5041 1866 5042 1909
Q 5044 1953 5044 2034
Q 5044 2406 4934 2573
Q 4825 2741 4581 2741
Q 4263 2741 4089 2478
Q 3916 2216 3909 1719
L 3909 0
L 2784 0
L 2784 1825
Q 2784 2406 2684 2573
Q 2584 2741 2328 2741
Q 2006 2741 1831 2477
Q 1656 2213 1656 1722
L 1656 0
L 531 0
L 531 3500
L 1656 3500
L 1656 2988
Q 1863 3284 2130 3434
Q 2397 3584 2719 3584
Q 3081 3584 3359 3409
Q 3638 3234 3781 2919
z
" transform="scale(0.015625)"/>
      <path id="DejaVuSans-Bold-52" d="M 2203 2784
Q 1831 2784 1636 2517
Q 1441 2250 1441 1747
Q 1441 1244 1636 976
Q 1831 709 2203 709
Q 2569 709 2762 976
Q 2956 1244 2956 1747
Q 2956 2250 2762 2517
Q 2569 2784 2203 2784
z
M 2203 3584
Q 3106 3584 3614 3096
Q 4122 2609 4122 1747
Q 4122 884 3614 396
Q 3106 -91 2203 -91
Q 1297 -91 786 396
Q 275 884 275 1747
Q 275 2609 786 3096
Q 1297 3584 2203 3584
z
" transform="scale(0.015625)"/>
      <path id="DejaVuSans-Bold-59" d="M 97 3500
L 1216 3500
L 2088 1081
L 2956 3500
L 4078 3500
L 2700 0
L 1472 0
L 97 3500
z
" transform="scale(0.015625)"/>
      <path id="DejaVuSans-Bold-4f" d="M 538 4863
L 1656 4863
L 1656 0
L 538 0
L 538 4863
z
" transform="scale(0.015625)"/>
     </defs>
     <use xlink:href="#DejaVuSans-Bold-31"/>
     <use xlink:href="#DejaVuSans-Bold-48" transform="translate(83.6875 0)"/>
     <use xlink:href="#DejaVuSans-Bold-46" transform="translate(151.515625 0)"/>
     <use xlink:href="#DejaVuSans-Bold-48" transform="translate(210.796875 0)"/>
     <use xlink:href="#DejaVuSans-Bold-56" transform="translate(278.625 0)"/>
     <use xlink:href="#DejaVuSans-Bold-56" transform="translate(338.140625 0)"/>
     <use xlink:href="#DejaVuSans-Bold-4c" transform="translate(397.65625 0)"/>
     <use xlink:href="#DejaVuSans-Bold-57" transform="translate(431.9375 0)"/>
     <use xlink:href="#DejaVuSans-Bold-5c" transform="translate(479.734375 0)"/>
     <use xlink:href="#DejaVuSans-Bold-3" transform="translate(544.921875 0)"/>
     <use xlink:href="#DejaVuSans-Bold-79" transform="translate(579.734375 0)"/>
     <use xlink:href="#DejaVuSans-Bold-3" transform="translate(617.71875 0)"/>
     <use xlink:href="#DejaVuSans-Bold-55" transform="translate(652.53125 0)"/>
     <use xlink:href="#DejaVuSans-Bold-48" transform="translate(701.84375 0)"/>
     <use xlink:href="#DejaVuSans-Bold-50" transform="translate(769.671875 0)"/>
     <use xlink:href="#DejaVuSans-Bold-52" transform="translate(873.875 0)"/>
     <use xlink:href="#DejaVuSans-Bold-59" transform="translate(942.578125 0)"/>
     <use xlink:href="#DejaVuSans-Bold-48" transform="translate(1007.765625 0)"/>
     <use xlink:href="#DejaVuSans-Bold-3" transform="translate(1075.59375 0)"/>
     <use xlink:href="#DejaVuSans-Bold-46" transform="translate(1110.40625 0)"/>
     <use xlink:href="#DejaVuSans-Bold-48" transform="translate(1169.6875 0)"/>
     <use xlink:href="#DejaVuSans-Bold-4f" transform="translate(1237.515625 0)"/>
     <use xlink:href="#DejaVuSans-Bold-4f" transform="translate(1271.796875 0)"/>
     <use xlink:href="#DejaVuSans-Bold-56" transform="translate(1306.078125 0)"/>
    </g>
   </g>
  </g>
  <g id="axes_2">
   <g id="patch_7">
    <path d="M 351.905828 214.998848
L 541.19952 214.998848
L 541.19952 37.744855
L 351.905828 37.744855
z
" style="fill: #ffffff"/>
   </g>
   <g id="matplotlib.axis_3">
    <g id="xtick_7">
     <g id="line2d_16">
      <path d="M 351.905828 214.998848
L 351.905828 37.744855
" clip-path="url(#p90d302964e)" style="fill: none; stroke: #e5e7eb; stroke-opacity: 0.9; stroke-width: 0.7; stroke-linecap: square"/>
     </g>
     <g id="line2d_17">
      <g>
       <use xlink:href="#ma3f5db9961" x="351.905828" y="214.998848" style="fill: #4b5563; stroke: #4b5563; stroke-width: 0.8"/>
      </g>
     </g>
     <g id="text_13">
      <!-- 0 -->
      <g style="fill: #4b5563" transform="translate(349.424453 227.92502) scale(0.078 -0.078)">
       <use xlink:href="#DejaVuSans-13"/>
      </g>
     </g>
    </g>
    <g id="xtick_8">
     <g id="line2d_18">
      <path d="M 387.961769 214.998848
L 387.961769 37.744855
" clip-path="url(#p90d302964e)" style="fill: none; stroke: #e5e7eb; stroke-opacity: 0.9; stroke-width: 0.7; stroke-linecap: square"/>
     </g>
     <g id="line2d_19">
      <g>
       <use xlink:href="#ma3f5db9961" x="387.961769" y="214.998848" style="fill: #4b5563; stroke: #4b5563; stroke-width: 0.8"/>
      </g>
     </g>
     <g id="text_14">
      <!-- 20 -->
      <g style="fill: #4b5563" transform="translate(382.999019 227.92502) scale(0.078 -0.078)">
       <use xlink:href="#DejaVuSans-15"/>
       <use xlink:href="#DejaVuSans-13" transform="translate(63.625 0)"/>
      </g>
     </g>
    </g>
    <g id="xtick_9">
     <g id="line2d_20">
      <path d="M 424.017711 214.998848
L 424.017711 37.744855
" clip-path="url(#p90d302964e)" style="fill: none; stroke: #e5e7eb; stroke-opacity: 0.9; stroke-width: 0.7; stroke-linecap: square"/>
     </g>
     <g id="line2d_21">
      <g>
       <use xlink:href="#ma3f5db9961" x="424.017711" y="214.998848" style="fill: #4b5563; stroke: #4b5563; stroke-width: 0.8"/>
      </g>
     </g>
     <g id="text_15">
      <!-- 40 -->
      <g style="fill: #4b5563" transform="translate(419.054961 227.92502) scale(0.078 -0.078)">
       <use xlink:href="#DejaVuSans-17"/>
       <use xlink:href="#DejaVuSans-13" transform="translate(63.625 0)"/>
      </g>
     </g>
    </g>
    <g id="xtick_10">
     <g id="line2d_22">
      <path d="M 460.073652 214.998848
L 460.073652 37.744855
" clip-path="url(#p90d302964e)" style="fill: none; stroke: #e5e7eb; stroke-opacity: 0.9; stroke-width: 0.7; stroke-linecap: square"/>
     </g>
     <g id="line2d_23">
      <g>
       <use xlink:href="#ma3f5db9961" x="460.073652" y="214.998848" style="fill: #4b5563; stroke: #4b5563; stroke-width: 0.8"/>
      </g>
     </g>
     <g id="text_16">
      <!-- 60 -->
      <g style="fill: #4b5563" transform="translate(455.110902 227.92502) scale(0.078 -0.078)">
       <use xlink:href="#DejaVuSans-19"/>
       <use xlink:href="#DejaVuSans-13" transform="translate(63.625 0)"/>
      </g>
     </g>
    </g>
    <g id="xtick_11">
     <g id="line2d_24">
      <path d="M 496.129593 214.998848
L 496.129593 37.744855
" clip-path="url(#p90d302964e)" style="fill: none; stroke: #e5e7eb; stroke-opacity: 0.9; stroke-width: 0.7; stroke-linecap: square"/>
     </g>
     <g id="line2d_25">
      <g>
       <use xlink:href="#ma3f5db9961" x="496.129593" y="214.998848" style="fill: #4b5563; stroke: #4b5563; stroke-width: 0.8"/>
      </g>
     </g>
     <g id="text_17">
      <!-- 80 -->
      <g style="fill: #4b5563" transform="translate(491.166843 227.92502) scale(0.078 -0.078)">
       <use xlink:href="#DejaVuSans-1b"/>
       <use xlink:href="#DejaVuSans-13" transform="translate(63.625 0)"/>
      </g>
     </g>
    </g>
    <g id="xtick_12">
     <g id="line2d_26">
      <path d="M 532.185535 214.998848
L 532.185535 37.744855
" clip-path="url(#p90d302964e)" style="fill: none; stroke: #e5e7eb; stroke-opacity: 0.9; stroke-width: 0.7; stroke-linecap: square"/>
     </g>
     <g id="line2d_27">
      <g>
       <use xlink:href="#ma3f5db9961" x="532.185535" y="214.998848" style="fill: #4b5563; stroke: #4b5563; stroke-width: 0.8"/>
      </g>
     </g>
     <g id="text_18">
      <!-- 100 -->
      <g style="fill: #4b5563" transform="translate(524.74141 227.92502) scale(0.078 -0.078)">
       <use xlink:href="#DejaVuSans-14"/>
       <use xlink:href="#DejaVuSans-13" transform="translate(63.625 0)"/>
       <use xlink:href="#DejaVuSans-13" transform="translate(127.25 0)"/>
      </g>
     </g>
    </g>
    <g id="text_19">
     <!-- Damage rescued (%) -->
     <g style="fill: #172033" transform="translate(401.209174 240.333504) scale(0.086 -0.086)">
      <defs>
       <path id="DejaVuSans-56" d="M 2834 3397
L 2834 2853
Q 2591 2978 2328 3040
Q 2066 3103 1784 3103
Q 1356 3103 1142 2972
Q 928 2841 928 2578
Q 928 2378 1081 2264
Q 1234 2150 1697 2047
L 1894 2003
Q 2506 1872 2764 1633
Q 3022 1394 3022 966
Q 3022 478 2636 193
Q 2250 -91 1575 -91
Q 1294 -91 989 -36
Q 684 19 347 128
L 347 722
Q 666 556 975 473
Q 1284 391 1588 391
Q 1994 391 2212 530
Q 2431 669 2431 922
Q 2431 1156 2273 1281
Q 2116 1406 1581 1522
L 1381 1569
Q 847 1681 609 1914
Q 372 2147 372 2553
Q 372 3047 722 3315
Q 1072 3584 1716 3584
Q 2034 3584 2315 3537
Q 2597 3491 2834 3397
z
" transform="scale(0.015625)"/>
      </defs>
      <use xlink:href="#DejaVuSans-27"/>
      <use xlink:href="#DejaVuSans-44" transform="translate(77 0)"/>
      <use xlink:href="#DejaVuSans-50" transform="translate(138.28125 0)"/>
      <use xlink:href="#DejaVuSans-44" transform="translate(235.6875 0)"/>
      <use xlink:href="#DejaVuSans-4a" transform="translate(296.96875 0)"/>
      <use xlink:href="#DejaVuSans-48" transform="translate(360.453125 0)"/>
      <use xlink:href="#DejaVuSans-3" transform="translate(421.984375 0)"/>
      <use xlink:href="#DejaVuSans-55" transform="translate(453.765625 0)"/>
      <use xlink:href="#DejaVuSans-48" transform="translate(492.671875 0)"/>
      <use xlink:href="#DejaVuSans-56" transform="translate(554.203125 0)"/>
      <use xlink:href="#DejaVuSans-46" transform="translate(606.296875 0)"/>
      <use xlink:href="#DejaVuSans-58" transform="translate(661.28125 0)"/>
      <use xlink:href="#DejaVuSans-48" transform="translate(724.65625 0)"/>
      <use xlink:href="#DejaVuSans-47" transform="translate(786.1875 0)"/>
      <use xlink:href="#DejaVuSans-3" transform="translate(849.671875 0)"/>
      <use xlink:href="#DejaVuSans-b" transform="translate(881.453125 0)"/>
      <use xlink:href="#DejaVuSans-8" transform="translate(920.46875 0)"/>
      <use xlink:href="#DejaVuSans-c" transform="translate(1015.484375 0)"/>
     </g>
    </g>
   </g>
   <g id="matplotlib.axis_4">
    <g id="ytick_3">
     <g id="line2d_28">
      <g>
       <use xlink:href="#m5f2e6d2c14" x="351.905828" y="62.42741" style="fill: #4b5563; stroke: #4b5563; stroke-width: 0.8"/>
      </g>
     </g>
     <g id="text_20">
      <!-- Restore d = 0 -->
      <g style="fill: #4b5563" transform="translate(291.420984 65.3908) scale(0.078 -0.078)">
       <defs>
        <path id="DejaVuSans-57" d="M 1172 4494
L 1172 3500
L 2356 3500
L 2356 3053
L 1172 3053
L 1172 1153
Q 1172 725 1289 603
Q 1406 481 1766 481
L 2356 481
L 2356 0
L 1766 0
Q 1100 0 847 248
Q 594 497 594 1153
L 594 3053
L 172 3053
L 172 3500
L 594 3500
L 594 4494
L 1172 4494
z
" transform="scale(0.015625)"/>
       </defs>
       <use xlink:href="#DejaVuSans-35"/>
       <use xlink:href="#DejaVuSans-48" transform="translate(65 0)"/>
       <use xlink:href="#DejaVuSans-56" transform="translate(126.53125 0)"/>
       <use xlink:href="#DejaVuSans-57" transform="translate(178.625 0)"/>
       <use xlink:href="#DejaVuSans-52" transform="translate(217.828125 0)"/>
       <use xlink:href="#DejaVuSans-55" transform="translate(279.015625 0)"/>
       <use xlink:href="#DejaVuSans-48" transform="translate(317.921875 0)"/>
       <use xlink:href="#DejaVuSans-3" transform="translate(379.453125 0)"/>
       <use xlink:href="#DejaVuSans-47" transform="translate(411.234375 0)"/>
       <use xlink:href="#DejaVuSans-3" transform="translate(474.71875 0)"/>
       <use xlink:href="#DejaVuSans-20" transform="translate(506.5 0)"/>
       <use xlink:href="#DejaVuSans-3" transform="translate(590.296875 0)"/>
       <use xlink:href="#DejaVuSans-13" transform="translate(622.078125 0)"/>
      </g>
     </g>
    </g>
    <g id="ytick_4">
     <g id="line2d_29">
      <g>
       <use xlink:href="#m5f2e6d2c14" x="351.905828" y="126.371852" style="fill: #4b5563; stroke: #4b5563; stroke-width: 0.8"/>
      </g>
     </g>
     <g id="text_21">
      <!-- Restore d = 1–3 -->
      <g style="fill: #4b5563" transform="translate(282.558234 129.335242) scale(0.078 -0.078)">
       <use xlink:href="#DejaVuSans-35"/>
       <use xlink:href="#DejaVuSans-48" transform="translate(65 0)"/>
       <use xlink:href="#DejaVuSans-56" transform="translate(126.53125 0)"/>
       <use xlink:href="#DejaVuSans-57" transform="translate(178.625 0)"/>
       <use xlink:href="#DejaVuSans-52" transform="translate(217.828125 0)"/>
       <use xlink:href="#DejaVuSans-55" transform="translate(279.015625 0)"/>
       <use xlink:href="#DejaVuSans-48" transform="translate(317.921875 0)"/>
       <use xlink:href="#DejaVuSans-3" transform="translate(379.453125 0)"/>
       <use xlink:href="#DejaVuSans-47" transform="translate(411.234375 0)"/>
       <use xlink:href="#DejaVuSans-3" transform="translate(474.71875 0)"/>
       <use xlink:href="#DejaVuSans-20" transform="translate(506.5 0)"/>
       <use xlink:href="#DejaVuSans-3" transform="translate(590.296875 0)"/>
       <use xlink:href="#DejaVuSans-14" transform="translate(622.078125 0)"/>
       <use xlink:href="#DejaVuSans-af5" transform="translate(685.703125 0)"/>
       <use xlink:href="#DejaVuSans-16" transform="translate(735.703125 0)"/>
      </g>
     </g>
    </g>
    <g id="ytick_5">
     <g id="line2d_30">
      <g>
       <use xlink:href="#m5f2e6d2c14" x="351.905828" y="190.316294" style="fill: #4b5563; stroke: #4b5563; stroke-width: 0.8"/>
      </g>
     </g>
     <g id="text_22">
      <!-- Keep only d = 0–3 -->
      <g style="fill: #4b5563" transform="translate(273.900234 193.279684) scale(0.078 -0.078)">
       <defs>
        <path id="DejaVuSans-2e" d="M 628 4666
L 1259 4666
L 1259 2694
L 3353 4666
L 4166 4666
L 1850 2491
L 4331 0
L 3500 0
L 1259 2247
L 1259 0
L 628 0
L 628 4666
z
" transform="scale(0.015625)"/>
        <path id="DejaVuSans-51" d="M 3513 2113
L 3513 0
L 2938 0
L 2938 2094
Q 2938 2591 2744 2837
Q 2550 3084 2163 3084
Q 1697 3084 1428 2787
Q 1159 2491 1159 1978
L 1159 0
L 581 0
L 581 3500
L 1159 3500
L 1159 2956
Q 1366 3272 1645 3428
Q 1925 3584 2291 3584
Q 2894 3584 3203 3211
Q 3513 2838 3513 2113
z
" transform="scale(0.015625)"/>
        <path id="DejaVuSans-4f" d="M 603 4863
L 1178 4863
L 1178 0
L 603 0
L 603 4863
z
" transform="scale(0.015625)"/>
        <path id="DejaVuSans-5c" d="M 2059 -325
Q 1816 -950 1584 -1140
Q 1353 -1331 966 -1331
L 506 -1331
L 506 -850
L 844 -850
Q 1081 -850 1212 -737
Q 1344 -625 1503 -206
L 1606 56
L 191 3500
L 800 3500
L 1894 763
L 2988 3500
L 3597 3500
L 2059 -325
z
" transform="scale(0.015625)"/>
       </defs>
       <use xlink:href="#DejaVuSans-2e"/>
       <use xlink:href="#DejaVuSans-48" transform="translate(60.59375 0)"/>
       <use xlink:href="#DejaVuSans-48" transform="translate(122.125 0)"/>
       <use xlink:href="#DejaVuSans-53" transform="translate(183.65625 0)"/>
       <use xlink:href="#DejaVuSans-3" transform="translate(247.140625 0)"/>
       <use xlink:href="#DejaVuSans-52" transform="translate(278.921875 0)"/>
       <use xlink:href="#DejaVuSans-51" transform="translate(340.109375 0)"/>
       <use xlink:href="#DejaVuSans-4f" transform="translate(403.484375 0)"/>
       <use xlink:href="#DejaVuSans-5c" transform="translate(431.265625 0)"/>
       <use xlink:href="#DejaVuSans-3" transform="translate(490.453125 0)"/>
       <use xlink:href="#DejaVuSans-47" transform="translate(522.234375 0)"/>
       <use xlink:href="#DejaVuSans-3" transform="translate(585.71875 0)"/>
       <use xlink:href="#DejaVuSans-20" transform="translate(617.5 0)"/>
       <use xlink:href="#DejaVuSans-3" transform="translate(701.296875 0)"/>
       <use xlink:href="#DejaVuSans-13" transform="translate(733.078125 0)"/>
       <use xlink:href="#DejaVuSans-af5" transform="translate(796.703125 0)"/>
       <use xlink:href="#DejaVuSans-16" transform="translate(846.703125 0)"/>
      </g>
     </g>
    </g>
   </g>
   <g id="patch_8">
    <path d="M 351.905828 79.052965
L 528.742488 79.052965
L 528.742488 45.801855
L 351.905828 45.801855
z
" clip-path="url(#p90d302964e)" style="fill: #2f6bde"/>
   </g>
   <g id="patch_9">
    <path d="M 351.905828 142.997406
L 363.779195 142.997406
L 363.779195 109.746297
L 351.905828 109.746297
z
" clip-path="url(#p90d302964e)" style="fill: #6b7280"/>
   </g>
   <g id="patch_10">
    <path d="M 351.905828 206.941848
L 530.310732 206.941848
L 530.310732 173.690739
L 351.905828 173.690739
z
" clip-path="url(#p90d302964e)" style="fill: #16857a"/>
   </g>
   <g id="line2d_31">
    <path d="M 532.185535 214.998848
L 532.185535 37.744855
" clip-path="url(#p90d302964e)" style="fill: none; stroke-dasharray: 1,1.65; stroke-dashoffset: 0; stroke: #172033"/>
   </g>
   <g id="patch_11">
    <path d="M 351.905828 214.998848
L 351.905828 37.744855
" style="fill: none; stroke: #9ca3af; stroke-width: 0.8; stroke-linejoin: miter; stroke-linecap: square"/>
   </g>
   <g id="patch_12">
    <path d="M 351.905828 214.998848
L 541.19952 214.998848
" style="fill: none; stroke: #9ca3af; stroke-width: 0.8; stroke-linejoin: miter; stroke-linecap: square"/>
   </g>
   <g id="text_23">
    <!-- 98.1% -->
    <g style="fill: #ffffff" transform="translate(499.284395 64.349675) scale(0.074 -0.074)">
     <defs>
      <path id="DejaVuSans-Bold-1c" d="M 641 103
L 641 966
Q 928 831 1190 764
Q 1453 697 1709 697
Q 2247 697 2547 995
Q 2847 1294 2900 1881
Q 2688 1725 2447 1647
Q 2206 1569 1925 1569
Q 1209 1569 770 1986
Q 331 2403 331 3084
Q 331 3838 820 4291
Q 1309 4744 2131 4744
Q 3044 4744 3544 4128
Q 4044 3513 4044 2388
Q 4044 1231 3459 570
Q 2875 -91 1856 -91
Q 1528 -91 1228 -42
Q 928 6 641 103
z
M 2125 2350
Q 2441 2350 2600 2554
Q 2759 2759 2759 3169
Q 2759 3575 2600 3781
Q 2441 3988 2125 3988
Q 1809 3988 1650 3781
Q 1491 3575 1491 3169
Q 1491 2759 1650 2554
Q 1809 2350 2125 2350
z
" transform="scale(0.015625)"/>
      <path id="DejaVuSans-Bold-1b" d="M 2228 2088
Q 1891 2088 1709 1903
Q 1528 1719 1528 1375
Q 1528 1031 1709 848
Q 1891 666 2228 666
Q 2563 666 2741 848
Q 2919 1031 2919 1375
Q 2919 1722 2741 1905
Q 2563 2088 2228 2088
z
M 1350 2484
Q 925 2613 709 2878
Q 494 3144 494 3541
Q 494 4131 934 4440
Q 1375 4750 2228 4750
Q 3075 4750 3515 4442
Q 3956 4134 3956 3541
Q 3956 3144 3739 2878
Q 3522 2613 3097 2484
Q 3572 2353 3814 2058
Q 4056 1763 4056 1313
Q 4056 619 3595 264
Q 3134 -91 2228 -91
Q 1319 -91 855 264
Q 391 619 391 1313
Q 391 1763 633 2058
Q 875 2353 1350 2484
z
M 1631 3419
Q 1631 3141 1786 2991
Q 1941 2841 2228 2841
Q 2509 2841 2662 2991
Q 2816 3141 2816 3419
Q 2816 3697 2662 3845
Q 2509 3994 2228 3994
Q 1941 3994 1786 3844
Q 1631 3694 1631 3419
z
" transform="scale(0.015625)"/>
      <path id="DejaVuSans-Bold-11" d="M 653 1209
L 1778 1209
L 1778 0
L 653 0
L 653 1209
z
" transform="scale(0.015625)"/>
      <path id="DejaVuSans-Bold-14" d="M 750 831
L 1813 831
L 1813 3847
L 722 3622
L 722 4441
L 1806 4666
L 2950 4666
L 2950 831
L 4013 831
L 4013 0
L 750 0
L 750 831
z
" transform="scale(0.015625)"/>
      <path id="DejaVuSans-Bold-8" d="M 4959 1925
Q 4738 1925 4616 1733
Q 4494 1541 4494 1184
Q 4494 825 4614 633
Q 4734 441 4959 441
Q 5184 441 5303 633
Q 5422 825 5422 1184
Q 5422 1541 5301 1733
Q 5181 1925 4959 1925
z
M 4959 2450
Q 5541 2450 5875 2112
Q 6209 1775 6209 1184
Q 6209 594 5875 251
Q 5541 -91 4959 -91
Q 4378 -91 4042 251
Q 3706 594 3706 1184
Q 3706 1772 4042 2111
Q 4378 2450 4959 2450
z
M 2094 -91
L 1403 -91
L 4319 4750
L 5013 4750
L 2094 -91
z
M 1453 4750
Q 2034 4750 2367 4411
Q 2700 4072 2700 3481
Q 2700 2891 2367 2550
Q 2034 2209 1453 2209
Q 872 2209 539 2550
Q 206 2891 206 3481
Q 206 4072 539 4411
Q 872 4750 1453 4750
z
M 1453 4225
Q 1228 4225 1106 4031
Q 984 3838 984 3481
Q 984 3122 1106 2926
Q 1228 2731 1453 2731
Q 1678 2731 1798 2926
Q 1919 3122 1919 3481
Q 1919 3838 1797 4031
Q 1675 4225 1453 4225
z
" transform="scale(0.015625)"/>
     </defs>
     <use xlink:href="#DejaVuSans-Bold-1c"/>
     <use xlink:href="#DejaVuSans-Bold-1b" transform="translate(69.578125 0)"/>
     <use xlink:href="#DejaVuSans-Bold-11" transform="translate(139.15625 0)"/>
     <use xlink:href="#DejaVuSans-Bold-14" transform="translate(177.140625 0)"/>
     <use xlink:href="#DejaVuSans-Bold-8" transform="translate(246.71875 0)"/>
    </g>
   </g>
   <g id="text_24">
    <!-- 6.6% -->
    <g style="fill: #172033" transform="translate(366.618601 128.294117) scale(0.074 -0.074)">
     <use xlink:href="#DejaVuSans-19"/>
     <use xlink:href="#DejaVuSans-11" transform="translate(63.625 0)"/>
     <use xlink:href="#DejaVuSans-19" transform="translate(95.40625 0)"/>
     <use xlink:href="#DejaVuSans-8" transform="translate(159.03125 0)"/>
    </g>
   </g>
   <g id="text_25">
    <!-- 99.0% -->
    <g style="fill: #ffffff" transform="translate(500.852639 192.238559) scale(0.074 -0.074)">
     <defs>
      <path id="DejaVuSans-Bold-13" d="M 2944 2338
Q 2944 3213 2780 3570
Q 2616 3928 2228 3928
Q 1841 3928 1675 3570
Q 1509 3213 1509 2338
Q 1509 1453 1675 1090
Q 1841 728 2228 728
Q 2613 728 2778 1090
Q 2944 1453 2944 2338
z
M 4147 2328
Q 4147 1169 3647 539
Q 3147 -91 2228 -91
Q 1306 -91 806 539
Q 306 1169 306 2328
Q 306 3491 806 4120
Q 1306 4750 2228 4750
Q 3147 4750 3647 4120
Q 4147 3491 4147 2328
z
" transform="scale(0.015625)"/>
     </defs>
     <use xlink:href="#DejaVuSans-Bold-1c"/>
     <use xlink:href="#DejaVuSans-Bold-1c" transform="translate(69.578125 0)"/>
     <use xlink:href="#DejaVuSans-Bold-11" transform="translate(139.15625 0)"/>
     <use xlink:href="#DejaVuSans-Bold-13" transform="translate(177.140625 0)"/>
     <use xlink:href="#DejaVuSans-Bold-8" transform="translate(246.71875 0)"/>
    </g>
   </g>
   <g id="text_26">
    <!-- Sufficiency · restore or retain -->
    <g style="fill: #172033" transform="translate(351.905828 31.744855) scale(0.096 -0.096)">
     <defs>
      <path id="DejaVuSans-Bold-36" d="M 3834 4519
L 3834 3531
Q 3450 3703 3084 3790
Q 2719 3878 2394 3878
Q 1963 3878 1756 3759
Q 1550 3641 1550 3391
Q 1550 3203 1689 3098
Q 1828 2994 2194 2919
L 2706 2816
Q 3484 2659 3812 2340
Q 4141 2022 4141 1434
Q 4141 663 3683 286
Q 3225 -91 2284 -91
Q 1841 -91 1394 -6
Q 947 78 500 244
L 500 1259
Q 947 1022 1364 901
Q 1781 781 2169 781
Q 2563 781 2772 912
Q 2981 1044 2981 1288
Q 2981 1506 2839 1625
Q 2697 1744 2272 1838
L 1806 1941
Q 1106 2091 782 2419
Q 459 2747 459 3303
Q 459 4000 909 4375
Q 1359 4750 2203 4750
Q 2588 4750 2994 4692
Q 3400 4634 3834 4519
z
" transform="scale(0.015625)"/>
      <path id="DejaVuSans-Bold-58" d="M 500 1363
L 500 3500
L 1625 3500
L 1625 3150
Q 1625 2866 1622 2436
Q 1619 2006 1619 1863
Q 1619 1441 1641 1255
Q 1663 1069 1716 984
Q 1784 875 1895 815
Q 2006 756 2150 756
Q 2500 756 2700 1025
Q 2900 1294 2900 1772
L 2900 3500
L 4019 3500
L 4019 0
L 2900 0
L 2900 506
Q 2647 200 2364 54
Q 2081 -91 1741 -91
Q 1134 -91 817 281
Q 500 653 500 1363
z
" transform="scale(0.015625)"/>
      <path id="DejaVuSans-Bold-13ad" d="M 2841 4863
L 2841 4128
L 2222 4128
Q 1984 4128 1891 4044
Q 1797 3956 1797 3744
L 1797 3500
L 3078 3500
L 3078 3744
Q 3078 4316 3397 4588
Q 3716 4863 4384 4863
L 5241 4863
L 5241 4128
L 4622 4128
Q 4388 4128 4297 4044
Q 4206 3956 4206 3744
L 4206 3500
L 6600 3500
L 6600 0
L 5472 0
L 5472 2700
L 4206 2700
L 4206 0
L 4197 0
L 3078 0
L 3078 2700
L 1797 2700
L 1797 0
L 678 0
L 678 2700
L 122 2700
L 122 3500
L 678 3500
L 678 3744
Q 678 4316 997 4588
Q 1316 4863 1984 4863
L 2841 4863
z
M 5472 4863
L 6600 4863
L 6600 3950
L 5472 3950
L 5472 4863
z
" transform="scale(0.015625)"/>
      <path id="DejaVuSans-Bold-51" d="M 4056 2131
L 4056 0
L 2931 0
L 2931 347
L 2931 1631
Q 2931 2084 2911 2256
Q 2891 2428 2841 2509
Q 2775 2619 2662 2680
Q 2550 2741 2406 2741
Q 2056 2741 1856 2470
Q 1656 2200 1656 1722
L 1656 0
L 538 0
L 538 3500
L 1656 3500
L 1656 2988
Q 1909 3294 2193 3439
Q 2478 3584 2822 3584
Q 3428 3584 3742 3212
Q 4056 2841 4056 2131
z
" transform="scale(0.015625)"/>
      <path id="DejaVuSans-Bold-44" d="M 2106 1575
Q 1756 1575 1579 1456
Q 1403 1338 1403 1106
Q 1403 894 1545 773
Q 1688 653 1941 653
Q 2256 653 2472 879
Q 2688 1106 2688 1447
L 2688 1575
L 2106 1575
z
M 3816 1997
L 3816 0
L 2688 0
L 2688 519
Q 2463 200 2181 54
Q 1900 -91 1497 -91
Q 953 -91 614 226
Q 275 544 275 1050
Q 275 1666 698 1953
Q 1122 2241 2028 2241
L 2688 2241
L 2688 2328
Q 2688 2594 2478 2717
Q 2269 2841 1825 2841
Q 1466 2841 1156 2769
Q 847 2697 581 2553
L 581 3406
Q 941 3494 1303 3539
Q 1666 3584 2028 3584
Q 2975 3584 3395 3211
Q 3816 2838 3816 1997
z
" transform="scale(0.015625)"/>
     </defs>
     <use xlink:href="#DejaVuSans-Bold-36"/>
     <use xlink:href="#DejaVuSans-Bold-58" transform="translate(72.015625 0)"/>
     <use xlink:href="#DejaVuSans-Bold-13ad" transform="translate(143.203125 0)"/>
     <use xlink:href="#DejaVuSans-Bold-46" transform="translate(254.734375 0)"/>
     <use xlink:href="#DejaVuSans-Bold-4c" transform="translate(314.015625 0)"/>
     <use xlink:href="#DejaVuSans-Bold-48" transform="translate(348.296875 0)"/>
     <use xlink:href="#DejaVuSans-Bold-51" transform="translate(416.125 0)"/>
     <use xlink:href="#DejaVuSans-Bold-46" transform="translate(487.3125 0)"/>
     <use xlink:href="#DejaVuSans-Bold-5c" transform="translate(546.59375 0)"/>
     <use xlink:href="#DejaVuSans-Bold-3" transform="translate(611.78125 0)"/>
     <use xlink:href="#DejaVuSans-Bold-79" transform="translate(646.59375 0)"/>
     <use xlink:href="#DejaVuSans-Bold-3" transform="translate(684.578125 0)"/>
     <use xlink:href="#DejaVuSans-Bold-55" transform="translate(719.390625 0)"/>
     <use xlink:href="#DejaVuSans-Bold-48" transform="translate(768.703125 0)"/>
     <use xlink:href="#DejaVuSans-Bold-56" transform="translate(836.53125 0)"/>
     <use xlink:href="#DejaVuSans-Bold-57" transform="translate(896.046875 0)"/>
     <use xlink:href="#DejaVuSans-Bold-52" transform="translate(943.84375 0)"/>
     <use xlink:href="#DejaVuSans-Bold-55" transform="translate(1012.546875 0)"/>
     <use xlink:href="#DejaVuSans-Bold-48" transform="translate(1061.859375 0)"/>
     <use xlink:href="#DejaVuSans-Bold-3" transform="translate(1129.6875 0)"/>
     <use xlink:href="#DejaVuSans-Bold-52" transform="translate(1164.5 0)"/>
     <use xlink:href="#DejaVuSans-Bold-55" transform="translate(1233.203125 0)"/>
     <use xlink:href="#DejaVuSans-Bold-3" transform="translate(1282.515625 0)"/>
     <use xlink:href="#DejaVuSans-Bold-55" transform="translate(1317.328125 0)"/>
     <use xlink:href="#DejaVuSans-Bold-48" transform="translate(1366.640625 0)"/>
     <use xlink:href="#DejaVuSans-Bold-57" transform="translate(1434.46875 0)"/>
     <use xlink:href="#DejaVuSans-Bold-44" transform="translate(1482.265625 0)"/>
     <use xlink:href="#DejaVuSans-Bold-4c" transform="translate(1549.75 0)"/>
     <use xlink:href="#DejaVuSans-Bold-51" transform="translate(1584.03125 0)"/>
    </g>
   </g>
  </g>
  <g id="text_27">
   <!-- F7-1b | d = 0 is both necessary and nearly sufficient -->
   <g transform="translate(9.59976 15.75925) scale(0.112 -0.112)">
    <defs>
     <path id="DejaVuSans-Bold-29" d="M 588 4666
L 3834 4666
L 3834 3756
L 1791 3756
L 1791 2888
L 3713 2888
L 3713 1978
L 1791 1978
L 1791 0
L 588 0
L 588 4666
z
" transform="scale(0.015625)"/>
     <path id="DejaVuSans-Bold-1a" d="M 428 4666
L 3944 4666
L 3944 3988
L 2125 0
L 953 0
L 2675 3781
L 428 3781
L 428 4666
z
" transform="scale(0.015625)"/>
     <path id="DejaVuSans-Bold-10" d="M 347 2297
L 2309 2297
L 2309 1388
L 347 1388
L 347 2297
z
" transform="scale(0.015625)"/>
     <path id="DejaVuSans-Bold-45" d="M 2400 722
Q 2759 722 2948 984
Q 3138 1247 3138 1747
Q 3138 2247 2948 2509
Q 2759 2772 2400 2772
Q 2041 2772 1848 2508
Q 1656 2244 1656 1747
Q 1656 1250 1848 986
Q 2041 722 2400 722
z
M 1656 2988
Q 1888 3294 2169 3439
Q 2450 3584 2816 3584
Q 3463 3584 3878 3070
Q 4294 2556 4294 1747
Q 4294 938 3878 423
Q 3463 -91 2816 -91
Q 2450 -91 2169 54
Q 1888 200 1656 506
L 1656 0
L 538 0
L 538 4863
L 1656 4863
L 1656 2988
z
" transform="scale(0.015625)"/>
     <path id="DejaVuSans-Bold-5f" d="M 1522 4891
L 1522 -1509
L 813 -1509
L 813 4891
L 1522 4891
z
" transform="scale(0.015625)"/>
     <path id="DejaVuSans-Bold-47" d="M 2919 2988
L 2919 4863
L 4044 4863
L 4044 0
L 2919 0
L 2919 506
Q 2688 197 2409 53
Q 2131 -91 1766 -91
Q 1119 -91 703 423
Q 288 938 288 1747
Q 288 2556 703 3070
Q 1119 3584 1766 3584
Q 2128 3584 2408 3439
Q 2688 3294 2919 2988
z
M 2181 722
Q 2541 722 2730 984
Q 2919 1247 2919 1747
Q 2919 2247 2730 2509
Q 2541 2772 2181 2772
Q 1825 2772 1636 2509
Q 1447 2247 1447 1747
Q 1447 1247 1636 984
Q 1825 722 2181 722
z
" transform="scale(0.015625)"/>
     <path id="DejaVuSans-Bold-20" d="M 678 3084
L 4684 3084
L 4684 2350
L 678 2350
L 678 3084
z
M 678 1663
L 4684 1663
L 4684 922
L 678 922
L 678 1663
z
" transform="scale(0.015625)"/>
     <path id="DejaVuSans-Bold-4b" d="M 4056 2131
L 4056 0
L 2931 0
L 2931 347
L 2931 1625
Q 2931 2084 2911 2256
Q 2891 2428 2841 2509
Q 2775 2619 2662 2680
Q 2550 2741 2406 2741
Q 2056 2741 1856 2470
Q 1656 2200 1656 1722
L 1656 0
L 538 0
L 538 4863
L 1656 4863
L 1656 2988
Q 1909 3294 2193 3439
Q 2478 3584 2822 3584
Q 3428 3584 3742 3212
Q 4056 2841 4056 2131
z
" transform="scale(0.015625)"/>
    </defs>
    <use xlink:href="#DejaVuSans-Bold-29"/>
    <use xlink:href="#DejaVuSans-Bold-1a" transform="translate(68.3125 0)"/>
    <use xlink:href="#DejaVuSans-Bold-10" transform="translate(137.890625 0)"/>
    <use xlink:href="#DejaVuSans-Bold-14" transform="translate(179.390625 0)"/>
    <use xlink:href="#DejaVuSans-Bold-45" transform="translate(248.96875 0)"/>
    <use xlink:href="#DejaVuSans-Bold-3" transform="translate(320.546875 0)"/>
    <use xlink:href="#DejaVuSans-Bold-5f" transform="translate(355.359375 0)"/>
    <use xlink:href="#DejaVuSans-Bold-3" transform="translate(391.890625 0)"/>
    <use xlink:href="#DejaVuSans-Bold-47" transform="translate(426.703125 0)"/>
    <use xlink:href="#DejaVuSans-Bold-3" transform="translate(498.28125 0)"/>
    <use xlink:href="#DejaVuSans-Bold-20" transform="translate(533.09375 0)"/>
    <use xlink:href="#DejaVuSans-Bold-3" transform="translate(616.890625 0)"/>
    <use xlink:href="#DejaVuSans-Bold-13" transform="translate(651.703125 0)"/>
    <use xlink:href="#DejaVuSans-Bold-3" transform="translate(721.28125 0)"/>
    <use xlink:href="#DejaVuSans-Bold-4c" transform="translate(756.09375 0)"/>
    <use xlink:href="#DejaVuSans-Bold-56" transform="translate(790.375 0)"/>
    <use xlink:href="#DejaVuSans-Bold-3" transform="translate(849.890625 0)"/>
    <use xlink:href="#DejaVuSans-Bold-45" transform="translate(884.703125 0)"/>
    <use xlink:href="#DejaVuSans-Bold-52" transform="translate(956.28125 0)"/>
    <use xlink:href="#DejaVuSans-Bold-57" transform="translate(1024.984375 0)"/>
    <use xlink:href="#DejaVuSans-Bold-4b" transform="translate(1072.78125 0)"/>
    <use xlink:href="#DejaVuSans-Bold-3" transform="translate(1143.96875 0)"/>
    <use xlink:href="#DejaVuSans-Bold-51" transform="translate(1178.78125 0)"/>
    <use xlink:href="#DejaVuSans-Bold-48" transform="translate(1249.96875 0)"/>
    <use xlink:href="#DejaVuSans-Bold-46" transform="translate(1317.796875 0)"/>
    <use xlink:href="#DejaVuSans-Bold-48" transform="translate(1377.078125 0)"/>
    <use xlink:href="#DejaVuSans-Bold-56" transform="translate(1444.90625 0)"/>
    <use xlink:href="#DejaVuSans-Bold-56" transform="translate(1504.421875 0)"/>
    <use xlink:href="#DejaVuSans-Bold-44" transform="translate(1563.9375 0)"/>
    <use xlink:href="#DejaVuSans-Bold-55" transform="translate(1631.421875 0)"/>
    <use xlink:href="#DejaVuSans-Bold-5c" transform="translate(1680.734375 0)"/>
    <use xlink:href="#DejaVuSans-Bold-3" transform="translate(1745.921875 0)"/>
    <use xlink:href="#DejaVuSans-Bold-44" transform="translate(1780.734375 0)"/>
    <use xlink:href="#DejaVuSans-Bold-51" transform="translate(1848.21875 0)"/>
    <use xlink:href="#DejaVuSans-Bold-47" transform="translate(1919.40625 0)"/>
    <use xlink:href="#DejaVuSans-Bold-3" transform="translate(1990.984375 0)"/>
    <use xlink:href="#DejaVuSans-Bold-51" transform="translate(2025.796875 0)"/>
    <use xlink:href="#DejaVuSans-Bold-48" transform="translate(2096.984375 0)"/>
    <use xlink:href="#DejaVuSans-Bold-44" transform="translate(2164.8125 0)"/>
    <use xlink:href="#DejaVuSans-Bold-55" transform="translate(2232.296875 0)"/>
    <use xlink:href="#DejaVuSans-Bold-4f" transform="translate(2281.609375 0)"/>
    <use xlink:href="#DejaVuSans-Bold-5c" transform="translate(2315.890625 0)"/>
    <use xlink:href="#DejaVuSans-Bold-3" transform="translate(2381.078125 0)"/>
    <use xlink:href="#DejaVuSans-Bold-56" transform="translate(2415.890625 0)"/>
    <use xlink:href="#DejaVuSans-Bold-58" transform="translate(2475.40625 0)"/>
    <use xlink:href="#DejaVuSans-Bold-13ad" transform="translate(2546.59375 0)"/>
    <use xlink:href="#DejaVuSans-Bold-46" transform="translate(2658.125 0)"/>
    <use xlink:href="#DejaVuSans-Bold-4c" transform="translate(2717.40625 0)"/>
    <use xlink:href="#DejaVuSans-Bold-48" transform="translate(2751.6875 0)"/>
    <use xlink:href="#DejaVuSans-Bold-51" transform="translate(2819.515625 0)"/>
    <use xlink:href="#DejaVuSans-Bold-57" transform="translate(2890.703125 0)"/>
   </g>
  </g>
 </g>
 <defs>
  <clipPath id="p8c95baf253">
   <rect x="78.606063" y="37.744855" width="189.293692" height="177.253993"/>
  </clipPath>
  <clipPath id="p90d302964e">
   <rect x="351.905828" y="37.744855" width="189.293692" height="177.253993"/>
  </clipPath>
 </defs>
</svg>
