<?xml version="1.0" encoding="utf-8" standalone="no"?>
<!DOCTYPE svg PUBLIC "-//W3C//DTD SVG 1.1//EN"
  "http://www.w3.org/Graphics/SVG/1.1/DTD/svg11.dtd">
<svg xmlns:xlink="http://www.w3.org/1999/xlink" width="533.99952pt" height="314.39952pt" viewBox="0 0 533.99952 314.39952" xmlns="http://www.w3.org/2000/svg" version="1.1">
 <metadata>
  <rdf:RDF xmlns:dc="http://purl.org/dc/elements/1.1/" xmlns:cc="http://creativecommons.org/ns#" xmlns:rdf="http://www.w3.org/1999/02/22-rdf-syntax-ns#">
   <cc:Work>
    <dc:type rdf:resource="http://purl.org/dc/dcmitype/StillImage"/>
    <dc:date>2026-07-19T02:46:09.023379</dc:date>
    <dc:format>image/svg+xml</dc:format>
    <dc:creator>
     <cc:Agent>
      <dc:title>Matplotlib v3.11.0, https://matplotlib.org/</dc:title>
     </cc:Agent>
    </dc:creator>
   </cc:Work>
  </rdf:RDF>
 </metadata>
 <defs>
  <style type="text/css">*{stroke-linejoin: round; stroke-linecap: butt}</style>
 </defs>
 <g id="figure_1">
  <g id="patch_1">
   <path d="M 0 314.39952
L 533.99952 314.39952
L 533.99952 0
L 0 0
z
" style="fill: #ffffff"/>
  </g>
  <g id="axes_1">
   <g id="patch_2">
    <path d="M 123.960625 279.798848
L 526.79952 279.798848
L 526.79952 20.5365
L 123.960625 20.5365
z
" style="fill: #ffffff"/>
   </g>
   <g id="matplotlib.axis_1">
    <g id="xtick_1">
     <g id="line2d_1">
      <path d="M 123.960625 279.798848
L 123.960625 20.5365
" clip-path="url(#pdffec1abdb)" style="fill: none; stroke: #e5e7eb; stroke-opacity: 0.9; stroke-width: 0.7; stroke-linecap: square"/>
     </g>
     <g id="line2d_2">
      <defs>
       <path id="mec2f2f65c9" d="M 0 0
L 0 3.5
" style="stroke: #4b5563; stroke-width: 0.8"/>
      </defs>
      <g>
       <use xlink:href="#mec2f2f65c9" x="123.960625" y="279.798848" style="fill: #4b5563; stroke: #4b5563; stroke-width: 0.8"/>
      </g>
     </g>
     <g id="text_1">
      <!-- 0 -->
      <g style="fill: #4b5563" transform="translate(121.47925 292.72502) scale(0.078 -0.078)">
       <defs>
        <path id="DejaVuSans-13" d="M 2034 4250
Q 1547 4250 1301 3770
Q 1056 3291 1056 2328
Q 1056 1369 1301 889
Q 1547 409 2034 409
Q 2525 409 2770 889
Q 3016 1369 3016 2328
Q 3016 3291 2770 3770
Q 2525 4250 2034 4250
z
M 2034 4750
Q 2819 4750 3233 4129
Q 3647 3509 3647 2328
Q 3647 1150 3233 529
Q 2819 -91 2034 -91
Q 1250 -91 836 529
Q 422 1150 422 2328
Q 422 3509 836 4129
Q 1250 4750 2034 4750
z
" transform="scale(0.015625)"/>
       </defs>
       <use xlink:href="#DejaVuSans-13"/>
      </g>
     </g>
    </g>
    <g id="xtick_2">
     <g id="line2d_3">
      <path d="M 200.691843 279.798848
L 200.691843 20.5365
" clip-path="url(#pdffec1abdb)" style="fill: none; stroke: #e5e7eb; stroke-opacity: 0.9; stroke-width: 0.7; stroke-linecap: square"/>
     </g>
     <g id="line2d_4">
      <g>
       <use xlink:href="#mec2f2f65c9" x="200.691843" y="279.798848" style="fill: #4b5563; stroke: #4b5563; stroke-width: 0.8"/>
      </g>
     </g>
     <g id="text_2">
      <!-- 20 -->
      <g style="fill: #4b5563" transform="translate(195.729093 292.72502) scale(0.078 -0.078)">
       <defs>
        <path id="DejaVuSans-15" d="M 1228 531
L 3431 531
L 3431 0
L 469 0
L 469 531
Q 828 903 1448 1529
Q 2069 2156 2228 2338
Q 2531 2678 2651 2914
Q 2772 3150 2772 3378
Q 2772 3750 2511 3984
Q 2250 4219 1831 4219
Q 1534 4219 1204 4116
Q 875 4013 500 3803
L 500 4441
Q 881 4594 1212 4672
Q 1544 4750 1819 4750
Q 2544 4750 2975 4387
Q 3406 4025 3406 3419
Q 3406 3131 3298 2873
Q 3191 2616 2906 2266
Q 2828 2175 2409 1742
Q 1991 1309 1228 531
z
" transform="scale(0.015625)"/>
       </defs>
       <use xlink:href="#DejaVuSans-15"/>
       <use xlink:href="#DejaVuSans-13" transform="translate(63.625 0)"/>
      </g>
     </g>
    </g>
    <g id="xtick_3">
     <g id="line2d_5">
      <path d="M 277.423061 279.798848
L 277.423061 20.5365
" clip-path="url(#pdffec1abdb)" style="fill: none; stroke: #e5e7eb; stroke-opacity: 0.9; stroke-width: 0.7; stroke-linecap: square"/>
     </g>
     <g id="line2d_6">
      <g>
       <use xlink:href="#mec2f2f65c9" x="277.423061" y="279.798848" style="fill: #4b5563; stroke: #4b5563; stroke-width: 0.8"/>
      </g>
     </g>
     <g id="text_3">
      <!-- 40 -->
      <g style="fill: #4b5563" transform="translate(272.460311 292.72502) scale(0.078 -0.078)">
       <defs>
        <path id="DejaVuSans-17" d="M 2419 4116
L 825 1625
L 2419 1625
L 2419 4116
z
M 2253 4666
L 3047 4666
L 3047 1625
L 3713 1625
L 3713 1100
L 3047 1100
L 3047 0
L 2419 0
L 2419 1100
L 313 1100
L 313 1709
L 2253 4666
z
" transform="scale(0.015625)"/>
       </defs>
       <use xlink:href="#DejaVuSans-17"/>
       <use xlink:href="#DejaVuSans-13" transform="translate(63.625 0)"/>
      </g>
     </g>
    </g>
    <g id="xtick_4">
     <g id="line2d_7">
      <path d="M 354.154279 279.798848
L 354.154279 20.5365
" clip-path="url(#pdffec1abdb)" style="fill: none; stroke: #e5e7eb; stroke-opacity: 0.9; stroke-width: 0.7; stroke-linecap: square"/>
     </g>
     <g id="line2d_8">
      <g>
       <use xlink:href="#mec2f2f65c9" x="354.154279" y="279.798848" style="fill: #4b5563; stroke: #4b5563; stroke-width: 0.8"/>
      </g>
     </g>
     <g id="text_4">
      <!-- 60 -->
      <g style="fill: #4b5563" transform="translate(349.191529 292.72502) scale(0.078 -0.078)">
       <defs>
        <path id="DejaVuSans-19" d="M 2113 2584
Q 1688 2584 1439 2293
Q 1191 2003 1191 1497
Q 1191 994 1439 701
Q 1688 409 2113 409
Q 2538 409 2786 701
Q 3034 994 3034 1497
Q 3034 2003 2786 2293
Q 2538 2584 2113 2584
z
M 3366 4563
L 3366 3988
Q 3128 4100 2886 4159
Q 2644 4219 2406 4219
Q 1781 4219 1451 3797
Q 1122 3375 1075 2522
Q 1259 2794 1537 2939
Q 1816 3084 2150 3084
Q 2853 3084 3261 2657
Q 3669 2231 3669 1497
Q 3669 778 3244 343
Q 2819 -91 2113 -91
Q 1303 -91 875 529
Q 447 1150 447 2328
Q 447 3434 972 4092
Q 1497 4750 2381 4750
Q 2619 4750 2861 4703
Q 3103 4656 3366 4563
z
" transform="scale(0.015625)"/>
       </defs>
       <use xlink:href="#DejaVuSans-19"/>
       <use xlink:href="#DejaVuSans-13" transform="translate(63.625 0)"/>
      </g>
     </g>
    </g>
    <g id="xtick_5">
     <g id="line2d_9">
      <path d="M 430.885497 279.798848
L 430.885497 20.5365
" clip-path="url(#pdffec1abdb)" style="fill: none; stroke: #e5e7eb; stroke-opacity: 0.9; stroke-width: 0.7; stroke-linecap: square"/>
     </g>
     <g id="line2d_10">
      <g>
       <use xlink:href="#mec2f2f65c9" x="430.885497" y="279.798848" style="fill: #4b5563; stroke: #4b5563; stroke-width: 0.8"/>
      </g>
     </g>
     <g id="text_5">
      <!-- 80 -->
      <g style="fill: #4b5563" transform="translate(425.922747 292.72502) scale(0.078 -0.078)">
       <defs>
        <path id="DejaVuSans-1b" d="M 2034 2216
Q 1584 2216 1326 1975
Q 1069 1734 1069 1313
Q 1069 891 1326 650
Q 1584 409 2034 409
Q 2484 409 2743 651
Q 3003 894 3003 1313
Q 3003 1734 2745 1975
Q 2488 2216 2034 2216
z
M 1403 2484
Q 997 2584 770 2862
Q 544 3141 544 3541
Q 544 4100 942 4425
Q 1341 4750 2034 4750
Q 2731 4750 3128 4425
Q 3525 4100 3525 3541
Q 3525 3141 3298 2862
Q 3072 2584 2669 2484
Q 3125 2378 3379 2068
Q 3634 1759 3634 1313
Q 3634 634 3220 271
Q 2806 -91 2034 -91
Q 1263 -91 848 271
Q 434 634 434 1313
Q 434 1759 690 2068
Q 947 2378 1403 2484
z
M 1172 3481
Q 1172 3119 1398 2916
Q 1625 2713 2034 2713
Q 2441 2713 2670 2916
Q 2900 3119 2900 3481
Q 2900 3844 2670 4047
Q 2441 4250 2034 4250
Q 1625 4250 1398 4047
Q 1172 3844 1172 3481
z
" transform="scale(0.015625)"/>
       </defs>
       <use xlink:href="#DejaVuSans-1b"/>
       <use xlink:href="#DejaVuSans-13" transform="translate(63.625 0)"/>
      </g>
     </g>
    </g>
    <g id="xtick_6">
     <g id="line2d_11">
      <path d="M 507.616715 279.798848
L 507.616715 20.5365
" clip-path="url(#pdffec1abdb)" style="fill: none; stroke: #e5e7eb; stroke-opacity: 0.9; stroke-width: 0.7; stroke-linecap: square"/>
     </g>
     <g id="line2d_12">
      <g>
       <use xlink:href="#mec2f2f65c9" x="507.616715" y="279.798848" style="fill: #4b5563; stroke: #4b5563; stroke-width: 0.8"/>
      </g>
     </g>
     <g id="text_6">
      <!-- 100 -->
      <g style="fill: #4b5563" transform="translate(500.17259 292.72502) scale(0.078 -0.078)">
       <defs>
        <path id="DejaVuSans-14" d="M 794 531
L 1825 531
L 1825 4091
L 703 3866
L 703 4441
L 1819 4666
L 2450 4666
L 2450 531
L 3481 531
L 3481 0
L 794 0
L 794 531
z
" transform="scale(0.015625)"/>
       </defs>
       <use xlink:href="#DejaVuSans-14"/>
       <use xlink:href="#DejaVuSans-13" transform="translate(63.625 0)"/>
       <use xlink:href="#DejaVuSans-13" transform="translate(127.25 0)"/>
      </g>
     </g>
    </g>
    <g id="text_7">
     <!-- Causal cost relative to full L29 bias-off (%) -->
     <g style="fill: #172033" transform="translate(233.962744 305.133504) scale(0.086 -0.086)">
      <defs>
       <path id="DejaVuSans-26" d="M 4122 4306
L 4122 3641
Q 3803 3938 3442 4084
Q 3081 4231 2675 4231
Q 1875 4231 1450 3742
Q 1025 3253 1025 2328
Q 1025 1406 1450 917
Q 1875 428 2675 428
Q 3081 428 3442 575
Q 3803 722 4122 1019
L 4122 359
Q 3791 134 3420 21
Q 3050 -91 2638 -91
Q 1578 -91 968 557
Q 359 1206 359 2328
Q 359 3453 968 4101
Q 1578 4750 2638 4750
Q 3056 4750 3426 4639
Q 3797 4528 4122 4306
z
" transform="scale(0.015625)"/>
       <path id="DejaVuSans-44" d="M 2194 1759
Q 1497 1759 1228 1600
Q 959 1441 959 1056
Q 959 750 1161 570
Q 1363 391 1709 391
Q 2188 391 2477 730
Q 2766 1069 2766 1631
L 2766 1759
L 2194 1759
z
M 3341 1997
L 3341 0
L 2766 0
L 2766 531
Q 2569 213 2275 61
Q 1981 -91 1556 -91
Q 1019 -91 701 211
Q 384 513 384 1019
Q 384 1609 779 1909
Q 1175 2209 1959 2209
L 2766 2209
L 2766 2266
Q 2766 2663 2505 2880
Q 2244 3097 1772 3097
Q 1472 3097 1187 3025
Q 903 2953 641 2809
L 641 3341
Q 956 3463 1253 3523
Q 1550 3584 1831 3584
Q 2591 3584 2966 3190
Q 3341 2797 3341 1997
z
" transform="scale(0.015625)"/>
       <path id="DejaVuSans-58" d="M 544 1381
L 544 3500
L 1119 3500
L 1119 1403
Q 1119 906 1312 657
Q 1506 409 1894 409
Q 2359 409 2629 706
Q 2900 1003 2900 1516
L 2900 3500
L 3475 3500
L 3475 0
L 2900 0
L 2900 538
Q 2691 219 2414 64
Q 2138 -91 1772 -91
Q 1169 -91 856 284
Q 544 659 544 1381
z
M 1991 3584
L 1991 3584
z
" transform="scale(0.015625)"/>
       <path id="DejaVuSans-56" d="M 2834 3397
L 2834 2853
Q 2591 2978 2328 3040
Q 2066 3103 1784 3103
Q 1356 3103 1142 2972
Q 928 2841 928 2578
Q 928 2378 1081 2264
Q 1234 2150 1697 2047
L 1894 2003
Q 2506 1872 2764 1633
Q 3022 1394 3022 966
Q 3022 478 2636 193
Q 2250 -91 1575 -91
Q 1294 -91 989 -36
Q 684 19 347 128
L 347 722
Q 666 556 975 473
Q 1284 391 1588 391
Q 1994 391 2212 530
Q 2431 669 2431 922
Q 2431 1156 2273 1281
Q 2116 1406 1581 1522
L 1381 1569
Q 847 1681 609 1914
Q 372 2147 372 2553
Q 372 3047 722 3315
Q 1072 3584 1716 3584
Q 2034 3584 2315 3537
Q 2597 3491 2834 3397
z
" transform="scale(0.015625)"/>
       <path id="DejaVuSans-4f" d="M 603 4863
L 1178 4863
L 1178 0
L 603 0
L 603 4863
z
" transform="scale(0.015625)"/>
       <path id="DejaVuSans-3" transform="scale(0.015625)"/>
       <path id="DejaVuSans-46" d="M 3122 3366
L 3122 2828
Q 2878 2963 2633 3030
Q 2388 3097 2138 3097
Q 1578 3097 1268 2742
Q 959 2388 959 1747
Q 959 1106 1268 751
Q 1578 397 2138 397
Q 2388 397 2633 464
Q 2878 531 3122 666
L 3122 134
Q 2881 22 2623 -34
Q 2366 -91 2075 -91
Q 1284 -91 818 406
Q 353 903 353 1747
Q 353 2603 823 3093
Q 1294 3584 2113 3584
Q 2378 3584 2631 3529
Q 2884 3475 3122 3366
z
" transform="scale(0.015625)"/>
       <path id="DejaVuSans-52" d="M 1959 3097
Q 1497 3097 1228 2736
Q 959 2375 959 1747
Q 959 1119 1226 758
Q 1494 397 1959 397
Q 2419 397 2687 759
Q 2956 1122 2956 1747
Q 2956 2369 2687 2733
Q 2419 3097 1959 3097
z
M 1959 3584
Q 2709 3584 3137 3096
Q 3566 2609 3566 1747
Q 3566 888 3137 398
Q 2709 -91 1959 -91
Q 1206 -91 779 398
Q 353 888 353 1747
Q 353 2609 779 3096
Q 1206 3584 1959 3584
z
" transform="scale(0.015625)"/>
       <path id="DejaVuSans-57" d="M 1172 4494
L 1172 3500
L 2356 3500
L 2356 3053
L 1172 3053
L 1172 1153
Q 1172 725 1289 603
Q 1406 481 1766 481
L 2356 481
L 2356 0
L 1766 0
Q 1100 0 847 248
Q 594 497 594 1153
L 594 3053
L 172 3053
L 172 3500
L 594 3500
L 594 4494
L 1172 4494
z
" transform="scale(0.015625)"/>
       <path id="DejaVuSans-55" d="M 2631 2963
Q 2534 3019 2420 3045
Q 2306 3072 2169 3072
Q 1681 3072 1420 2755
Q 1159 2438 1159 1844
L 1159 0
L 581 0
L 581 3500
L 1159 3500
L 1159 2956
Q 1341 3275 1631 3429
Q 1922 3584 2338 3584
Q 2397 3584 2469 3576
Q 2541 3569 2628 3553
L 2631 2963
z
" transform="scale(0.015625)"/>
       <path id="DejaVuSans-48" d="M 3597 1894
L 3597 1613
L 953 1613
Q 991 1019 1311 708
Q 1631 397 2203 397
Q 2534 397 2845 478
Q 3156 559 3463 722
L 3463 178
Q 3153 47 2828 -22
Q 2503 -91 2169 -91
Q 1331 -91 842 396
Q 353 884 353 1716
Q 353 2575 817 3079
Q 1281 3584 2069 3584
Q 2775 3584 3186 3129
Q 3597 2675 3597 1894
z
M 3022 2063
Q 3016 2534 2758 2815
Q 2500 3097 2075 3097
Q 1594 3097 1305 2825
Q 1016 2553 972 2059
L 3022 2063
z
" transform="scale(0.015625)"/>
       <path id="DejaVuSans-4c" d="M 603 3500
L 1178 3500
L 1178 0
L 603 0
L 603 3500
z
M 603 4863
L 1178 4863
L 1178 4134
L 603 4134
L 603 4863
z
" transform="scale(0.015625)"/>
       <path id="DejaVuSans-59" d="M 191 3500
L 800 3500
L 1894 563
L 2988 3500
L 3597 3500
L 2284 0
L 1503 0
L 191 3500
z
" transform="scale(0.015625)"/>
       <path id="DejaVuSans-49" d="M 2375 4863
L 2375 4384
L 1825 4384
Q 1516 4384 1395 4259
Q 1275 4134 1275 3809
L 1275 3500
L 2222 3500
L 2222 3053
L 1275 3053
L 1275 0
L 697 0
L 697 3053
L 147 3053
L 147 3500
L 697 3500
L 697 3744
Q 697 4328 969 4595
Q 1241 4863 1831 4863
L 2375 4863
z
" transform="scale(0.015625)"/>
       <path id="DejaVuSans-2f" d="M 628 4666
L 1259 4666
L 1259 531
L 3531 531
L 3531 0
L 628 0
L 628 4666
z
" transform="scale(0.015625)"/>
       <path id="DejaVuSans-1c" d="M 703 97
L 703 672
Q 941 559 1184 500
Q 1428 441 1663 441
Q 2288 441 2617 861
Q 2947 1281 2994 2138
Q 2813 1869 2534 1725
Q 2256 1581 1919 1581
Q 1219 1581 811 2004
Q 403 2428 403 3163
Q 403 3881 828 4315
Q 1253 4750 1959 4750
Q 2769 4750 3195 4129
Q 3622 3509 3622 2328
Q 3622 1225 3098 567
Q 2575 -91 1691 -91
Q 1453 -91 1209 -44
Q 966 3 703 97
z
M 1959 2075
Q 2384 2075 2632 2365
Q 2881 2656 2881 3163
Q 2881 3666 2632 3958
Q 2384 4250 1959 4250
Q 1534 4250 1286 3958
Q 1038 3666 1038 3163
Q 1038 2656 1286 2365
Q 1534 2075 1959 2075
z
" transform="scale(0.015625)"/>
       <path id="DejaVuSans-45" d="M 3116 1747
Q 3116 2381 2855 2742
Q 2594 3103 2138 3103
Q 1681 3103 1420 2742
Q 1159 2381 1159 1747
Q 1159 1113 1420 752
Q 1681 391 2138 391
Q 2594 391 2855 752
Q 3116 1113 3116 1747
z
M 1159 2969
Q 1341 3281 1617 3432
Q 1894 3584 2278 3584
Q 2916 3584 3314 3078
Q 3713 2572 3713 1747
Q 3713 922 3314 415
Q 2916 -91 2278 -91
Q 1894 -91 1617 61
Q 1341 213 1159 525
L 1159 0
L 581 0
L 581 4863
L 1159 4863
L 1159 2969
z
" transform="scale(0.015625)"/>
       <path id="DejaVuSans-10" d="M 313 2009
L 1997 2009
L 1997 1497
L 313 1497
L 313 2009
z
" transform="scale(0.015625)"/>
       <path id="DejaVuSans-13ae" d="M 4531 4863
L 4531 4384
L 3981 4384
Q 3672 4384 3551 4259
Q 3431 4134 3431 3809
L 3431 3500
L 4378 3500
L 4378 3053
L 3431 3053
L 3431 0
L 2853 0
L 2853 3053
L 1275 3053
L 1275 0
L 697 0
L 697 3053
L 147 3053
L 147 3500
L 697 3500
L 697 3744
Q 697 4328 969 4595
Q 1241 4863 1831 4863
L 2375 4863
L 2375 4384
L 1825 4384
Q 1516 4384 1394 4259
Q 1275 4134 1275 3809
L 1275 3500
L 2853 3500
L 2853 3744
Q 2853 4328 3125 4595
Q 3397 4863 3988 4863
L 4531 4863
z
" transform="scale(0.015625)"/>
       <path id="DejaVuSans-b" d="M 1984 4856
Q 1566 4138 1362 3434
Q 1159 2731 1159 2009
Q 1159 1288 1364 580
Q 1569 -128 1984 -844
L 1484 -844
Q 1016 -109 783 600
Q 550 1309 550 2009
Q 550 2706 781 3412
Q 1013 4119 1484 4856
L 1984 4856
z
" transform="scale(0.015625)"/>
       <path id="DejaVuSans-8" d="M 4653 2053
Q 4381 2053 4226 1822
Q 4072 1591 4072 1178
Q 4072 772 4226 539
Q 4381 306 4653 306
Q 4919 306 5073 539
Q 5228 772 5228 1178
Q 5228 1588 5073 1820
Q 4919 2053 4653 2053
z
M 4653 2450
Q 5147 2450 5437 2106
Q 5728 1763 5728 1178
Q 5728 594 5436 251
Q 5144 -91 4653 -91
Q 4153 -91 3862 251
Q 3572 594 3572 1178
Q 3572 1766 3864 2108
Q 4156 2450 4653 2450
z
M 1428 4353
Q 1159 4353 1004 4120
Q 850 3888 850 3481
Q 850 3069 1003 2837
Q 1156 2606 1428 2606
Q 1700 2606 1854 2837
Q 2009 3069 2009 3481
Q 2009 3884 1853 4118
Q 1697 4353 1428 4353
z
M 4250 4750
L 4750 4750
L 1831 -91
L 1331 -91
L 4250 4750
z
M 1428 4750
Q 1922 4750 2215 4408
Q 2509 4066 2509 3481
Q 2509 2891 2217 2550
Q 1925 2209 1428 2209
Q 931 2209 642 2551
Q 353 2894 353 3481
Q 353 4063 643 4406
Q 934 4750 1428 4750
z
" transform="scale(0.015625)"/>
       <path id="DejaVuSans-c" d="M 513 4856
L 1013 4856
Q 1481 4119 1714 3412
Q 1947 2706 1947 2009
Q 1947 1309 1714 600
Q 1481 -109 1013 -844
L 513 -844
Q 928 -128 1133 580
Q 1338 1288 1338 2009
Q 1338 2731 1133 3434
Q 928 4138 513 4856
z
" transform="scale(0.015625)"/>
      </defs>
      <use xlink:href="#DejaVuSans-26"/>
      <use xlink:href="#DejaVuSans-44" transform="translate(69.828125 0)"/>
      <use xlink:href="#DejaVuSans-58" transform="translate(131.109375 0)"/>
      <use xlink:href="#DejaVuSans-56" transform="translate(194.484375 0)"/>
      <use xlink:href="#DejaVuSans-44" transform="translate(246.578125 0)"/>
      <use xlink:href="#DejaVuSans-4f" transform="translate(307.859375 0)"/>
      <use xlink:href="#DejaVuSans-3" transform="translate(335.640625 0)"/>
      <use xlink:href="#DejaVuSans-46" transform="translate(367.421875 0)"/>
      <use xlink:href="#DejaVuSans-52" transform="translate(422.40625 0)"/>
      <use xlink:href="#DejaVuSans-56" transform="translate(483.59375 0)"/>
      <use xlink:href="#DejaVuSans-57" transform="translate(535.6875 0)"/>
      <use xlink:href="#DejaVuSans-3" transform="translate(574.890625 0)"/>
      <use xlink:href="#DejaVuSans-55" transform="translate(606.671875 0)"/>
      <use xlink:href="#DejaVuSans-48" transform="translate(645.578125 0)"/>
      <use xlink:href="#DejaVuSans-4f" transform="translate(707.109375 0)"/>
      <use xlink:href="#DejaVuSans-44" transform="translate(734.890625 0)"/>
      <use xlink:href="#DejaVuSans-57" transform="translate(796.171875 0)"/>
      <use xlink:href="#DejaVuSans-4c" transform="translate(835.375 0)"/>
      <use xlink:href="#DejaVuSans-59" transform="translate(863.15625 0)"/>
      <use xlink:href="#DejaVuSans-48" transform="translate(922.34375 0)"/>
      <use xlink:href="#DejaVuSans-3" transform="translate(983.875 0)"/>
      <use xlink:href="#DejaVuSans-57" transform="translate(1015.65625 0)"/>
      <use xlink:href="#DejaVuSans-52" transform="translate(1054.859375 0)"/>
      <use xlink:href="#DejaVuSans-3" transform="translate(1116.046875 0)"/>
      <use xlink:href="#DejaVuSans-49" transform="translate(1147.828125 0)"/>
      <use xlink:href="#DejaVuSans-58" transform="translate(1183.03125 0)"/>
      <use xlink:href="#DejaVuSans-4f" transform="translate(1246.40625 0)"/>
      <use xlink:href="#DejaVuSans-4f" transform="translate(1274.1875 0)"/>
      <use xlink:href="#DejaVuSans-3" transform="translate(1301.96875 0)"/>
      <use xlink:href="#DejaVuSans-2f" transform="translate(1333.75 0)"/>
      <use xlink:href="#DejaVuSans-15" transform="translate(1389.46875 0)"/>
      <use xlink:href="#DejaVuSans-1c" transform="translate(1453.09375 0)"/>
      <use xlink:href="#DejaVuSans-3" transform="translate(1516.71875 0)"/>
      <use xlink:href="#DejaVuSans-45" transform="translate(1548.5 0)"/>
      <use xlink:href="#DejaVuSans-4c" transform="translate(1611.984375 0)"/>
      <use xlink:href="#DejaVuSans-44" transform="translate(1639.765625 0)"/>
      <use xlink:href="#DejaVuSans-56" transform="translate(1701.046875 0)"/>
      <use xlink:href="#DejaVuSans-10" transform="translate(1753.140625 0)"/>
      <use xlink:href="#DejaVuSans-52" transform="translate(1791.078125 0)"/>
      <use xlink:href="#DejaVuSans-13ae" transform="translate(1852.265625 0)"/>
      <use xlink:href="#DejaVuSans-3" transform="translate(1921.15625 0)"/>
      <use xlink:href="#DejaVuSans-b" transform="translate(1952.9375 0)"/>
      <use xlink:href="#DejaVuSans-8" transform="translate(1991.953125 0)"/>
      <use xlink:href="#DejaVuSans-c" transform="translate(2086.96875 0)"/>
     </g>
    </g>
   </g>
   <g id="matplotlib.axis_2">
    <g id="ytick_1">
     <g id="line2d_13">
      <defs>
       <path id="mac61869b1d" d="M 0 0
L -3.5 0
" style="stroke: #4b5563; stroke-width: 0.8"/>
      </defs>
      <g>
       <use xlink:href="#mac61869b1d" x="123.960625" y="45.322014" style="fill: #4b5563; stroke: #4b5563; stroke-width: 0.8"/>
      </g>
     </g>
     <g id="text_8">
      <!-- Static mean removed -->
      <g style="fill: #4b5563" transform="translate(33.007031 48.285405) scale(0.078 -0.078)">
       <defs>
        <path id="DejaVuSans-36" d="M 3425 4513
L 3425 3897
Q 3066 4069 2747 4153
Q 2428 4238 2131 4238
Q 1616 4238 1336 4038
Q 1056 3838 1056 3469
Q 1056 3159 1242 3001
Q 1428 2844 1947 2747
L 2328 2669
Q 3034 2534 3370 2195
Q 3706 1856 3706 1288
Q 3706 609 3251 259
Q 2797 -91 1919 -91
Q 1588 -91 1214 -16
Q 841 59 441 206
L 441 856
Q 825 641 1194 531
Q 1563 422 1919 422
Q 2459 422 2753 634
Q 3047 847 3047 1241
Q 3047 1584 2836 1778
Q 2625 1972 2144 2069
L 1759 2144
Q 1053 2284 737 2584
Q 422 2884 422 3419
Q 422 4038 858 4394
Q 1294 4750 2059 4750
Q 2388 4750 2728 4690
Q 3069 4631 3425 4513
z
" transform="scale(0.015625)"/>
        <path id="DejaVuSans-50" d="M 3328 2828
Q 3544 3216 3844 3400
Q 4144 3584 4550 3584
Q 5097 3584 5394 3201
Q 5691 2819 5691 2113
L 5691 0
L 5113 0
L 5113 2094
Q 5113 2597 4934 2840
Q 4756 3084 4391 3084
Q 3944 3084 3684 2787
Q 3425 2491 3425 1978
L 3425 0
L 2847 0
L 2847 2094
Q 2847 2600 2669 2842
Q 2491 3084 2119 3084
Q 1678 3084 1418 2786
Q 1159 2488 1159 1978
L 1159 0
L 581 0
L 581 3500
L 1159 3500
L 1159 2956
Q 1356 3278 1631 3431
Q 1906 3584 2284 3584
Q 2666 3584 2933 3390
Q 3200 3197 3328 2828
z
" transform="scale(0.015625)"/>
        <path id="DejaVuSans-51" d="M 3513 2113
L 3513 0
L 2938 0
L 2938 2094
Q 2938 2591 2744 2837
Q 2550 3084 2163 3084
Q 1697 3084 1428 2787
Q 1159 2491 1159 1978
L 1159 0
L 581 0
L 581 3500
L 1159 3500
L 1159 2956
Q 1366 3272 1645 3428
Q 1925 3584 2291 3584
Q 2894 3584 3203 3211
Q 3513 2838 3513 2113
z
" transform="scale(0.015625)"/>
        <path id="DejaVuSans-47" d="M 2906 2969
L 2906 4863
L 3481 4863
L 3481 0
L 2906 0
L 2906 525
Q 2725 213 2448 61
Q 2172 -91 1784 -91
Q 1150 -91 751 415
Q 353 922 353 1747
Q 353 2572 751 3078
Q 1150 3584 1784 3584
Q 2172 3584 2448 3432
Q 2725 3281 2906 2969
z
M 947 1747
Q 947 1113 1208 752
Q 1469 391 1925 391
Q 2381 391 2643 752
Q 2906 1113 2906 1747
Q 2906 2381 2643 2742
Q 2381 3103 1925 3103
Q 1469 3103 1208 2742
Q 947 2381 947 1747
z
" transform="scale(0.015625)"/>
       </defs>
       <use xlink:href="#DejaVuSans-36"/>
       <use xlink:href="#DejaVuSans-57" transform="translate(63.484375 0)"/>
       <use xlink:href="#DejaVuSans-44" transform="translate(102.6875 0)"/>
       <use xlink:href="#DejaVuSans-57" transform="translate(163.96875 0)"/>
       <use xlink:href="#DejaVuSans-4c" transform="translate(203.171875 0)"/>
       <use xlink:href="#DejaVuSans-46" transform="translate(230.953125 0)"/>
       <use xlink:href="#DejaVuSans-3" transform="translate(285.9375 0)"/>
       <use xlink:href="#DejaVuSans-50" transform="translate(317.71875 0)"/>
       <use xlink:href="#DejaVuSans-48" transform="translate(415.125 0)"/>
       <use xlink:href="#DejaVuSans-44" transform="translate(476.65625 0)"/>
       <use xlink:href="#DejaVuSans-51" transform="translate(537.9375 0)"/>
       <use xlink:href="#DejaVuSans-3" transform="translate(601.3125 0)"/>
       <use xlink:href="#DejaVuSans-55" transform="translate(633.09375 0)"/>
       <use xlink:href="#DejaVuSans-48" transform="translate(672 0)"/>
       <use xlink:href="#DejaVuSans-50" transform="translate(733.53125 0)"/>
       <use xlink:href="#DejaVuSans-52" transform="translate(830.9375 0)"/>
       <use xlink:href="#DejaVuSans-59" transform="translate(892.125 0)"/>
       <use xlink:href="#DejaVuSans-48" transform="translate(951.3125 0)"/>
       <use xlink:href="#DejaVuSans-47" transform="translate(1012.84375 0)"/>
      </g>
     </g>
    </g>
    <g id="ytick_2">
     <g id="line2d_14">
      <g>
       <use xlink:href="#mac61869b1d" x="123.960625" y="87.260278" style="fill: #4b5563; stroke: #4b5563; stroke-width: 0.8"/>
      </g>
     </g>
     <g id="text_9">
      <!-- Non-carrier mean removed -->
      <g style="fill: #4b5563" transform="translate(11.426625 90.223669) scale(0.078 -0.078)">
       <defs>
        <path id="DejaVuSans-31" d="M 628 4666
L 1478 4666
L 3547 763
L 3547 4666
L 4159 4666
L 4159 0
L 3309 0
L 1241 3903
L 1241 0
L 628 0
L 628 4666
z
" transform="scale(0.015625)"/>
       </defs>
       <use xlink:href="#DejaVuSans-31"/>
       <use xlink:href="#DejaVuSans-52" transform="translate(74.8125 0)"/>
       <use xlink:href="#DejaVuSans-51" transform="translate(136 0)"/>
       <use xlink:href="#DejaVuSans-10" transform="translate(199.375 0)"/>
       <use xlink:href="#DejaVuSans-46" transform="translate(235.453125 0)"/>
       <use xlink:href="#DejaVuSans-44" transform="translate(290.4375 0)"/>
       <use xlink:href="#DejaVuSans-55" transform="translate(351.71875 0)"/>
       <use xlink:href="#DejaVuSans-55" transform="translate(391.078125 0)"/>
       <use xlink:href="#DejaVuSans-4c" transform="translate(432.1875 0)"/>
       <use xlink:href="#DejaVuSans-48" transform="translate(459.96875 0)"/>
       <use xlink:href="#DejaVuSans-55" transform="translate(521.5 0)"/>
       <use xlink:href="#DejaVuSans-3" transform="translate(562.609375 0)"/>
       <use xlink:href="#DejaVuSans-50" transform="translate(594.390625 0)"/>
       <use xlink:href="#DejaVuSans-48" transform="translate(691.796875 0)"/>
       <use xlink:href="#DejaVuSans-44" transform="translate(753.328125 0)"/>
       <use xlink:href="#DejaVuSans-51" transform="translate(814.609375 0)"/>
       <use xlink:href="#DejaVuSans-3" transform="translate(877.984375 0)"/>
       <use xlink:href="#DejaVuSans-55" transform="translate(909.765625 0)"/>
       <use xlink:href="#DejaVuSans-48" transform="translate(948.671875 0)"/>
       <use xlink:href="#DejaVuSans-50" transform="translate(1010.203125 0)"/>
       <use xlink:href="#DejaVuSans-52" transform="translate(1107.609375 0)"/>
       <use xlink:href="#DejaVuSans-59" transform="translate(1168.796875 0)"/>
       <use xlink:href="#DejaVuSans-48" transform="translate(1227.984375 0)"/>
       <use xlink:href="#DejaVuSans-47" transform="translate(1289.515625 0)"/>
      </g>
     </g>
    </g>
    <g id="ytick_3">
     <g id="line2d_15">
      <g>
       <use xlink:href="#mac61869b1d" x="123.960625" y="129.198542" style="fill: #4b5563; stroke: #4b5563; stroke-width: 0.8"/>
      </g>
     </g>
     <g id="text_10">
      <!-- Token variation removed -->
      <g style="fill: #4b5563" transform="translate(20.746406 132.161933) scale(0.078 -0.078)">
       <defs>
        <path id="DejaVuSans-37" d="M -19 4666
L 3928 4666
L 3928 4134
L 2272 4134
L 2272 0
L 1638 0
L 1638 4134
L -19 4134
L -19 4666
z
" transform="scale(0.015625)"/>
        <path id="DejaVuSans-4e" d="M 581 4863
L 1159 4863
L 1159 1991
L 2875 3500
L 3609 3500
L 1753 1863
L 3688 0
L 2938 0
L 1159 1709
L 1159 0
L 581 0
L 581 4863
z
" transform="scale(0.015625)"/>
       </defs>
       <use xlink:href="#DejaVuSans-37"/>
       <use xlink:href="#DejaVuSans-52" transform="translate(44.09375 0)"/>
       <use xlink:href="#DejaVuSans-4e" transform="translate(105.28125 0)"/>
       <use xlink:href="#DejaVuSans-48" transform="translate(159.625 0)"/>
       <use xlink:href="#DejaVuSans-51" transform="translate(221.15625 0)"/>
       <use xlink:href="#DejaVuSans-3" transform="translate(284.53125 0)"/>
       <use xlink:href="#DejaVuSans-59" transform="translate(316.3125 0)"/>
       <use xlink:href="#DejaVuSans-44" transform="translate(375.5 0)"/>
       <use xlink:href="#DejaVuSans-55" transform="translate(436.78125 0)"/>
       <use xlink:href="#DejaVuSans-4c" transform="translate(477.890625 0)"/>
       <use xlink:href="#DejaVuSans-44" transform="translate(505.671875 0)"/>
       <use xlink:href="#DejaVuSans-57" transform="translate(566.953125 0)"/>
       <use xlink:href="#DejaVuSans-4c" transform="translate(606.15625 0)"/>
       <use xlink:href="#DejaVuSans-52" transform="translate(633.9375 0)"/>
       <use xlink:href="#DejaVuSans-51" transform="translate(695.125 0)"/>
       <use xlink:href="#DejaVuSans-3" transform="translate(758.5 0)"/>
       <use xlink:href="#DejaVuSans-55" transform="translate(790.28125 0)"/>
       <use xlink:href="#DejaVuSans-48" transform="translate(829.1875 0)"/>
       <use xlink:href="#DejaVuSans-50" transform="translate(890.71875 0)"/>
       <use xlink:href="#DejaVuSans-52" transform="translate(988.125 0)"/>
       <use xlink:href="#DejaVuSans-59" transform="translate(1049.3125 0)"/>
       <use xlink:href="#DejaVuSans-48" transform="translate(1108.5 0)"/>
       <use xlink:href="#DejaVuSans-47" transform="translate(1170.03125 0)"/>
      </g>
     </g>
    </g>
    <g id="ytick_4">
     <g id="line2d_16">
      <g>
       <use xlink:href="#mac61869b1d" x="123.960625" y="171.136806" style="fill: #4b5563; stroke: #4b5563; stroke-width: 0.8"/>
      </g>
     </g>
     <g id="text_11">
      <!-- Carrier mean removed -->
      <g style="fill: #4b5563" transform="translate(28.634156 174.100197) scale(0.078 -0.078)">
       <use xlink:href="#DejaVuSans-26"/>
       <use xlink:href="#DejaVuSans-44" transform="translate(69.828125 0)"/>
       <use xlink:href="#DejaVuSans-55" transform="translate(131.109375 0)"/>
       <use xlink:href="#DejaVuSans-55" transform="translate(170.46875 0)"/>
       <use xlink:href="#DejaVuSans-4c" transform="translate(211.578125 0)"/>
       <use xlink:href="#DejaVuSans-48" transform="translate(239.359375 0)"/>
       <use xlink:href="#DejaVuSans-55" transform="translate(300.890625 0)"/>
       <use xlink:href="#DejaVuSans-3" transform="translate(342 0)"/>
       <use xlink:href="#DejaVuSans-50" transform="translate(373.78125 0)"/>
       <use xlink:href="#DejaVuSans-48" transform="translate(471.1875 0)"/>
       <use xlink:href="#DejaVuSans-44" transform="translate(532.71875 0)"/>
       <use xlink:href="#DejaVuSans-51" transform="translate(594 0)"/>
       <use xlink:href="#DejaVuSans-3" transform="translate(657.375 0)"/>
       <use xlink:href="#DejaVuSans-55" transform="translate(689.15625 0)"/>
       <use xlink:href="#DejaVuSans-48" transform="translate(728.0625 0)"/>
       <use xlink:href="#DejaVuSans-50" transform="translate(789.59375 0)"/>
       <use xlink:href="#DejaVuSans-52" transform="translate(887 0)"/>
       <use xlink:href="#DejaVuSans-59" transform="translate(948.1875 0)"/>
       <use xlink:href="#DejaVuSans-48" transform="translate(1007.375 0)"/>
       <use xlink:href="#DejaVuSans-47" transform="translate(1068.90625 0)"/>
      </g>
     </g>
    </g>
    <g id="ytick_5">
     <g id="line2d_17">
      <g>
       <use xlink:href="#mac61869b1d" x="123.960625" y="213.07507" style="fill: #4b5563; stroke: #4b5563; stroke-width: 0.8"/>
      </g>
     </g>
     <g id="text_12">
      <!-- Carrier removed (all tokens) -->
      <g style="fill: #4b5563" transform="translate(7.2 216.038461) scale(0.078 -0.078)">
       <use xlink:href="#DejaVuSans-26"/>
       <use xlink:href="#DejaVuSans-44" transform="translate(69.828125 0)"/>
       <use xlink:href="#DejaVuSans-55" transform="translate(131.109375 0)"/>
       <use xlink:href="#DejaVuSans-55" transform="translate(170.46875 0)"/>
       <use xlink:href="#DejaVuSans-4c" transform="translate(211.578125 0)"/>
       <use xlink:href="#DejaVuSans-48" transform="translate(239.359375 0)"/>
       <use xlink:href="#DejaVuSans-55" transform="translate(300.890625 0)"/>
       <use xlink:href="#DejaVuSans-3" transform="translate(342 0)"/>
       <use xlink:href="#DejaVuSans-55" transform="translate(373.78125 0)"/>
       <use xlink:href="#DejaVuSans-48" transform="translate(412.6875 0)"/>
       <use xlink:href="#DejaVuSans-50" transform="translate(474.21875 0)"/>
       <use xlink:href="#DejaVuSans-52" transform="translate(571.625 0)"/>
       <use xlink:href="#DejaVuSans-59" transform="translate(632.8125 0)"/>
       <use xlink:href="#DejaVuSans-48" transform="translate(692 0)"/>
       <use xlink:href="#DejaVuSans-47" transform="translate(753.53125 0)"/>
       <use xlink:href="#DejaVuSans-3" transform="translate(817.015625 0)"/>
       <use xlink:href="#DejaVuSans-b" transform="translate(848.796875 0)"/>
       <use xlink:href="#DejaVuSans-44" transform="translate(887.8125 0)"/>
       <use xlink:href="#DejaVuSans-4f" transform="translate(949.09375 0)"/>
       <use xlink:href="#DejaVuSans-4f" transform="translate(976.875 0)"/>
       <use xlink:href="#DejaVuSans-3" transform="translate(1004.65625 0)"/>
       <use xlink:href="#DejaVuSans-57" transform="translate(1036.4375 0)"/>
       <use xlink:href="#DejaVuSans-52" transform="translate(1075.640625 0)"/>
       <use xlink:href="#DejaVuSans-4e" transform="translate(1136.828125 0)"/>
       <use xlink:href="#DejaVuSans-48" transform="translate(1191.171875 0)"/>
       <use xlink:href="#DejaVuSans-51" transform="translate(1252.703125 0)"/>
       <use xlink:href="#DejaVuSans-56" transform="translate(1316.078125 0)"/>
       <use xlink:href="#DejaVuSans-c" transform="translate(1368.171875 0)"/>
      </g>
     </g>
    </g>
    <g id="ytick_6">
     <g id="line2d_18">
      <g>
       <use xlink:href="#mac61869b1d" x="123.960625" y="255.013334" style="fill: #4b5563; stroke: #4b5563; stroke-width: 0.8"/>
      </g>
     </g>
     <g id="text_13">
      <!-- Carrier retained alone -->
      <g style="fill: #4b5563" transform="translate(31.33125 257.976725) scale(0.078 -0.078)">
       <use xlink:href="#DejaVuSans-26"/>
       <use xlink:href="#DejaVuSans-44" transform="translate(69.828125 0)"/>
       <use xlink:href="#DejaVuSans-55" transform="translate(131.109375 0)"/>
       <use xlink:href="#DejaVuSans-55" transform="translate(170.46875 0)"/>
       <use xlink:href="#DejaVuSans-4c" transform="translate(211.578125 0)"/>
       <use xlink:href="#DejaVuSans-48" transform="translate(239.359375 0)"/>
       <use xlink:href="#DejaVuSans-55" transform="translate(300.890625 0)"/>
       <use xlink:href="#DejaVuSans-3" transform="translate(342 0)"/>
       <use xlink:href="#DejaVuSans-55" transform="translate(373.78125 0)"/>
       <use xlink:href="#DejaVuSans-48" transform="translate(412.6875 0)"/>
       <use xlink:href="#DejaVuSans-57" transform="translate(474.21875 0)"/>
       <use xlink:href="#DejaVuSans-44" transform="translate(513.421875 0)"/>
       <use xlink:href="#DejaVuSans-4c" transform="translate(574.703125 0)"/>
       <use xlink:href="#DejaVuSans-51" transform="translate(602.484375 0)"/>
       <use xlink:href="#DejaVuSans-48" transform="translate(665.859375 0)"/>
       <use xlink:href="#DejaVuSans-47" transform="translate(727.390625 0)"/>
       <use xlink:href="#DejaVuSans-3" transform="translate(790.875 0)"/>
       <use xlink:href="#DejaVuSans-44" transform="translate(822.65625 0)"/>
       <use xlink:href="#DejaVuSans-4f" transform="translate(883.9375 0)"/>
       <use xlink:href="#DejaVuSans-52" transform="translate(911.71875 0)"/>
       <use xlink:href="#DejaVuSans-51" transform="translate(972.90625 0)"/>
       <use xlink:href="#DejaVuSans-48" transform="translate(1036.28125 0)"/>
      </g>
     </g>
    </g>
   </g>
   <g id="patch_3">
    <path d="M 123.960625 58.322876
L 423.513128 58.322876
L 423.513128 32.321152
L 123.960625 32.321152
z
" clip-path="url(#pdffec1abdb)" style="fill: #2f6bde"/>
   </g>
   <g id="patch_4">
    <path d="M 123.960625 100.26114
L 429.407872 100.26114
L 429.407872 74.259416
L 123.960625 74.259416
z
" clip-path="url(#pdffec1abdb)" style="fill: #16857a"/>
   </g>
   <g id="patch_5">
    <path d="M 123.960625 142.199404
L 131.213061 142.199404
L 131.213061 116.19768
L 123.960625 116.19768
z
" clip-path="url(#pdffec1abdb)" style="fill: #6b7280"/>
   </g>
   <g id="patch_6">
    <path d="M 123.960625 184.137668
L 124.809024 184.137668
L 124.809024 158.135944
L 123.960625 158.135944
z
" clip-path="url(#pdffec1abdb)" style="fill: #6b7280"/>
   </g>
   <g id="patch_7">
    <path d="M 123.960625 226.075932
L 124.050681 226.075932
L 124.050681 200.074208
L 123.960625 200.074208
z
" clip-path="url(#pdffec1abdb)" style="fill: #7c5cfc"/>
   </g>
   <g id="patch_8">
    <path d="M 123.960625 268.014196
L 487.93952 268.014196
L 487.93952 242.012472
L 123.960625 242.012472
z
" clip-path="url(#pdffec1abdb)" style="fill: #d97706"/>
   </g>
   <g id="line2d_19">
    <path d="M 315.78867 279.798848
L 315.78867 20.5365
" clip-path="url(#pdffec1abdb)" style="fill: none; stroke-dasharray: 3.7,1.6; stroke-dashoffset: 0; stroke: #172033"/>
   </g>
   <g id="line2d_20">
    <path d="M 219.874648 279.798848
L 219.874648 20.5365
" clip-path="url(#pdffec1abdb)" style="fill: none; stroke-dasharray: 1,1.65; stroke-dashoffset: 0; stroke: #9ca3af"/>
   </g>
   <g id="patch_9">
    <path d="M 123.960625 279.798848
L 123.960625 20.5365
" style="fill: none; stroke: #9ca3af; stroke-width: 0.8; stroke-linejoin: miter; stroke-linecap: square"/>
   </g>
   <g id="patch_10">
    <path d="M 123.960625 279.798848
L 526.79952 279.798848
" style="fill: none; stroke: #9ca3af; stroke-width: 0.8; stroke-linejoin: miter; stroke-linecap: square"/>
   </g>
   <g id="text_14">
    <!-- 78.1% -->
    <g style="fill: #172033" transform="translate(429.555711 47.24428) scale(0.074 -0.074)">
     <defs>
      <path id="DejaVuSans-1a" d="M 525 4666
L 3525 4666
L 3525 4397
L 1831 0
L 1172 0
L 2766 4134
L 525 4134
L 525 4666
z
" transform="scale(0.015625)"/>
      <path id="DejaVuSans-11" d="M 684 794
L 1344 794
L 1344 0
L 684 0
L 684 794
z
" transform="scale(0.015625)"/>
     </defs>
     <use xlink:href="#DejaVuSans-1a"/>
     <use xlink:href="#DejaVuSans-1b" transform="translate(63.625 0)"/>
     <use xlink:href="#DejaVuSans-11" transform="translate(127.25 0)"/>
     <use xlink:href="#DejaVuSans-14" transform="translate(159.03125 0)"/>
     <use xlink:href="#DejaVuSans-8" transform="translate(222.65625 0)"/>
    </g>
   </g>
   <g id="text_15">
    <!-- 79.6% -->
    <g style="fill: #172033" transform="translate(435.450455 89.182544) scale(0.074 -0.074)">
     <use xlink:href="#DejaVuSans-1a"/>
     <use xlink:href="#DejaVuSans-1c" transform="translate(63.625 0)"/>
     <use xlink:href="#DejaVuSans-11" transform="translate(127.25 0)"/>
     <use xlink:href="#DejaVuSans-19" transform="translate(159.03125 0)"/>
     <use xlink:href="#DejaVuSans-8" transform="translate(222.65625 0)"/>
    </g>
   </g>
   <g id="text_16">
    <!-- 1.9% -->
    <g style="fill: #172033" transform="translate(137.255644 131.120808) scale(0.074 -0.074)">
     <use xlink:href="#DejaVuSans-14"/>
     <use xlink:href="#DejaVuSans-11" transform="translate(63.625 0)"/>
     <use xlink:href="#DejaVuSans-1c" transform="translate(95.40625 0)"/>
     <use xlink:href="#DejaVuSans-8" transform="translate(159.03125 0)"/>
    </g>
   </g>
   <g id="text_17">
    <!-- 0.2% -->
    <g style="fill: #172033" transform="translate(130.851607 173.059072) scale(0.074 -0.074)">
     <use xlink:href="#DejaVuSans-13"/>
     <use xlink:href="#DejaVuSans-11" transform="translate(63.625 0)"/>
     <use xlink:href="#DejaVuSans-15" transform="translate(95.40625 0)"/>
     <use xlink:href="#DejaVuSans-8" transform="translate(159.03125 0)"/>
    </g>
   </g>
   <g id="text_18">
    <!-- 0.0% -->
    <g style="fill: #172033" transform="translate(130.093264 214.997336) scale(0.074 -0.074)">
     <use xlink:href="#DejaVuSans-13"/>
     <use xlink:href="#DejaVuSans-11" transform="translate(63.625 0)"/>
     <use xlink:href="#DejaVuSans-13" transform="translate(95.40625 0)"/>
     <use xlink:href="#DejaVuSans-8" transform="translate(159.03125 0)"/>
    </g>
   </g>
   <g id="text_19">
    <!-- 94.9% -->
    <g style="fill: #ffffff" transform="translate(454.210523 256.9356) scale(0.074 -0.074)">
     <defs>
      <path id="DejaVuSans-Bold-1c" d="M 641 103
L 641 966
Q 928 831 1190 764
Q 1453 697 1709 697
Q 2247 697 2547 995
Q 2847 1294 2900 1881
Q 2688 1725 2447 1647
Q 2206 1569 1925 1569
Q 1209 1569 770 1986
Q 331 2403 331 3084
Q 331 3838 820 4291
Q 1309 4744 2131 4744
Q 3044 4744 3544 4128
Q 4044 3513 4044 2388
Q 4044 1231 3459 570
Q 2875 -91 1856 -91
Q 1528 -91 1228 -42
Q 928 6 641 103
z
M 2125 2350
Q 2441 2350 2600 2554
Q 2759 2759 2759 3169
Q 2759 3575 2600 3781
Q 2441 3988 2125 3988
Q 1809 3988 1650 3781
Q 1491 3575 1491 3169
Q 1491 2759 1650 2554
Q 1809 2350 2125 2350
z
" transform="scale(0.015625)"/>
      <path id="DejaVuSans-Bold-17" d="M 2356 3675
L 1038 1722
L 2356 1722
L 2356 3675
z
M 2156 4666
L 3494 4666
L 3494 1722
L 4159 1722
L 4159 850
L 3494 850
L 3494 0
L 2356 0
L 2356 850
L 288 850
L 288 1881
L 2156 4666
z
" transform="scale(0.015625)"/>
      <path id="DejaVuSans-Bold-11" d="M 653 1209
L 1778 1209
L 1778 0
L 653 0
L 653 1209
z
" transform="scale(0.015625)"/>
      <path id="DejaVuSans-Bold-8" d="M 4959 1925
Q 4738 1925 4616 1733
Q 4494 1541 4494 1184
Q 4494 825 4614 633
Q 4734 441 4959 441
Q 5184 441 5303 633
Q 5422 825 5422 1184
Q 5422 1541 5301 1733
Q 5181 1925 4959 1925
z
M 4959 2450
Q 5541 2450 5875 2112
Q 6209 1775 6209 1184
Q 6209 594 5875 251
Q 5541 -91 4959 -91
Q 4378 -91 4042 251
Q 3706 594 3706 1184
Q 3706 1772 4042 2111
Q 4378 2450 4959 2450
z
M 2094 -91
L 1403 -91
L 4319 4750
L 5013 4750
L 2094 -91
z
M 1453 4750
Q 2034 4750 2367 4411
Q 2700 4072 2700 3481
Q 2700 2891 2367 2550
Q 2034 2209 1453 2209
Q 872 2209 539 2550
Q 206 2891 206 3481
Q 206 4072 539 4411
Q 872 4750 1453 4750
z
M 1453 4225
Q 1228 4225 1106 4031
Q 984 3838 984 3481
Q 984 3122 1106 2926
Q 1228 2731 1453 2731
Q 1678 2731 1798 2926
Q 1919 3122 1919 3481
Q 1919 3838 1797 4031
Q 1675 4225 1453 4225
z
" transform="scale(0.015625)"/>
     </defs>
     <use xlink:href="#DejaVuSans-Bold-1c"/>
     <use xlink:href="#DejaVuSans-Bold-17" transform="translate(69.578125 0)"/>
     <use xlink:href="#DejaVuSans-Bold-11" transform="translate(139.15625 0)"/>
     <use xlink:href="#DejaVuSans-Bold-1c" transform="translate(177.140625 0)"/>
     <use xlink:href="#DejaVuSans-Bold-8" transform="translate(246.71875 0)"/>
    </g>
   </g>
   <g id="text_20">
    <!-- ≤25% null gate -->
    <g style="fill: #6b7280" transform="translate(194.21921 275.235685) scale(0.066 -0.066)">
     <defs>
      <path id="DejaVuSans-cee" d="M 4684 3175
L 1684 2309
L 4684 1453
L 4684 897
L 678 2047
L 678 2578
L 4684 3725
L 4684 3175
z
M 678 531
L 4684 531
L 4684 0
L 678 0
L 678 531
z
" transform="scale(0.015625)"/>
      <path id="DejaVuSans-18" d="M 691 4666
L 3169 4666
L 3169 4134
L 1269 4134
L 1269 2991
Q 1406 3038 1543 3061
Q 1681 3084 1819 3084
Q 2600 3084 3056 2656
Q 3513 2228 3513 1497
Q 3513 744 3044 326
Q 2575 -91 1722 -91
Q 1428 -91 1123 -41
Q 819 9 494 109
L 494 744
Q 775 591 1075 516
Q 1375 441 1709 441
Q 2250 441 2565 725
Q 2881 1009 2881 1497
Q 2881 1984 2565 2268
Q 2250 2553 1709 2553
Q 1456 2553 1204 2497
Q 953 2441 691 2322
L 691 4666
z
" transform="scale(0.015625)"/>
      <path id="DejaVuSans-4a" d="M 2906 1791
Q 2906 2416 2648 2759
Q 2391 3103 1925 3103
Q 1463 3103 1205 2759
Q 947 2416 947 1791
Q 947 1169 1205 825
Q 1463 481 1925 481
Q 2391 481 2648 825
Q 2906 1169 2906 1791
z
M 3481 434
Q 3481 -459 3084 -895
Q 2688 -1331 1869 -1331
Q 1566 -1331 1297 -1286
Q 1028 -1241 775 -1147
L 775 -588
Q 1028 -725 1275 -790
Q 1522 -856 1778 -856
Q 2344 -856 2625 -561
Q 2906 -266 2906 331
L 2906 616
Q 2728 306 2450 153
Q 2172 0 1784 0
Q 1141 0 747 490
Q 353 981 353 1791
Q 353 2603 747 3093
Q 1141 3584 1784 3584
Q 2172 3584 2450 3431
Q 2728 3278 2906 2969
L 2906 3500
L 3481 3500
L 3481 434
z
" transform="scale(0.015625)"/>
     </defs>
     <use xlink:href="#DejaVuSans-cee"/>
     <use xlink:href="#DejaVuSans-15" transform="translate(83.796875 0)"/>
     <use xlink:href="#DejaVuSans-18" transform="translate(147.421875 0)"/>
     <use xlink:href="#DejaVuSans-8" transform="translate(211.046875 0)"/>
     <use xlink:href="#DejaVuSans-3" transform="translate(306.0625 0)"/>
     <use xlink:href="#DejaVuSans-51" transform="translate(337.84375 0)"/>
     <use xlink:href="#DejaVuSans-58" transform="translate(401.21875 0)"/>
     <use xlink:href="#DejaVuSans-4f" transform="translate(464.59375 0)"/>
     <use xlink:href="#DejaVuSans-4f" transform="translate(492.375 0)"/>
     <use xlink:href="#DejaVuSans-3" transform="translate(520.15625 0)"/>
     <use xlink:href="#DejaVuSans-4a" transform="translate(551.9375 0)"/>
     <use xlink:href="#DejaVuSans-44" transform="translate(615.421875 0)"/>
     <use xlink:href="#DejaVuSans-57" transform="translate(676.703125 0)"/>
     <use xlink:href="#DejaVuSans-48" transform="translate(715.90625 0)"/>
    </g>
   </g>
   <g id="text_21">
    <!-- ≥50% load-bearing gate -->
    <g style="fill: #172033" transform="translate(275.298186 275.235685) scale(0.066 -0.066)">
     <defs>
      <path id="DejaVuSans-cef" d="M 678 3175
L 678 3725
L 4684 2578
L 4684 2047
L 678 897
L 678 1453
L 3681 2309
L 678 3175
z
M 4684 531
L 4684 0
L 678 0
L 678 531
L 4684 531
z
" transform="scale(0.015625)"/>
     </defs>
     <use xlink:href="#DejaVuSans-cef"/>
     <use xlink:href="#DejaVuSans-18" transform="translate(83.796875 0)"/>
     <use xlink:href="#DejaVuSans-13" transform="translate(147.421875 0)"/>
     <use xlink:href="#DejaVuSans-8" transform="translate(211.046875 0)"/>
     <use xlink:href="#DejaVuSans-3" transform="translate(306.0625 0)"/>
     <use xlink:href="#DejaVuSans-4f" transform="translate(337.84375 0)"/>
     <use xlink:href="#DejaVuSans-52" transform="translate(365.625 0)"/>
     <use xlink:href="#DejaVuSans-44" transform="translate(426.8125 0)"/>
     <use xlink:href="#DejaVuSans-47" transform="translate(488.09375 0)"/>
     <use xlink:href="#DejaVuSans-10" transform="translate(551.578125 0)"/>
     <use xlink:href="#DejaVuSans-45" transform="translate(587.65625 0)"/>
     <use xlink:href="#DejaVuSans-48" transform="translate(651.140625 0)"/>
     <use xlink:href="#DejaVuSans-44" transform="translate(712.671875 0)"/>
     <use xlink:href="#DejaVuSans-55" transform="translate(773.953125 0)"/>
     <use xlink:href="#DejaVuSans-4c" transform="translate(815.0625 0)"/>
     <use xlink:href="#DejaVuSans-51" transform="translate(842.84375 0)"/>
     <use xlink:href="#DejaVuSans-4a" transform="translate(906.21875 0)"/>
     <use xlink:href="#DejaVuSans-3" transform="translate(969.703125 0)"/>
     <use xlink:href="#DejaVuSans-4a" transform="translate(1001.484375 0)"/>
     <use xlink:href="#DejaVuSans-44" transform="translate(1064.96875 0)"/>
     <use xlink:href="#DejaVuSans-57" transform="translate(1126.25 0)"/>
     <use xlink:href="#DejaVuSans-48" transform="translate(1165.453125 0)"/>
    </g>
   </g>
   <g id="text_22">
    <!-- F7-3a | The static non-carrier mean carries the causal r-object -->
    <g style="fill: #172033" transform="translate(123.960625 14.5365) scale(0.096 -0.096)">
     <defs>
      <path id="DejaVuSans-Bold-29" d="M 588 4666
L 3834 4666
L 3834 3756
L 1791 3756
L 1791 2888
L 3713 2888
L 3713 1978
L 1791 1978
L 1791 0
L 588 0
L 588 4666
z
" transform="scale(0.015625)"/>
      <path id="DejaVuSans-Bold-1a" d="M 428 4666
L 3944 4666
L 3944 3988
L 2125 0
L 953 0
L 2675 3781
L 428 3781
L 428 4666
z
" transform="scale(0.015625)"/>
      <path id="DejaVuSans-Bold-10" d="M 347 2297
L 2309 2297
L 2309 1388
L 347 1388
L 347 2297
z
" transform="scale(0.015625)"/>
      <path id="DejaVuSans-Bold-16" d="M 2981 2516
Q 3453 2394 3698 2092
Q 3944 1791 3944 1325
Q 3944 631 3412 270
Q 2881 -91 1863 -91
Q 1503 -91 1142 -33
Q 781 25 428 141
L 428 1069
Q 766 900 1098 814
Q 1431 728 1753 728
Q 2231 728 2486 893
Q 2741 1059 2741 1369
Q 2741 1688 2480 1852
Q 2219 2016 1709 2016
L 1228 2016
L 1228 2791
L 1734 2791
Q 2188 2791 2409 2933
Q 2631 3075 2631 3366
Q 2631 3634 2415 3781
Q 2200 3928 1806 3928
Q 1516 3928 1219 3862
Q 922 3797 628 3669
L 628 4550
Q 984 4650 1334 4700
Q 1684 4750 2022 4750
Q 2931 4750 3382 4451
Q 3834 4153 3834 3553
Q 3834 3144 3618 2883
Q 3403 2622 2981 2516
z
" transform="scale(0.015625)"/>
      <path id="DejaVuSans-Bold-44" d="M 2106 1575
Q 1756 1575 1579 1456
Q 1403 1338 1403 1106
Q 1403 894 1545 773
Q 1688 653 1941 653
Q 2256 653 2472 879
Q 2688 1106 2688 1447
L 2688 1575
L 2106 1575
z
M 3816 1997
L 3816 0
L 2688 0
L 2688 519
Q 2463 200 2181 54
Q 1900 -91 1497 -91
Q 953 -91 614 226
Q 275 544 275 1050
Q 275 1666 698 1953
Q 1122 2241 2028 2241
L 2688 2241
L 2688 2328
Q 2688 2594 2478 2717
Q 2269 2841 1825 2841
Q 1466 2841 1156 2769
Q 847 2697 581 2553
L 581 3406
Q 941 3494 1303 3539
Q 1666 3584 2028 3584
Q 2975 3584 3395 3211
Q 3816 2838 3816 1997
z
" transform="scale(0.015625)"/>
      <path id="DejaVuSans-Bold-3" transform="scale(0.015625)"/>
      <path id="DejaVuSans-Bold-5f" d="M 1522 4891
L 1522 -1509
L 813 -1509
L 813 4891
L 1522 4891
z
" transform="scale(0.015625)"/>
      <path id="DejaVuSans-Bold-37" d="M 31 4666
L 4331 4666
L 4331 3756
L 2784 3756
L 2784 0
L 1581 0
L 1581 3756
L 31 3756
L 31 4666
z
" transform="scale(0.015625)"/>
      <path id="DejaVuSans-Bold-4b" d="M 4056 2131
L 4056 0
L 2931 0
L 2931 347
L 2931 1625
Q 2931 2084 2911 2256
Q 2891 2428 2841 2509
Q 2775 2619 2662 2680
Q 2550 2741 2406 2741
Q 2056 2741 1856 2470
Q 1656 2200 1656 1722
L 1656 0
L 538 0
L 538 4863
L 1656 4863
L 1656 2988
Q 1909 3294 2193 3439
Q 2478 3584 2822 3584
Q 3428 3584 3742 3212
Q 4056 2841 4056 2131
z
" transform="scale(0.015625)"/>
      <path id="DejaVuSans-Bold-48" d="M 4031 1759
L 4031 1441
L 1416 1441
Q 1456 1047 1700 850
Q 1944 653 2381 653
Q 2734 653 3104 758
Q 3475 863 3866 1075
L 3866 213
Q 3469 63 3072 -14
Q 2675 -91 2278 -91
Q 1328 -91 801 392
Q 275 875 275 1747
Q 275 2603 792 3093
Q 1309 3584 2216 3584
Q 3041 3584 3536 3087
Q 4031 2591 4031 1759
z
M 2881 2131
Q 2881 2450 2695 2645
Q 2509 2841 2209 2841
Q 1884 2841 1681 2658
Q 1478 2475 1428 2131
L 2881 2131
z
" transform="scale(0.015625)"/>
      <path id="DejaVuSans-Bold-56" d="M 3272 3391
L 3272 2541
Q 2913 2691 2578 2766
Q 2244 2841 1947 2841
Q 1628 2841 1473 2761
Q 1319 2681 1319 2516
Q 1319 2381 1436 2309
Q 1553 2238 1856 2203
L 2053 2175
Q 2913 2066 3209 1816
Q 3506 1566 3506 1031
Q 3506 472 3093 190
Q 2681 -91 1863 -91
Q 1516 -91 1145 -36
Q 775 19 384 128
L 384 978
Q 719 816 1070 734
Q 1422 653 1784 653
Q 2113 653 2278 743
Q 2444 834 2444 1013
Q 2444 1163 2330 1236
Q 2216 1309 1875 1350
L 1678 1375
Q 931 1469 631 1722
Q 331 1975 331 2491
Q 331 3047 712 3315
Q 1094 3584 1881 3584
Q 2191 3584 2531 3537
Q 2872 3491 3272 3391
z
" transform="scale(0.015625)"/>
      <path id="DejaVuSans-Bold-57" d="M 1759 4494
L 1759 3500
L 2913 3500
L 2913 2700
L 1759 2700
L 1759 1216
Q 1759 972 1856 886
Q 1953 800 2241 800
L 2816 800
L 2816 0
L 1856 0
Q 1194 0 917 276
Q 641 553 641 1216
L 641 2700
L 84 2700
L 84 3500
L 641 3500
L 641 4494
L 1759 4494
z
" transform="scale(0.015625)"/>
      <path id="DejaVuSans-Bold-4c" d="M 538 3500
L 1656 3500
L 1656 0
L 538 0
L 538 3500
z
M 538 4863
L 1656 4863
L 1656 3950
L 538 3950
L 538 4863
z
" transform="scale(0.015625)"/>
      <path id="DejaVuSans-Bold-46" d="M 3366 3391
L 3366 2478
Q 3138 2634 2908 2709
Q 2678 2784 2431 2784
Q 1963 2784 1702 2511
Q 1441 2238 1441 1747
Q 1441 1256 1702 982
Q 1963 709 2431 709
Q 2694 709 2930 787
Q 3166 866 3366 1019
L 3366 103
Q 3103 6 2833 -42
Q 2563 -91 2291 -91
Q 1344 -91 809 395
Q 275 881 275 1747
Q 275 2613 809 3098
Q 1344 3584 2291 3584
Q 2566 3584 2833 3536
Q 3100 3488 3366 3391
z
" transform="scale(0.015625)"/>
      <path id="DejaVuSans-Bold-51" d="M 4056 2131
L 4056 0
L 2931 0
L 2931 347
L 2931 1631
Q 2931 2084 2911 2256
Q 2891 2428 2841 2509
Q 2775 2619 2662 2680
Q 2550 2741 2406 2741
Q 2056 2741 1856 2470
Q 1656 2200 1656 1722
L 1656 0
L 538 0
L 538 3500
L 1656 3500
L 1656 2988
Q 1909 3294 2193 3439
Q 2478 3584 2822 3584
Q 3428 3584 3742 3212
Q 4056 2841 4056 2131
z
" transform="scale(0.015625)"/>
      <path id="DejaVuSans-Bold-52" d="M 2203 2784
Q 1831 2784 1636 2517
Q 1441 2250 1441 1747
Q 1441 1244 1636 976
Q 1831 709 2203 709
Q 2569 709 2762 976
Q 2956 1244 2956 1747
Q 2956 2250 2762 2517
Q 2569 2784 2203 2784
z
M 2203 3584
Q 3106 3584 3614 3096
Q 4122 2609 4122 1747
Q 4122 884 3614 396
Q 3106 -91 2203 -91
Q 1297 -91 786 396
Q 275 884 275 1747
Q 275 2609 786 3096
Q 1297 3584 2203 3584
z
" transform="scale(0.015625)"/>
      <path id="DejaVuSans-Bold-55" d="M 3138 2547
Q 2991 2616 2845 2648
Q 2700 2681 2553 2681
Q 2122 2681 1889 2404
Q 1656 2128 1656 1613
L 1656 0
L 538 0
L 538 3500
L 1656 3500
L 1656 2925
Q 1872 3269 2151 3426
Q 2431 3584 2822 3584
Q 2878 3584 2943 3579
Q 3009 3575 3134 3559
L 3138 2547
z
" transform="scale(0.015625)"/>
      <path id="DejaVuSans-Bold-50" d="M 3781 2919
Q 3994 3244 4286 3414
Q 4578 3584 4928 3584
Q 5531 3584 5847 3212
Q 6163 2841 6163 2131
L 6163 0
L 5038 0
L 5038 1825
Q 5041 1866 5042 1909
Q 5044 1953 5044 2034
Q 5044 2406 4934 2573
Q 4825 2741 4581 2741
Q 4263 2741 4089 2478
Q 3916 2216 3909 1719
L 3909 0
L 2784 0
L 2784 1825
Q 2784 2406 2684 2573
Q 2584 2741 2328 2741
Q 2006 2741 1831 2477
Q 1656 2213 1656 1722
L 1656 0
L 531 0
L 531 3500
L 1656 3500
L 1656 2988
Q 1863 3284 2130 3434
Q 2397 3584 2719 3584
Q 3081 3584 3359 3409
Q 3638 3234 3781 2919
z
" transform="scale(0.015625)"/>
      <path id="DejaVuSans-Bold-58" d="M 500 1363
L 500 3500
L 1625 3500
L 1625 3150
Q 1625 2866 1622 2436
Q 1619 2006 1619 1863
Q 1619 1441 1641 1255
Q 1663 1069 1716 984
Q 1784 875 1895 815
Q 2006 756 2150 756
Q 2500 756 2700 1025
Q 2900 1294 2900 1772
L 2900 3500
L 4019 3500
L 4019 0
L 2900 0
L 2900 506
Q 2647 200 2364 54
Q 2081 -91 1741 -91
Q 1134 -91 817 281
Q 500 653 500 1363
z
" transform="scale(0.015625)"/>
      <path id="DejaVuSans-Bold-4f" d="M 538 4863
L 1656 4863
L 1656 0
L 538 0
L 538 4863
z
" transform="scale(0.015625)"/>
      <path id="DejaVuSans-Bold-45" d="M 2400 722
Q 2759 722 2948 984
Q 3138 1247 3138 1747
Q 3138 2247 2948 2509
Q 2759 2772 2400 2772
Q 2041 2772 1848 2508
Q 1656 2244 1656 1747
Q 1656 1250 1848 986
Q 2041 722 2400 722
z
M 1656 2988
Q 1888 3294 2169 3439
Q 2450 3584 2816 3584
Q 3463 3584 3878 3070
Q 4294 2556 4294 1747
Q 4294 938 3878 423
Q 3463 -91 2816 -91
Q 2450 -91 2169 54
Q 1888 200 1656 506
L 1656 0
L 538 0
L 538 4863
L 1656 4863
L 1656 2988
z
" transform="scale(0.015625)"/>
      <path id="DejaVuSans-Bold-4d" d="M 538 3500
L 1656 3500
L 1656 63
Q 1656 -641 1318 -1011
Q 981 -1381 341 -1381
L -213 -1381
L -213 -647
L -19 -647
Q 300 -647 419 -503
Q 538 -359 538 63
L 538 3500
z
M 538 4863
L 1656 4863
L 1656 3950
L 538 3950
L 538 4863
z
" transform="scale(0.015625)"/>
     </defs>
     <use xlink:href="#DejaVuSans-Bold-29"/>
     <use xlink:href="#DejaVuSans-Bold-1a" transform="translate(68.3125 0)"/>
     <use xlink:href="#DejaVuSans-Bold-10" transform="translate(137.890625 0)"/>
     <use xlink:href="#DejaVuSans-Bold-16" transform="translate(179.390625 0)"/>
     <use xlink:href="#DejaVuSans-Bold-44" transform="translate(248.96875 0)"/>
     <use xlink:href="#DejaVuSans-Bold-3" transform="translate(316.453125 0)"/>
     <use xlink:href="#DejaVuSans-Bold-5f" transform="translate(351.265625 0)"/>
     <use xlink:href="#DejaVuSans-Bold-3" transform="translate(387.796875 0)"/>
     <use xlink:href="#DejaVuSans-Bold-37" transform="translate(422.609375 0)"/>
     <use xlink:href="#DejaVuSans-Bold-4b" transform="translate(490.828125 0)"/>
     <use xlink:href="#DejaVuSans-Bold-48" transform="translate(562.015625 0)"/>
     <use xlink:href="#DejaVuSans-Bold-3" transform="translate(629.84375 0)"/>
     <use xlink:href="#DejaVuSans-Bold-56" transform="translate(664.65625 0)"/>
     <use xlink:href="#DejaVuSans-Bold-57" transform="translate(724.171875 0)"/>
     <use xlink:href="#DejaVuSans-Bold-44" transform="translate(771.96875 0)"/>
     <use xlink:href="#DejaVuSans-Bold-57" transform="translate(839.453125 0)"/>
     <use xlink:href="#DejaVuSans-Bold-4c" transform="translate(887.25 0)"/>
     <use xlink:href="#DejaVuSans-Bold-46" transform="translate(921.53125 0)"/>
     <use xlink:href="#DejaVuSans-Bold-3" transform="translate(980.8125 0)"/>
     <use xlink:href="#DejaVuSans-Bold-51" transform="translate(1015.625 0)"/>
     <use xlink:href="#DejaVuSans-Bold-52" transform="translate(1086.8125 0)"/>
     <use xlink:href="#DejaVuSans-Bold-51" transform="translate(1155.515625 0)"/>
     <use xlink:href="#DejaVuSans-Bold-10" transform="translate(1226.703125 0)"/>
     <use xlink:href="#DejaVuSans-Bold-46" transform="translate(1268.203125 0)"/>
     <use xlink:href="#DejaVuSans-Bold-44" transform="translate(1327.484375 0)"/>
     <use xlink:href="#DejaVuSans-Bold-55" transform="translate(1394.96875 0)"/>
     <use xlink:href="#DejaVuSans-Bold-55" transform="translate(1444.28125 0)"/>
     <use xlink:href="#DejaVuSans-Bold-4c" transform="translate(1493.59375 0)"/>
     <use xlink:href="#DejaVuSans-Bold-48" transform="translate(1527.875 0)"/>
     <use xlink:href="#DejaVuSans-Bold-55" transform="translate(1595.703125 0)"/>
     <use xlink:href="#DejaVuSans-Bold-3" transform="translate(1645.015625 0)"/>
     <use xlink:href="#DejaVuSans-Bold-50" transform="translate(1679.828125 0)"/>
     <use xlink:href="#DejaVuSans-Bold-48" transform="translate(1784.03125 0)"/>
     <use xlink:href="#DejaVuSans-Bold-44" transform="translate(1851.859375 0)"/>
     <use xlink:href="#DejaVuSans-Bold-51" transform="translate(1919.34375 0)"/>
     <use xlink:href="#DejaVuSans-Bold-3" transform="translate(1990.53125 0)"/>
     <use xlink:href="#DejaVuSans-Bold-46" transform="translate(2025.34375 0)"/>
     <use xlink:href="#DejaVuSans-Bold-44" transform="translate(2084.625 0)"/>
     <use xlink:href="#DejaVuSans-Bold-55" transform="translate(2152.109375 0)"/>
     <use xlink:href="#DejaVuSans-Bold-55" transform="translate(2201.421875 0)"/>
     <use xlink:href="#DejaVuSans-Bold-4c" transform="translate(2250.734375 0)"/>
     <use xlink:href="#DejaVuSans-Bold-48" transform="translate(2285.015625 0)"/>
     <use xlink:href="#DejaVuSans-Bold-56" transform="translate(2352.84375 0)"/>
     <use xlink:href="#DejaVuSans-Bold-3" transform="translate(2412.359375 0)"/>
     <use xlink:href="#DejaVuSans-Bold-57" transform="translate(2447.171875 0)"/>
     <use xlink:href="#DejaVuSans-Bold-4b" transform="translate(2494.96875 0)"/>
     <use xlink:href="#DejaVuSans-Bold-48" transform="translate(2566.15625 0)"/>
     <use xlink:href="#DejaVuSans-Bold-3" transform="translate(2633.984375 0)"/>
     <use xlink:href="#DejaVuSans-Bold-46" transform="translate(2668.796875 0)"/>
     <use xlink:href="#DejaVuSans-Bold-44" transform="translate(2728.078125 0)"/>
     <use xlink:href="#DejaVuSans-Bold-58" transform="translate(2795.5625 0)"/>
     <use xlink:href="#DejaVuSans-Bold-56" transform="translate(2866.75 0)"/>
     <use xlink:href="#DejaVuSans-Bold-44" transform="translate(2926.265625 0)"/>
     <use xlink:href="#DejaVuSans-Bold-4f" transform="translate(2993.75 0)"/>
     <use xlink:href="#DejaVuSans-Bold-3" transform="translate(3028.03125 0)"/>
     <use xlink:href="#DejaVuSans-Bold-55" transform="translate(3062.84375 0)"/>
     <use xlink:href="#DejaVuSans-Bold-10" transform="translate(3112.15625 0)"/>
     <use xlink:href="#DejaVuSans-Bold-52" transform="translate(3153.65625 0)"/>
     <use xlink:href="#DejaVuSans-Bold-45" transform="translate(3222.359375 0)"/>
     <use xlink:href="#DejaVuSans-Bold-4d" transform="translate(3293.9375 0)"/>
     <use xlink:href="#DejaVuSans-Bold-48" transform="translate(3328.21875 0)"/>
     <use xlink:href="#DejaVuSans-Bold-46" transform="translate(3396.046875 0)"/>
     <use xlink:href="#DejaVuSans-Bold-57" transform="translate(3455.328125 0)"/>
    </g>
   </g>
  </g>
 </g>
 <defs>
  <clipPath id="pdffec1abdb">
   <rect x="123.960625" y="20.5365" width="402.838895" height="259.262348"/>
  </clipPath>
 </defs>
</svg>
