<?xml version="1.0" encoding="utf-8" standalone="no"?>
<!DOCTYPE svg PUBLIC "-//W3C//DTD SVG 1.1//EN"
  "http://www.w3.org/Graphics/SVG/1.1/DTD/svg11.dtd">
<svg xmlns:xlink="http://www.w3.org/1999/xlink" width="527.20776pt" height="284.17896pt" viewBox="0 0 527.20776 284.17896" xmlns="http://www.w3.org/2000/svg" version="1.1">
 <metadata>
  <rdf:RDF xmlns:dc="http://purl.org/dc/elements/1.1/" xmlns:cc="http://creativecommons.org/ns#" xmlns:rdf="http://www.w3.org/1999/02/22-rdf-syntax-ns#">
   <cc:Work>
    <dc:type rdf:resource="http://purl.org/dc/dcmitype/StillImage"/>
    <dc:date>2026-07-19T01:54:32.554052</dc:date>
    <dc:format>image/svg+xml</dc:format>
    <dc:creator>
     <cc:Agent>
      <dc:title>Matplotlib v3.11.0, https://matplotlib.org/</dc:title>
     </cc:Agent>
    </dc:creator>
   </cc:Work>
  </rdf:RDF>
 </metadata>
 <defs>
  <style type="text/css">*{stroke-linejoin: round; stroke-linecap: butt}</style>
 </defs>
 <g id="figure_1">
  <g id="patch_1">
   <path d="M 0 284.17896
L 527.20776 284.17896
L 527.20776 0
L 0 0
z
" style="fill: #ffffff"/>
  </g>
  <g id="axes_1">
   <g id="patch_2">
    <path d="M 113.575625 245.798778
L 488.455521 245.798778
L 488.455521 21.178359
L 113.575625 21.178359
z
" style="fill: #ffffff"/>
   </g>
   <g id="matplotlib.axis_1">
    <g id="xtick_1">
     <g id="line2d_1">
      <path d="M 161.160806 245.798778
L 161.160806 21.178359
" clip-path="url(#p9a26f8551e)" style="fill: none; stroke: #e5e7eb; stroke-opacity: 0.9; stroke-width: 0.7; stroke-linecap: square"/>
     </g>
     <g id="line2d_2">
      <defs>
       <path id="m6dd78da5cd" d="M 0 0
L 0 3.5
" style="stroke: #4b5563; stroke-width: 0.8"/>
      </defs>
      <g>
       <use xlink:href="#m6dd78da5cd" x="161.160806" y="245.798778" style="fill: #4b5563; stroke: #4b5563; stroke-width: 0.8"/>
      </g>
     </g>
     <g id="text_1">
      <text style="font-size: 8.5px; font-family: 'DejaVu Sans'; text-anchor: middle; fill: #4b5563" x="161.160806" y="259.256786" transform="rotate(-0 161.160806 259.256786)">0.00</text>
     </g>
    </g>
    <g id="xtick_2">
     <g id="line2d_3">
      <path d="M 228.104531 245.798778
L 228.104531 21.178359
" clip-path="url(#p9a26f8551e)" style="fill: none; stroke: #e5e7eb; stroke-opacity: 0.9; stroke-width: 0.7; stroke-linecap: square"/>
     </g>
     <g id="line2d_4">
      <g>
       <use xlink:href="#m6dd78da5cd" x="228.104531" y="245.798778" style="fill: #4b5563; stroke: #4b5563; stroke-width: 0.8"/>
      </g>
     </g>
     <g id="text_2">
      <text style="font-size: 8.5px; font-family: 'DejaVu Sans'; text-anchor: middle; fill: #4b5563" x="228.104531" y="259.256786" transform="rotate(-0 228.104531 259.256786)">0.05</text>
     </g>
    </g>
    <g id="xtick_3">
     <g id="line2d_5">
      <path d="M 295.048256 245.798778
L 295.048256 21.178359
" clip-path="url(#p9a26f8551e)" style="fill: none; stroke: #e5e7eb; stroke-opacity: 0.9; stroke-width: 0.7; stroke-linecap: square"/>
     </g>
     <g id="line2d_6">
      <g>
       <use xlink:href="#m6dd78da5cd" x="295.048256" y="245.798778" style="fill: #4b5563; stroke: #4b5563; stroke-width: 0.8"/>
      </g>
     </g>
     <g id="text_3">
      <text style="font-size: 8.5px; font-family: 'DejaVu Sans'; text-anchor: middle; fill: #4b5563" x="295.048256" y="259.256786" transform="rotate(-0 295.048256 259.256786)">0.10</text>
     </g>
    </g>
    <g id="xtick_4">
     <g id="line2d_7">
      <path d="M 361.991981 245.798778
L 361.991981 21.178359
" clip-path="url(#p9a26f8551e)" style="fill: none; stroke: #e5e7eb; stroke-opacity: 0.9; stroke-width: 0.7; stroke-linecap: square"/>
     </g>
     <g id="line2d_8">
      <g>
       <use xlink:href="#m6dd78da5cd" x="361.991981" y="245.798778" style="fill: #4b5563; stroke: #4b5563; stroke-width: 0.8"/>
      </g>
     </g>
     <g id="text_4">
      <text style="font-size: 8.5px; font-family: 'DejaVu Sans'; text-anchor: middle; fill: #4b5563" x="361.991981" y="259.256786" transform="rotate(-0 361.991981 259.256786)">0.15</text>
     </g>
    </g>
    <g id="xtick_5">
     <g id="line2d_9">
      <path d="M 428.935706 245.798778
L 428.935706 21.178359
" clip-path="url(#p9a26f8551e)" style="fill: none; stroke: #e5e7eb; stroke-opacity: 0.9; stroke-width: 0.7; stroke-linecap: square"/>
     </g>
     <g id="line2d_10">
      <g>
       <use xlink:href="#m6dd78da5cd" x="428.935706" y="245.798778" style="fill: #4b5563; stroke: #4b5563; stroke-width: 0.8"/>
      </g>
     </g>
     <g id="text_5">
      <text style="font-size: 8.5px; font-family: 'DejaVu Sans'; text-anchor: middle; fill: #4b5563" x="428.935706" y="259.256786" transform="rotate(-0 428.935706 259.256786)">0.20</text>
     </g>
    </g>
    <g id="text_6">
     <text style="font-size: 9.5px; font-family: 'DejaVu Sans'; text-anchor: middle; fill: #172033" x="301.015573" y="272.517293" transform="rotate(-0 301.015573 272.517293)">Absolute needle recall ΔNLL rescued</text>
    </g>
   </g>
   <g id="matplotlib.axis_2">
    <g id="ytick_1">
     <g id="line2d_11">
      <defs>
       <path id="m54d510ab5f" d="M 0 0
L -3.5 0
" style="stroke: #4b5563; stroke-width: 0.8"/>
      </defs>
      <g>
       <use xlink:href="#m54d510ab5f" x="113.575625" y="86.692648" style="fill: #4b5563; stroke: #4b5563; stroke-width: 0.8"/>
      </g>
     </g>
     <g id="text_7">
      <text style="font-size: 8.5px; font-family: 'DejaVu Sans'; text-anchor: end; fill: #4b5563" x="106.575625" y="89.921984" transform="rotate(-0 106.575625 89.921984)">Registered query patch</text>
     </g>
    </g>
    <g id="ytick_2">
     <g id="line2d_12">
      <g>
       <use xlink:href="#m54d510ab5f" x="113.575625" y="180.284489" style="fill: #4b5563; stroke: #4b5563; stroke-width: 0.8"/>
      </g>
     </g>
     <g id="text_8">
      <text style="font-size: 8.5px; font-family: 'DejaVu Sans'; text-anchor: end; fill: #4b5563" x="106.575625" y="183.513825" transform="rotate(-0 106.575625 183.513825)">Seeded sham patch</text>
     </g>
    </g>
   </g>
   <g id="LineCollection_1">
    <path d="M 211.237366 86.692648
L 471.415526 86.692648
" clip-path="url(#p9a26f8551e)" style="fill: none; stroke: #16857a; stroke-width: 1.7"/>
   </g>
   <g id="line2d_13">
    <defs>
     <path id="mb4e5e64941" d="M 0 4
L 0 -4
" style="stroke: #16857a"/>
    </defs>
    <g clip-path="url(#p9a26f8551e)">
     <use xlink:href="#mb4e5e64941" x="211.237366" y="86.692648" style="fill: #16857a; stroke: #16857a"/>
    </g>
   </g>
   <g id="line2d_14">
    <g clip-path="url(#p9a26f8551e)">
     <use xlink:href="#mb4e5e64941" x="471.415526" y="86.692648" style="fill: #16857a; stroke: #16857a"/>
    </g>
   </g>
   <g id="LineCollection_2">
    <path d="M 130.61562 180.284489
L 170.821202 180.284489
" clip-path="url(#p9a26f8551e)" style="fill: none; stroke: #6b7280; stroke-width: 1.7"/>
   </g>
   <g id="line2d_15">
    <defs>
     <path id="me9f8fead5a" d="M 0 4
L 0 -4
" style="stroke: #6b7280"/>
    </defs>
    <g clip-path="url(#p9a26f8551e)">
     <use xlink:href="#me9f8fead5a" x="130.61562" y="180.284489" style="fill: #6b7280; stroke: #6b7280"/>
    </g>
   </g>
   <g id="line2d_16">
    <g clip-path="url(#p9a26f8551e)">
     <use xlink:href="#me9f8fead5a" x="170.821202" y="180.284489" style="fill: #6b7280; stroke: #6b7280"/>
    </g>
   </g>
   <g id="line2d_17">
    <path d="M 161.160806 245.798778
L 161.160806 21.178359
" clip-path="url(#p9a26f8551e)" style="fill: none; stroke: #172033; stroke-linecap: square"/>
   </g>
   <g id="line2d_18">
    <defs>
     <path id="m80ba06ad4e" d="M 0 3.25
C 0.86191 3.25 1.688635 2.907559 2.298097 2.298097
C 2.907559 1.688635 3.25 0.86191 3.25 0
C 3.25 -0.86191 2.907559 -1.688635 2.298097 -2.298097
C 1.688635 -2.907559 0.86191 -3.25 0 -3.25
C -0.86191 -3.25 -1.688635 -2.907559 -2.298097 -2.298097
C -2.907559 -1.688635 -3.25 -0.86191 -3.25 0
C -3.25 0.86191 -2.907559 1.688635 -2.298097 2.298097
C -1.688635 2.907559 -0.86191 3.25 0 3.25
z
" style="stroke: #16857a"/>
    </defs>
    <g clip-path="url(#p9a26f8551e)">
     <use xlink:href="#m80ba06ad4e" x="330.953369" y="86.692648" style="fill: #16857a; stroke: #16857a"/>
    </g>
   </g>
   <g id="line2d_19">
    <defs>
     <path id="m7ccf5fd6c1" d="M 0 3.25
C 0.86191 3.25 1.688635 2.907559 2.298097 2.298097
C 2.907559 1.688635 3.25 0.86191 3.25 0
C 3.25 -0.86191 2.907559 -1.688635 2.298097 -2.298097
C 1.688635 -2.907559 0.86191 -3.25 0 -3.25
C -0.86191 -3.25 -1.688635 -2.907559 -2.298097 -2.298097
C -2.907559 -1.688635 -3.25 -0.86191 -3.25 0
C -3.25 0.86191 -2.907559 1.688635 -2.298097 2.298097
C -1.688635 2.907559 -0.86191 3.25 0 3.25
z
" style="stroke: #6b7280"/>
    </defs>
    <g clip-path="url(#p9a26f8551e)">
     <use xlink:href="#m7ccf5fd6c1" x="151.077095" y="180.284489" style="fill: #6b7280; stroke: #6b7280"/>
    </g>
   </g>
   <g id="patch_3">
    <path d="M 113.575625 245.798778
L 113.575625 21.178359
" style="fill: none; stroke: #9ca3af; stroke-width: 0.8; stroke-linejoin: miter; stroke-linecap: square"/>
   </g>
   <g id="patch_4">
    <path d="M 113.575625 245.798778
L 488.455521 245.798778
" style="fill: none; stroke: #9ca3af; stroke-width: 0.8; stroke-linejoin: miter; stroke-linecap: square"/>
   </g>
   <g id="text_9">
    <text style="font-size: 8px; font-family: 'DejaVu Sans'; text-anchor: start; fill: #16857a" x="487.48202" y="88.770773" transform="rotate(-0 487.48202 88.770773)">+54.1%</text>
   </g>
   <g id="text_10">
    <text style="font-size: 8px; font-family: 'DejaVu Sans'; text-anchor: start; fill: #6b7280" x="186.887696" y="182.362614" transform="rotate(-0 186.887696 182.362614)">-3.2%</text>
   </g>
   <g id="text_11">
    <text style="font-weight: 700; font-size: 10.5px; font-family: 'DejaVu Sans'; text-anchor: start; fill: #172033" x="113.575625" y="15.178359" transform="rotate(-0 113.575625 15.178359)">F7-5a · Restoring only L29 query states rescues retrieval</text>
   </g>
  </g>
  <g id="text_12">
   <text style="font-size: 5.8px; font-family: 'DejaVu Sans'; text-anchor: end; fill: #6b7280" x="520.00776" y="275.585601" transform="rotate(-0 520.00776 275.585601)">Certified · independent raw-dump verification · 563 artifacts</text>
  </g>
 </g>
 <defs>
  <clipPath id="p9a26f8551e">
   <rect x="113.575625" y="21.178359" width="374.879896" height="224.620418"/>
  </clipPath>
 </defs>
</svg>
