<?xml version="1.0" encoding="utf-8" standalone="no"?>
<!DOCTYPE svg PUBLIC "-//W3C//DTD SVG 1.1//EN"
  "http://www.w3.org/Graphics/SVG/1.1/DTD/svg11.dtd">
<svg xmlns:xlink="http://www.w3.org/1999/xlink" width="618.12601pt" height="271.19952pt" viewBox="0 0 618.12601 271.19952" xmlns="http://www.w3.org/2000/svg" version="1.1">
 <metadata>
  <rdf:RDF xmlns:dc="http://purl.org/dc/elements/1.1/" xmlns:cc="http://creativecommons.org/ns#" xmlns:rdf="http://www.w3.org/1999/02/22-rdf-syntax-ns#">
   <cc:Work>
    <dc:type rdf:resource="http://purl.org/dc/dcmitype/StillImage"/>
    <dc:date>2026-07-19T02:46:12.317685</dc:date>
    <dc:format>image/svg+xml</dc:format>
    <dc:creator>
     <cc:Agent>
      <dc:title>Matplotlib v3.11.0, https://matplotlib.org/</dc:title>
     </cc:Agent>
    </dc:creator>
   </cc:Work>
  </rdf:RDF>
 </metadata>
 <defs>
  <style type="text/css">*{stroke-linejoin: round; stroke-linecap: butt}</style>
 </defs>
 <g id="figure_1">
  <g id="patch_1">
   <path d="M 0 271.19952
L 618.12601 271.19952
L 618.12601 0
L 0 0
z
" style="fill: #ffffff"/>
  </g>
  <g id="axes_1">
   <g id="patch_2">
    <path d="M 45.741266 233.358271
L 279.931608 233.358271
L 279.931608 40.597693
L 45.741266 40.597693
z
" style="fill: #ffffff"/>
   </g>
   <g id="line2d_1">
    <path d="M 45.741266 233.358271
L 279.931608 40.597693
" clip-path="url(#pb24b71ce1e)" style="fill: none; stroke-dasharray: 3.7,1.6; stroke-dashoffset: 0; stroke: #9ca3af"/>
   </g>
   <g id="matplotlib.axis_1">
    <g id="xtick_1">
     <g id="line2d_2">
      <path d="M 49.509266 233.358271
L 49.509266 40.597693
" clip-path="url(#pb24b71ce1e)" style="fill: none; stroke: #e5e7eb; stroke-opacity: 0.9; stroke-width: 0.7; stroke-linecap: square"/>
     </g>
     <g id="line2d_3">
      <defs>
       <path id="m3eddaa08aa" d="M 0 0
L 0 3.5
" style="stroke: #4b5563; stroke-width: 0.8"/>
      </defs>
      <g>
       <use xlink:href="#m3eddaa08aa" x="49.509266" y="233.358271" style="fill: #4b5563; stroke: #4b5563; stroke-width: 0.8"/>
      </g>
     </g>
     <g id="text_1">
      <!-- −0.2 -->
      <g style="fill: #4b5563" transform="translate(40.038969 246.284443) scale(0.078 -0.078)">
       <defs>
        <path id="DejaVuSans-c9c" d="M 678 2272
L 4684 2272
L 4684 1741
L 678 1741
L 678 2272
z
" transform="scale(0.015625)"/>
        <path id="DejaVuSans-13" d="M 2034 4250
Q 1547 4250 1301 3770
Q 1056 3291 1056 2328
Q 1056 1369 1301 889
Q 1547 409 2034 409
Q 2525 409 2770 889
Q 3016 1369 3016 2328
Q 3016 3291 2770 3770
Q 2525 4250 2034 4250
z
M 2034 4750
Q 2819 4750 3233 4129
Q 3647 3509 3647 2328
Q 3647 1150 3233 529
Q 2819 -91 2034 -91
Q 1250 -91 836 529
Q 422 1150 422 2328
Q 422 3509 836 4129
Q 1250 4750 2034 4750
z
" transform="scale(0.015625)"/>
        <path id="DejaVuSans-11" d="M 684 794
L 1344 794
L 1344 0
L 684 0
L 684 794
z
" transform="scale(0.015625)"/>
        <path id="DejaVuSans-15" d="M 1228 531
L 3431 531
L 3431 0
L 469 0
L 469 531
Q 828 903 1448 1529
Q 2069 2156 2228 2338
Q 2531 2678 2651 2914
Q 2772 3150 2772 3378
Q 2772 3750 2511 3984
Q 2250 4219 1831 4219
Q 1534 4219 1204 4116
Q 875 4013 500 3803
L 500 4441
Q 881 4594 1212 4672
Q 1544 4750 1819 4750
Q 2544 4750 2975 4387
Q 3406 4025 3406 3419
Q 3406 3131 3298 2873
Q 3191 2616 2906 2266
Q 2828 2175 2409 1742
Q 1991 1309 1228 531
z
" transform="scale(0.015625)"/>
       </defs>
       <use xlink:href="#DejaVuSans-c9c"/>
       <use xlink:href="#DejaVuSans-13" transform="translate(83.796875 0)"/>
       <use xlink:href="#DejaVuSans-11" transform="translate(147.421875 0)"/>
       <use xlink:href="#DejaVuSans-15" transform="translate(179.203125 0)"/>
      </g>
     </g>
    </g>
    <g id="xtick_2">
     <g id="line2d_4">
      <path d="M 78.846945 233.358271
L 78.846945 40.597693
" clip-path="url(#pb24b71ce1e)" style="fill: none; stroke: #e5e7eb; stroke-opacity: 0.9; stroke-width: 0.7; stroke-linecap: square"/>
     </g>
     <g id="line2d_5">
      <g>
       <use xlink:href="#m3eddaa08aa" x="78.846945" y="233.358271" style="fill: #4b5563; stroke: #4b5563; stroke-width: 0.8"/>
      </g>
     </g>
     <g id="text_2">
      <!-- 0.0 -->
      <g style="fill: #4b5563" transform="translate(72.644726 246.284443) scale(0.078 -0.078)">
       <use xlink:href="#DejaVuSans-13"/>
       <use xlink:href="#DejaVuSans-11" transform="translate(63.625 0)"/>
       <use xlink:href="#DejaVuSans-13" transform="translate(95.40625 0)"/>
      </g>
     </g>
    </g>
    <g id="xtick_3">
     <g id="line2d_6">
      <path d="M 108.184624 233.358271
L 108.184624 40.597693
" clip-path="url(#pb24b71ce1e)" style="fill: none; stroke: #e5e7eb; stroke-opacity: 0.9; stroke-width: 0.7; stroke-linecap: square"/>
     </g>
     <g id="line2d_7">
      <g>
       <use xlink:href="#m3eddaa08aa" x="108.184624" y="233.358271" style="fill: #4b5563; stroke: #4b5563; stroke-width: 0.8"/>
      </g>
     </g>
     <g id="text_3">
      <!-- 0.2 -->
      <g style="fill: #4b5563" transform="translate(101.982405 246.284443) scale(0.078 -0.078)">
       <use xlink:href="#DejaVuSans-13"/>
       <use xlink:href="#DejaVuSans-11" transform="translate(63.625 0)"/>
       <use xlink:href="#DejaVuSans-15" transform="translate(95.40625 0)"/>
      </g>
     </g>
    </g>
    <g id="xtick_4">
     <g id="line2d_8">
      <path d="M 137.522303 233.358271
L 137.522303 40.597693
" clip-path="url(#pb24b71ce1e)" style="fill: none; stroke: #e5e7eb; stroke-opacity: 0.9; stroke-width: 0.7; stroke-linecap: square"/>
     </g>
     <g id="line2d_9">
      <g>
       <use xlink:href="#m3eddaa08aa" x="137.522303" y="233.358271" style="fill: #4b5563; stroke: #4b5563; stroke-width: 0.8"/>
      </g>
     </g>
     <g id="text_4">
      <!-- 0.4 -->
      <g style="fill: #4b5563" transform="translate(131.320084 246.284443) scale(0.078 -0.078)">
       <defs>
        <path id="DejaVuSans-17" d="M 2419 4116
L 825 1625
L 2419 1625
L 2419 4116
z
M 2253 4666
L 3047 4666
L 3047 1625
L 3713 1625
L 3713 1100
L 3047 1100
L 3047 0
L 2419 0
L 2419 1100
L 313 1100
L 313 1709
L 2253 4666
z
" transform="scale(0.015625)"/>
       </defs>
       <use xlink:href="#DejaVuSans-13"/>
       <use xlink:href="#DejaVuSans-11" transform="translate(63.625 0)"/>
       <use xlink:href="#DejaVuSans-17" transform="translate(95.40625 0)"/>
      </g>
     </g>
    </g>
    <g id="xtick_5">
     <g id="line2d_10">
      <path d="M 166.859982 233.358271
L 166.859982 40.597693
" clip-path="url(#pb24b71ce1e)" style="fill: none; stroke: #e5e7eb; stroke-opacity: 0.9; stroke-width: 0.7; stroke-linecap: square"/>
     </g>
     <g id="line2d_11">
      <g>
       <use xlink:href="#m3eddaa08aa" x="166.859982" y="233.358271" style="fill: #4b5563; stroke: #4b5563; stroke-width: 0.8"/>
      </g>
     </g>
     <g id="text_5">
      <!-- 0.6 -->
      <g style="fill: #4b5563" transform="translate(160.657763 246.284443) scale(0.078 -0.078)">
       <defs>
        <path id="DejaVuSans-19" d="M 2113 2584
Q 1688 2584 1439 2293
Q 1191 2003 1191 1497
Q 1191 994 1439 701
Q 1688 409 2113 409
Q 2538 409 2786 701
Q 3034 994 3034 1497
Q 3034 2003 2786 2293
Q 2538 2584 2113 2584
z
M 3366 4563
L 3366 3988
Q 3128 4100 2886 4159
Q 2644 4219 2406 4219
Q 1781 4219 1451 3797
Q 1122 3375 1075 2522
Q 1259 2794 1537 2939
Q 1816 3084 2150 3084
Q 2853 3084 3261 2657
Q 3669 2231 3669 1497
Q 3669 778 3244 343
Q 2819 -91 2113 -91
Q 1303 -91 875 529
Q 447 1150 447 2328
Q 447 3434 972 4092
Q 1497 4750 2381 4750
Q 2619 4750 2861 4703
Q 3103 4656 3366 4563
z
" transform="scale(0.015625)"/>
       </defs>
       <use xlink:href="#DejaVuSans-13"/>
       <use xlink:href="#DejaVuSans-11" transform="translate(63.625 0)"/>
       <use xlink:href="#DejaVuSans-19" transform="translate(95.40625 0)"/>
      </g>
     </g>
    </g>
    <g id="xtick_6">
     <g id="line2d_12">
      <path d="M 196.197661 233.358271
L 196.197661 40.597693
" clip-path="url(#pb24b71ce1e)" style="fill: none; stroke: #e5e7eb; stroke-opacity: 0.9; stroke-width: 0.7; stroke-linecap: square"/>
     </g>
     <g id="line2d_13">
      <g>
       <use xlink:href="#m3eddaa08aa" x="196.197661" y="233.358271" style="fill: #4b5563; stroke: #4b5563; stroke-width: 0.8"/>
      </g>
     </g>
     <g id="text_6">
      <!-- 0.8 -->
      <g style="fill: #4b5563" transform="translate(189.995442 246.284443) scale(0.078 -0.078)">
       <defs>
        <path id="DejaVuSans-1b" d="M 2034 2216
Q 1584 2216 1326 1975
Q 1069 1734 1069 1313
Q 1069 891 1326 650
Q 1584 409 2034 409
Q 2484 409 2743 651
Q 3003 894 3003 1313
Q 3003 1734 2745 1975
Q 2488 2216 2034 2216
z
M 1403 2484
Q 997 2584 770 2862
Q 544 3141 544 3541
Q 544 4100 942 4425
Q 1341 4750 2034 4750
Q 2731 4750 3128 4425
Q 3525 4100 3525 3541
Q 3525 3141 3298 2862
Q 3072 2584 2669 2484
Q 3125 2378 3379 2068
Q 3634 1759 3634 1313
Q 3634 634 3220 271
Q 2806 -91 2034 -91
Q 1263 -91 848 271
Q 434 634 434 1313
Q 434 1759 690 2068
Q 947 2378 1403 2484
z
M 1172 3481
Q 1172 3119 1398 2916
Q 1625 2713 2034 2713
Q 2441 2713 2670 2916
Q 2900 3119 2900 3481
Q 2900 3844 2670 4047
Q 2441 4250 2034 4250
Q 1625 4250 1398 4047
Q 1172 3844 1172 3481
z
" transform="scale(0.015625)"/>
       </defs>
       <use xlink:href="#DejaVuSans-13"/>
       <use xlink:href="#DejaVuSans-11" transform="translate(63.625 0)"/>
       <use xlink:href="#DejaVuSans-1b" transform="translate(95.40625 0)"/>
      </g>
     </g>
    </g>
    <g id="xtick_7">
     <g id="line2d_14">
      <path d="M 225.53534 233.358271
L 225.53534 40.597693
" clip-path="url(#pb24b71ce1e)" style="fill: none; stroke: #e5e7eb; stroke-opacity: 0.9; stroke-width: 0.7; stroke-linecap: square"/>
     </g>
     <g id="line2d_15">
      <g>
       <use xlink:href="#m3eddaa08aa" x="225.53534" y="233.358271" style="fill: #4b5563; stroke: #4b5563; stroke-width: 0.8"/>
      </g>
     </g>
     <g id="text_7">
      <!-- 1.0 -->
      <g style="fill: #4b5563" transform="translate(219.333121 246.284443) scale(0.078 -0.078)">
       <defs>
        <path id="DejaVuSans-14" d="M 794 531
L 1825 531
L 1825 4091
L 703 3866
L 703 4441
L 1819 4666
L 2450 4666
L 2450 531
L 3481 531
L 3481 0
L 794 0
L 794 531
z
" transform="scale(0.015625)"/>
       </defs>
       <use xlink:href="#DejaVuSans-14"/>
       <use xlink:href="#DejaVuSans-11" transform="translate(63.625 0)"/>
       <use xlink:href="#DejaVuSans-13" transform="translate(95.40625 0)"/>
      </g>
     </g>
    </g>
    <g id="xtick_8">
     <g id="line2d_16">
      <path d="M 254.873019 233.358271
L 254.873019 40.597693
" clip-path="url(#pb24b71ce1e)" style="fill: none; stroke: #e5e7eb; stroke-opacity: 0.9; stroke-width: 0.7; stroke-linecap: square"/>
     </g>
     <g id="line2d_17">
      <g>
       <use xlink:href="#m3eddaa08aa" x="254.873019" y="233.358271" style="fill: #4b5563; stroke: #4b5563; stroke-width: 0.8"/>
      </g>
     </g>
     <g id="text_8">
      <!-- 1.2 -->
      <g style="fill: #4b5563" transform="translate(248.670801 246.284443) scale(0.078 -0.078)">
       <use xlink:href="#DejaVuSans-14"/>
       <use xlink:href="#DejaVuSans-11" transform="translate(63.625 0)"/>
       <use xlink:href="#DejaVuSans-15" transform="translate(95.40625 0)"/>
      </g>
     </g>
    </g>
   </g>
   <g id="matplotlib.axis_2">
    <g id="ytick_1">
     <g id="line2d_18">
      <path d="M 45.741266 230.256854
L 279.931608 230.256854
" clip-path="url(#pb24b71ce1e)" style="fill: none; stroke: #e5e7eb; stroke-opacity: 0.9; stroke-width: 0.7; stroke-linecap: square"/>
     </g>
     <g id="line2d_19">
      <defs>
       <path id="m9c7b1d5a88" d="M 0 0
L -3.5 0
" style="stroke: #4b5563; stroke-width: 0.8"/>
      </defs>
      <g>
       <use xlink:href="#m9c7b1d5a88" x="45.741266" y="230.256854" style="fill: #4b5563; stroke: #4b5563; stroke-width: 0.8"/>
      </g>
     </g>
     <g id="text_9">
      <!-- −0.2 -->
      <g style="fill: #4b5563" transform="translate(19.800672 233.21994) scale(0.078 -0.078)">
       <use xlink:href="#DejaVuSans-c9c"/>
       <use xlink:href="#DejaVuSans-13" transform="translate(83.796875 0)"/>
       <use xlink:href="#DejaVuSans-11" transform="translate(147.421875 0)"/>
       <use xlink:href="#DejaVuSans-15" transform="translate(179.203125 0)"/>
      </g>
     </g>
    </g>
    <g id="ytick_2">
     <g id="line2d_20">
      <path d="M 45.741266 206.109198
L 279.931608 206.109198
" clip-path="url(#pb24b71ce1e)" style="fill: none; stroke: #e5e7eb; stroke-opacity: 0.9; stroke-width: 0.7; stroke-linecap: square"/>
     </g>
     <g id="line2d_21">
      <g>
       <use xlink:href="#m9c7b1d5a88" x="45.741266" y="206.109198" style="fill: #4b5563; stroke: #4b5563; stroke-width: 0.8"/>
      </g>
     </g>
     <g id="text_10">
      <!-- 0.0 -->
      <g style="fill: #4b5563" transform="translate(26.336828 209.072284) scale(0.078 -0.078)">
       <use xlink:href="#DejaVuSans-13"/>
       <use xlink:href="#DejaVuSans-11" transform="translate(63.625 0)"/>
       <use xlink:href="#DejaVuSans-13" transform="translate(95.40625 0)"/>
      </g>
     </g>
    </g>
    <g id="ytick_3">
     <g id="line2d_22">
      <path d="M 45.741266 181.961541
L 279.931608 181.961541
" clip-path="url(#pb24b71ce1e)" style="fill: none; stroke: #e5e7eb; stroke-opacity: 0.9; stroke-width: 0.7; stroke-linecap: square"/>
     </g>
     <g id="line2d_23">
      <g>
       <use xlink:href="#m9c7b1d5a88" x="45.741266" y="181.961541" style="fill: #4b5563; stroke: #4b5563; stroke-width: 0.8"/>
      </g>
     </g>
     <g id="text_11">
      <!-- 0.2 -->
      <g style="fill: #4b5563" transform="translate(26.336828 184.924627) scale(0.078 -0.078)">
       <use xlink:href="#DejaVuSans-13"/>
       <use xlink:href="#DejaVuSans-11" transform="translate(63.625 0)"/>
       <use xlink:href="#DejaVuSans-15" transform="translate(95.40625 0)"/>
      </g>
     </g>
    </g>
    <g id="ytick_4">
     <g id="line2d_24">
      <path d="M 45.741266 157.813884
L 279.931608 157.813884
" clip-path="url(#pb24b71ce1e)" style="fill: none; stroke: #e5e7eb; stroke-opacity: 0.9; stroke-width: 0.7; stroke-linecap: square"/>
     </g>
     <g id="line2d_25">
      <g>
       <use xlink:href="#m9c7b1d5a88" x="45.741266" y="157.813884" style="fill: #4b5563; stroke: #4b5563; stroke-width: 0.8"/>
      </g>
     </g>
     <g id="text_12">
      <!-- 0.4 -->
      <g style="fill: #4b5563" transform="translate(26.336828 160.77697) scale(0.078 -0.078)">
       <use xlink:href="#DejaVuSans-13"/>
       <use xlink:href="#DejaVuSans-11" transform="translate(63.625 0)"/>
       <use xlink:href="#DejaVuSans-17" transform="translate(95.40625 0)"/>
      </g>
     </g>
    </g>
    <g id="ytick_5">
     <g id="line2d_26">
      <path d="M 45.741266 133.666228
L 279.931608 133.666228
" clip-path="url(#pb24b71ce1e)" style="fill: none; stroke: #e5e7eb; stroke-opacity: 0.9; stroke-width: 0.7; stroke-linecap: square"/>
     </g>
     <g id="line2d_27">
      <g>
       <use xlink:href="#m9c7b1d5a88" x="45.741266" y="133.666228" style="fill: #4b5563; stroke: #4b5563; stroke-width: 0.8"/>
      </g>
     </g>
     <g id="text_13">
      <!-- 0.6 -->
      <g style="fill: #4b5563" transform="translate(26.336828 136.629314) scale(0.078 -0.078)">
       <use xlink:href="#DejaVuSans-13"/>
       <use xlink:href="#DejaVuSans-11" transform="translate(63.625 0)"/>
       <use xlink:href="#DejaVuSans-19" transform="translate(95.40625 0)"/>
      </g>
     </g>
    </g>
    <g id="ytick_6">
     <g id="line2d_28">
      <path d="M 45.741266 109.518571
L 279.931608 109.518571
" clip-path="url(#pb24b71ce1e)" style="fill: none; stroke: #e5e7eb; stroke-opacity: 0.9; stroke-width: 0.7; stroke-linecap: square"/>
     </g>
     <g id="line2d_29">
      <g>
       <use xlink:href="#m9c7b1d5a88" x="45.741266" y="109.518571" style="fill: #4b5563; stroke: #4b5563; stroke-width: 0.8"/>
      </g>
     </g>
     <g id="text_14">
      <!-- 0.8 -->
      <g style="fill: #4b5563" transform="translate(26.336828 112.481657) scale(0.078 -0.078)">
       <use xlink:href="#DejaVuSans-13"/>
       <use xlink:href="#DejaVuSans-11" transform="translate(63.625 0)"/>
       <use xlink:href="#DejaVuSans-1b" transform="translate(95.40625 0)"/>
      </g>
     </g>
    </g>
    <g id="ytick_7">
     <g id="line2d_30">
      <path d="M 45.741266 85.370914
L 279.931608 85.370914
" clip-path="url(#pb24b71ce1e)" style="fill: none; stroke: #e5e7eb; stroke-opacity: 0.9; stroke-width: 0.7; stroke-linecap: square"/>
     </g>
     <g id="line2d_31">
      <g>
       <use xlink:href="#m9c7b1d5a88" x="45.741266" y="85.370914" style="fill: #4b5563; stroke: #4b5563; stroke-width: 0.8"/>
      </g>
     </g>
     <g id="text_15">
      <!-- 1.0 -->
      <g style="fill: #4b5563" transform="translate(26.336828 88.334) scale(0.078 -0.078)">
       <use xlink:href="#DejaVuSans-14"/>
       <use xlink:href="#DejaVuSans-11" transform="translate(63.625 0)"/>
       <use xlink:href="#DejaVuSans-13" transform="translate(95.40625 0)"/>
      </g>
     </g>
    </g>
    <g id="ytick_8">
     <g id="line2d_32">
      <path d="M 45.741266 61.223257
L 279.931608 61.223257
" clip-path="url(#pb24b71ce1e)" style="fill: none; stroke: #e5e7eb; stroke-opacity: 0.9; stroke-width: 0.7; stroke-linecap: square"/>
     </g>
     <g id="line2d_33">
      <g>
       <use xlink:href="#m9c7b1d5a88" x="45.741266" y="61.223257" style="fill: #4b5563; stroke: #4b5563; stroke-width: 0.8"/>
      </g>
     </g>
     <g id="text_16">
      <!-- 1.2 -->
      <g style="fill: #4b5563" transform="translate(26.336828 64.186343) scale(0.078 -0.078)">
       <use xlink:href="#DejaVuSans-14"/>
       <use xlink:href="#DejaVuSans-11" transform="translate(63.625 0)"/>
       <use xlink:href="#DejaVuSans-15" transform="translate(95.40625 0)"/>
      </g>
     </g>
    </g>
    <g id="text_17">
     <!-- Damage after patch (ΔNLL) -->
     <g style="fill: #172033" transform="translate(13.734656 195.841623) rotate(-90) scale(0.086 -0.086)">
      <defs>
       <path id="DejaVuSans-27" d="M 1259 4147
L 1259 519
L 2022 519
Q 2988 519 3436 956
Q 3884 1394 3884 2338
Q 3884 3275 3436 3711
Q 2988 4147 2022 4147
L 1259 4147
z
M 628 4666
L 1925 4666
Q 3281 4666 3915 4102
Q 4550 3538 4550 2338
Q 4550 1131 3912 565
Q 3275 0 1925 0
L 628 0
L 628 4666
z
" transform="scale(0.015625)"/>
       <path id="DejaVuSans-44" d="M 2194 1759
Q 1497 1759 1228 1600
Q 959 1441 959 1056
Q 959 750 1161 570
Q 1363 391 1709 391
Q 2188 391 2477 730
Q 2766 1069 2766 1631
L 2766 1759
L 2194 1759
z
M 3341 1997
L 3341 0
L 2766 0
L 2766 531
Q 2569 213 2275 61
Q 1981 -91 1556 -91
Q 1019 -91 701 211
Q 384 513 384 1019
Q 384 1609 779 1909
Q 1175 2209 1959 2209
L 2766 2209
L 2766 2266
Q 2766 2663 2505 2880
Q 2244 3097 1772 3097
Q 1472 3097 1187 3025
Q 903 2953 641 2809
L 641 3341
Q 956 3463 1253 3523
Q 1550 3584 1831 3584
Q 2591 3584 2966 3190
Q 3341 2797 3341 1997
z
" transform="scale(0.015625)"/>
       <path id="DejaVuSans-50" d="M 3328 2828
Q 3544 3216 3844 3400
Q 4144 3584 4550 3584
Q 5097 3584 5394 3201
Q 5691 2819 5691 2113
L 5691 0
L 5113 0
L 5113 2094
Q 5113 2597 4934 2840
Q 4756 3084 4391 3084
Q 3944 3084 3684 2787
Q 3425 2491 3425 1978
L 3425 0
L 2847 0
L 2847 2094
Q 2847 2600 2669 2842
Q 2491 3084 2119 3084
Q 1678 3084 1418 2786
Q 1159 2488 1159 1978
L 1159 0
L 581 0
L 581 3500
L 1159 3500
L 1159 2956
Q 1356 3278 1631 3431
Q 1906 3584 2284 3584
Q 2666 3584 2933 3390
Q 3200 3197 3328 2828
z
" transform="scale(0.015625)"/>
       <path id="DejaVuSans-4a" d="M 2906 1791
Q 2906 2416 2648 2759
Q 2391 3103 1925 3103
Q 1463 3103 1205 2759
Q 947 2416 947 1791
Q 947 1169 1205 825
Q 1463 481 1925 481
Q 2391 481 2648 825
Q 2906 1169 2906 1791
z
M 3481 434
Q 3481 -459 3084 -895
Q 2688 -1331 1869 -1331
Q 1566 -1331 1297 -1286
Q 1028 -1241 775 -1147
L 775 -588
Q 1028 -725 1275 -790
Q 1522 -856 1778 -856
Q 2344 -856 2625 -561
Q 2906 -266 2906 331
L 2906 616
Q 2728 306 2450 153
Q 2172 0 1784 0
Q 1141 0 747 490
Q 353 981 353 1791
Q 353 2603 747 3093
Q 1141 3584 1784 3584
Q 2172 3584 2450 3431
Q 2728 3278 2906 2969
L 2906 3500
L 3481 3500
L 3481 434
z
" transform="scale(0.015625)"/>
       <path id="DejaVuSans-48" d="M 3597 1894
L 3597 1613
L 953 1613
Q 991 1019 1311 708
Q 1631 397 2203 397
Q 2534 397 2845 478
Q 3156 559 3463 722
L 3463 178
Q 3153 47 2828 -22
Q 2503 -91 2169 -91
Q 1331 -91 842 396
Q 353 884 353 1716
Q 353 2575 817 3079
Q 1281 3584 2069 3584
Q 2775 3584 3186 3129
Q 3597 2675 3597 1894
z
M 3022 2063
Q 3016 2534 2758 2815
Q 2500 3097 2075 3097
Q 1594 3097 1305 2825
Q 1016 2553 972 2059
L 3022 2063
z
" transform="scale(0.015625)"/>
       <path id="DejaVuSans-3" transform="scale(0.015625)"/>
       <path id="DejaVuSans-49" d="M 2375 4863
L 2375 4384
L 1825 4384
Q 1516 4384 1395 4259
Q 1275 4134 1275 3809
L 1275 3500
L 2222 3500
L 2222 3053
L 1275 3053
L 1275 0
L 697 0
L 697 3053
L 147 3053
L 147 3500
L 697 3500
L 697 3744
Q 697 4328 969 4595
Q 1241 4863 1831 4863
L 2375 4863
z
" transform="scale(0.015625)"/>
       <path id="DejaVuSans-57" d="M 1172 4494
L 1172 3500
L 2356 3500
L 2356 3053
L 1172 3053
L 1172 1153
Q 1172 725 1289 603
Q 1406 481 1766 481
L 2356 481
L 2356 0
L 1766 0
Q 1100 0 847 248
Q 594 497 594 1153
L 594 3053
L 172 3053
L 172 3500
L 594 3500
L 594 4494
L 1172 4494
z
" transform="scale(0.015625)"/>
       <path id="DejaVuSans-55" d="M 2631 2963
Q 2534 3019 2420 3045
Q 2306 3072 2169 3072
Q 1681 3072 1420 2755
Q 1159 2438 1159 1844
L 1159 0
L 581 0
L 581 3500
L 1159 3500
L 1159 2956
Q 1341 3275 1631 3429
Q 1922 3584 2338 3584
Q 2397 3584 2469 3576
Q 2541 3569 2628 3553
L 2631 2963
z
" transform="scale(0.015625)"/>
       <path id="DejaVuSans-53" d="M 1159 525
L 1159 -1331
L 581 -1331
L 581 3500
L 1159 3500
L 1159 2969
Q 1341 3281 1617 3432
Q 1894 3584 2278 3584
Q 2916 3584 3314 3078
Q 3713 2572 3713 1747
Q 3713 922 3314 415
Q 2916 -91 2278 -91
Q 1894 -91 1617 61
Q 1341 213 1159 525
z
M 3116 1747
Q 3116 2381 2855 2742
Q 2594 3103 2138 3103
Q 1681 3103 1420 2742
Q 1159 2381 1159 1747
Q 1159 1113 1420 752
Q 1681 391 2138 391
Q 2594 391 2855 752
Q 3116 1113 3116 1747
z
" transform="scale(0.015625)"/>
       <path id="DejaVuSans-46" d="M 3122 3366
L 3122 2828
Q 2878 2963 2633 3030
Q 2388 3097 2138 3097
Q 1578 3097 1268 2742
Q 959 2388 959 1747
Q 959 1106 1268 751
Q 1578 397 2138 397
Q 2388 397 2633 464
Q 2878 531 3122 666
L 3122 134
Q 2881 22 2623 -34
Q 2366 -91 2075 -91
Q 1284 -91 818 406
Q 353 903 353 1747
Q 353 2603 823 3093
Q 1294 3584 2113 3584
Q 2378 3584 2631 3529
Q 2884 3475 3122 3366
z
" transform="scale(0.015625)"/>
       <path id="DejaVuSans-4b" d="M 3513 2113
L 3513 0
L 2938 0
L 2938 2094
Q 2938 2591 2744 2837
Q 2550 3084 2163 3084
Q 1697 3084 1428 2787
Q 1159 2491 1159 1978
L 1159 0
L 581 0
L 581 4863
L 1159 4863
L 1159 2956
Q 1366 3272 1645 3428
Q 1925 3584 2291 3584
Q 2894 3584 3203 3211
Q 3513 2838 3513 2113
z
" transform="scale(0.015625)"/>
       <path id="DejaVuSans-b" d="M 1984 4856
Q 1566 4138 1362 3434
Q 1159 2731 1159 2009
Q 1159 1288 1364 580
Q 1569 -128 1984 -844
L 1484 -844
Q 1016 -109 783 600
Q 550 1309 550 2009
Q 550 2706 781 3412
Q 1013 4119 1484 4856
L 1984 4856
z
" transform="scale(0.015625)"/>
       <path id="DejaVuSans-329" d="M 2188 4044
L 906 525
L 3472 525
L 2188 4044
z
M 50 0
L 1831 4666
L 2547 4666
L 4325 0
L 50 0
z
" transform="scale(0.015625)"/>
       <path id="DejaVuSans-31" d="M 628 4666
L 1478 4666
L 3547 763
L 3547 4666
L 4159 4666
L 4159 0
L 3309 0
L 1241 3903
L 1241 0
L 628 0
L 628 4666
z
" transform="scale(0.015625)"/>
       <path id="DejaVuSans-2f" d="M 628 4666
L 1259 4666
L 1259 531
L 3531 531
L 3531 0
L 628 0
L 628 4666
z
" transform="scale(0.015625)"/>
       <path id="DejaVuSans-c" d="M 513 4856
L 1013 4856
Q 1481 4119 1714 3412
Q 1947 2706 1947 2009
Q 1947 1309 1714 600
Q 1481 -109 1013 -844
L 513 -844
Q 928 -128 1133 580
Q 1338 1288 1338 2009
Q 1338 2731 1133 3434
Q 928 4138 513 4856
z
" transform="scale(0.015625)"/>
      </defs>
      <use xlink:href="#DejaVuSans-27"/>
      <use xlink:href="#DejaVuSans-44" transform="translate(77 0)"/>
      <use xlink:href="#DejaVuSans-50" transform="translate(138.28125 0)"/>
      <use xlink:href="#DejaVuSans-44" transform="translate(235.6875 0)"/>
      <use xlink:href="#DejaVuSans-4a" transform="translate(296.96875 0)"/>
      <use xlink:href="#DejaVuSans-48" transform="translate(360.453125 0)"/>
      <use xlink:href="#DejaVuSans-3" transform="translate(421.984375 0)"/>
      <use xlink:href="#DejaVuSans-44" transform="translate(453.765625 0)"/>
      <use xlink:href="#DejaVuSans-49" transform="translate(515.046875 0)"/>
      <use xlink:href="#DejaVuSans-57" transform="translate(548.5 0)"/>
      <use xlink:href="#DejaVuSans-48" transform="translate(587.703125 0)"/>
      <use xlink:href="#DejaVuSans-55" transform="translate(649.234375 0)"/>
      <use xlink:href="#DejaVuSans-3" transform="translate(690.34375 0)"/>
      <use xlink:href="#DejaVuSans-53" transform="translate(722.125 0)"/>
      <use xlink:href="#DejaVuSans-44" transform="translate(785.609375 0)"/>
      <use xlink:href="#DejaVuSans-57" transform="translate(846.890625 0)"/>
      <use xlink:href="#DejaVuSans-46" transform="translate(886.09375 0)"/>
      <use xlink:href="#DejaVuSans-4b" transform="translate(941.078125 0)"/>
      <use xlink:href="#DejaVuSans-3" transform="translate(1004.453125 0)"/>
      <use xlink:href="#DejaVuSans-b" transform="translate(1036.234375 0)"/>
      <use xlink:href="#DejaVuSans-329" transform="translate(1075.25 0)"/>
      <use xlink:href="#DejaVuSans-31" transform="translate(1143.65625 0)"/>
      <use xlink:href="#DejaVuSans-2f" transform="translate(1218.46875 0)"/>
      <use xlink:href="#DejaVuSans-2f" transform="translate(1274.1875 0)"/>
      <use xlink:href="#DejaVuSans-c" transform="translate(1329.90625 0)"/>
     </g>
    </g>
   </g>
   <g id="PathCollection_1">
    <defs>
     <path id="m88e7ce914a" d="M 0 2.738613
C 0.726289 2.738613 1.422928 2.450055 1.936492 1.936492
C 2.450055 1.422928 2.738613 0.726289 2.738613 0
C 2.738613 -0.726289 2.450055 -1.422928 1.936492 -1.936492
C 1.422928 -2.450055 0.726289 -2.738613 0 -2.738613
C -0.726289 -2.738613 -1.422928 -2.450055 -1.936492 -1.936492
C -2.450055 -1.422928 -2.738613 -0.726289 -2.738613 0
C -2.738613 0.726289 -2.450055 1.422928 -1.936492 1.936492
C -1.422928 2.450055 -0.726289 2.738613 0 2.738613
z
" style="stroke: #ffffff; stroke-opacity: 0.78; stroke-width: 0.45"/>
    </defs>
    <g clip-path="url(#pb24b71ce1e)">
     <use xlink:href="#m88e7ce914a" x="84.153084" y="207.192712" style="fill: #16857a; fill-opacity: 0.78; stroke: #ffffff; stroke-opacity: 0.78; stroke-width: 0.45"/>
     <use xlink:href="#m88e7ce914a" x="187.900778" y="163.03069" style="fill: #16857a; fill-opacity: 0.78; stroke: #ffffff; stroke-opacity: 0.78; stroke-width: 0.45"/>
     <use xlink:href="#m88e7ce914a" x="80.790617" y="205.801991" style="fill: #16857a; fill-opacity: 0.78; stroke: #ffffff; stroke-opacity: 0.78; stroke-width: 0.45"/>
     <use xlink:href="#m88e7ce914a" x="86.123617" y="205.464386" style="fill: #16857a; fill-opacity: 0.78; stroke: #ffffff; stroke-opacity: 0.78; stroke-width: 0.45"/>
     <use xlink:href="#m88e7ce914a" x="181.478292" y="203.467311" style="fill: #16857a; fill-opacity: 0.78; stroke: #ffffff; stroke-opacity: 0.78; stroke-width: 0.45"/>
     <use xlink:href="#m88e7ce914a" x="83.752151" y="205.416485" style="fill: #16857a; fill-opacity: 0.78; stroke: #ffffff; stroke-opacity: 0.78; stroke-width: 0.45"/>
     <use xlink:href="#m88e7ce914a" x="79.10155" y="206.099526" style="fill: #16857a; fill-opacity: 0.78; stroke: #ffffff; stroke-opacity: 0.78; stroke-width: 0.45"/>
     <use xlink:href="#m88e7ce914a" x="98.271361" y="203.201556" style="fill: #16857a; fill-opacity: 0.78; stroke: #ffffff; stroke-opacity: 0.78; stroke-width: 0.45"/>
     <use xlink:href="#m88e7ce914a" x="196.137675" y="203.946314" style="fill: #16857a; fill-opacity: 0.78; stroke: #ffffff; stroke-opacity: 0.78; stroke-width: 0.45"/>
     <use xlink:href="#m88e7ce914a" x="79.460795" y="206.053007" style="fill: #16857a; fill-opacity: 0.78; stroke: #ffffff; stroke-opacity: 0.78; stroke-width: 0.45"/>
     <use xlink:href="#m88e7ce914a" x="95.032" y="201.569721" style="fill: #16857a; fill-opacity: 0.78; stroke: #ffffff; stroke-opacity: 0.78; stroke-width: 0.45"/>
     <use xlink:href="#m88e7ce914a" x="268.196536" y="125.201412" style="fill: #16857a; fill-opacity: 0.78; stroke: #ffffff; stroke-opacity: 0.78; stroke-width: 0.45"/>
     <use xlink:href="#m88e7ce914a" x="88.622105" y="159.747215" style="fill: #16857a; fill-opacity: 0.78; stroke: #ffffff; stroke-opacity: 0.78; stroke-width: 0.45"/>
     <use xlink:href="#m88e7ce914a" x="78.924725" y="206.104592" style="fill: #16857a; fill-opacity: 0.78; stroke: #ffffff; stroke-opacity: 0.78; stroke-width: 0.45"/>
     <use xlink:href="#m88e7ce914a" x="203.497443" y="113.864235" style="fill: #16857a; fill-opacity: 0.78; stroke: #ffffff; stroke-opacity: 0.78; stroke-width: 0.45"/>
     <use xlink:href="#m88e7ce914a" x="129.364529" y="169.698967" style="fill: #16857a; fill-opacity: 0.78; stroke: #ffffff; stroke-opacity: 0.78; stroke-width: 0.45"/>
     <use xlink:href="#m88e7ce914a" x="69.047723" y="223.699209" style="fill: #16857a; fill-opacity: 0.78; stroke: #ffffff; stroke-opacity: 0.78; stroke-width: 0.45"/>
     <use xlink:href="#m88e7ce914a" x="122.097929" y="192.798896" style="fill: #16857a; fill-opacity: 0.78; stroke: #ffffff; stroke-opacity: 0.78; stroke-width: 0.45"/>
     <use xlink:href="#m88e7ce914a" x="78.872125" y="206.077878" style="fill: #16857a; fill-opacity: 0.78; stroke: #ffffff; stroke-opacity: 0.78; stroke-width: 0.45"/>
     <use xlink:href="#m88e7ce914a" x="82.774859" y="206.115185" style="fill: #16857a; fill-opacity: 0.78; stroke: #ffffff; stroke-opacity: 0.78; stroke-width: 0.45"/>
     <use xlink:href="#m88e7ce914a" x="83.428159" y="205.798306" style="fill: #16857a; fill-opacity: 0.78; stroke: #ffffff; stroke-opacity: 0.78; stroke-width: 0.45"/>
     <use xlink:href="#m88e7ce914a" x="78.848064" y="206.108737" style="fill: #16857a; fill-opacity: 0.78; stroke: #ffffff; stroke-opacity: 0.78; stroke-width: 0.45"/>
     <use xlink:href="#m88e7ce914a" x="82.14618" y="205.193565" style="fill: #16857a; fill-opacity: 0.78; stroke: #ffffff; stroke-opacity: 0.78; stroke-width: 0.45"/>
     <use xlink:href="#m88e7ce914a" x="100.02394" y="202.805457" style="fill: #16857a; fill-opacity: 0.78; stroke: #ffffff; stroke-opacity: 0.78; stroke-width: 0.45"/>
    </g>
   </g>
   <g id="patch_3">
    <path d="M 45.741266 233.358271
L 45.741266 40.597693
" style="fill: none; stroke: #9ca3af; stroke-width: 0.8; stroke-linejoin: miter; stroke-linecap: square"/>
   </g>
   <g id="patch_4">
    <path d="M 45.741266 233.358271
L 279.931608 233.358271
" style="fill: none; stroke: #9ca3af; stroke-width: 0.8; stroke-linejoin: miter; stroke-linecap: square"/>
   </g>
   <g id="text_18">
    <!-- pooled damage ↓54% -->
    <g style="fill: #16857a" transform="translate(52.766976 57.786171) scale(0.074 -0.074)">
     <defs>
      <path id="DejaVuSans-Bold-53" d="M 1656 506
L 1656 -1331
L 538 -1331
L 538 3500
L 1656 3500
L 1656 2988
Q 1888 3294 2169 3439
Q 2450 3584 2816 3584
Q 3463 3584 3878 3070
Q 4294 2556 4294 1747
Q 4294 938 3878 423
Q 3463 -91 2816 -91
Q 2450 -91 2169 54
Q 1888 200 1656 506
z
M 2400 2772
Q 2041 2772 1848 2508
Q 1656 2244 1656 1747
Q 1656 1250 1848 986
Q 2041 722 2400 722
Q 2759 722 2948 984
Q 3138 1247 3138 1747
Q 3138 2247 2948 2509
Q 2759 2772 2400 2772
z
" transform="scale(0.015625)"/>
      <path id="DejaVuSans-Bold-52" d="M 2203 2784
Q 1831 2784 1636 2517
Q 1441 2250 1441 1747
Q 1441 1244 1636 976
Q 1831 709 2203 709
Q 2569 709 2762 976
Q 2956 1244 2956 1747
Q 2956 2250 2762 2517
Q 2569 2784 2203 2784
z
M 2203 3584
Q 3106 3584 3614 3096
Q 4122 2609 4122 1747
Q 4122 884 3614 396
Q 3106 -91 2203 -91
Q 1297 -91 786 396
Q 275 884 275 1747
Q 275 2609 786 3096
Q 1297 3584 2203 3584
z
" transform="scale(0.015625)"/>
      <path id="DejaVuSans-Bold-4f" d="M 538 4863
L 1656 4863
L 1656 0
L 538 0
L 538 4863
z
" transform="scale(0.015625)"/>
      <path id="DejaVuSans-Bold-48" d="M 4031 1759
L 4031 1441
L 1416 1441
Q 1456 1047 1700 850
Q 1944 653 2381 653
Q 2734 653 3104 758
Q 3475 863 3866 1075
L 3866 213
Q 3469 63 3072 -14
Q 2675 -91 2278 -91
Q 1328 -91 801 392
Q 275 875 275 1747
Q 275 2603 792 3093
Q 1309 3584 2216 3584
Q 3041 3584 3536 3087
Q 4031 2591 4031 1759
z
M 2881 2131
Q 2881 2450 2695 2645
Q 2509 2841 2209 2841
Q 1884 2841 1681 2658
Q 1478 2475 1428 2131
L 2881 2131
z
" transform="scale(0.015625)"/>
      <path id="DejaVuSans-Bold-47" d="M 2919 2988
L 2919 4863
L 4044 4863
L 4044 0
L 2919 0
L 2919 506
Q 2688 197 2409 53
Q 2131 -91 1766 -91
Q 1119 -91 703 423
Q 288 938 288 1747
Q 288 2556 703 3070
Q 1119 3584 1766 3584
Q 2128 3584 2408 3439
Q 2688 3294 2919 2988
z
M 2181 722
Q 2541 722 2730 984
Q 2919 1247 2919 1747
Q 2919 2247 2730 2509
Q 2541 2772 2181 2772
Q 1825 2772 1636 2509
Q 1447 2247 1447 1747
Q 1447 1247 1636 984
Q 1825 722 2181 722
z
" transform="scale(0.015625)"/>
      <path id="DejaVuSans-Bold-3" transform="scale(0.015625)"/>
      <path id="DejaVuSans-Bold-44" d="M 2106 1575
Q 1756 1575 1579 1456
Q 1403 1338 1403 1106
Q 1403 894 1545 773
Q 1688 653 1941 653
Q 2256 653 2472 879
Q 2688 1106 2688 1447
L 2688 1575
L 2106 1575
z
M 3816 1997
L 3816 0
L 2688 0
L 2688 519
Q 2463 200 2181 54
Q 1900 -91 1497 -91
Q 953 -91 614 226
Q 275 544 275 1050
Q 275 1666 698 1953
Q 1122 2241 2028 2241
L 2688 2241
L 2688 2328
Q 2688 2594 2478 2717
Q 2269 2841 1825 2841
Q 1466 2841 1156 2769
Q 847 2697 581 2553
L 581 3406
Q 941 3494 1303 3539
Q 1666 3584 2028 3584
Q 2975 3584 3395 3211
Q 3816 2838 3816 1997
z
" transform="scale(0.015625)"/>
      <path id="DejaVuSans-Bold-50" d="M 3781 2919
Q 3994 3244 4286 3414
Q 4578 3584 4928 3584
Q 5531 3584 5847 3212
Q 6163 2841 6163 2131
L 6163 0
L 5038 0
L 5038 1825
Q 5041 1866 5042 1909
Q 5044 1953 5044 2034
Q 5044 2406 4934 2573
Q 4825 2741 4581 2741
Q 4263 2741 4089 2478
Q 3916 2216 3909 1719
L 3909 0
L 2784 0
L 2784 1825
Q 2784 2406 2684 2573
Q 2584 2741 2328 2741
Q 2006 2741 1831 2477
Q 1656 2213 1656 1722
L 1656 0
L 531 0
L 531 3500
L 1656 3500
L 1656 2988
Q 1863 3284 2130 3434
Q 2397 3584 2719 3584
Q 3081 3584 3359 3409
Q 3638 3234 3781 2919
z
" transform="scale(0.015625)"/>
      <path id="DejaVuSans-Bold-4a" d="M 2919 594
Q 2688 288 2409 144
Q 2131 0 1766 0
Q 1125 0 706 504
Q 288 1009 288 1791
Q 288 2575 706 3076
Q 1125 3578 1766 3578
Q 2131 3578 2409 3434
Q 2688 3291 2919 2981
L 2919 3500
L 4044 3500
L 4044 353
Q 4044 -491 3511 -936
Q 2978 -1381 1966 -1381
Q 1638 -1381 1331 -1331
Q 1025 -1281 716 -1178
L 716 -306
Q 1009 -475 1290 -558
Q 1572 -641 1856 -641
Q 2406 -641 2662 -400
Q 2919 -159 2919 353
L 2919 594
z
M 2181 2772
Q 1834 2772 1640 2515
Q 1447 2259 1447 1791
Q 1447 1309 1634 1061
Q 1822 813 2181 813
Q 2531 813 2725 1069
Q 2919 1325 2919 1791
Q 2919 2259 2725 2515
Q 2531 2772 2181 2772
z
" transform="scale(0.015625)"/>
      <path id="DejaVuSans-Bold-c1d" d="M 2903 -22
L 2466 -22
L 1238 1206
L 1691 1659
L 2309 1041
L 2309 4666
L 3059 4666
L 3059 1041
L 3678 1659
L 4131 1206
L 2903 -22
z
" transform="scale(0.015625)"/>
      <path id="DejaVuSans-Bold-18" d="M 678 4666
L 3669 4666
L 3669 3781
L 1638 3781
L 1638 3059
Q 1775 3097 1914 3117
Q 2053 3138 2203 3138
Q 3056 3138 3531 2711
Q 4006 2284 4006 1522
Q 4006 766 3489 337
Q 2972 -91 2053 -91
Q 1656 -91 1267 -14
Q 878 63 494 219
L 494 1166
Q 875 947 1217 837
Q 1559 728 1863 728
Q 2300 728 2551 942
Q 2803 1156 2803 1522
Q 2803 1891 2551 2103
Q 2300 2316 1863 2316
Q 1603 2316 1309 2248
Q 1016 2181 678 2041
L 678 4666
z
" transform="scale(0.015625)"/>
      <path id="DejaVuSans-Bold-17" d="M 2356 3675
L 1038 1722
L 2356 1722
L 2356 3675
z
M 2156 4666
L 3494 4666
L 3494 1722
L 4159 1722
L 4159 850
L 3494 850
L 3494 0
L 2356 0
L 2356 850
L 288 850
L 288 1881
L 2156 4666
z
" transform="scale(0.015625)"/>
      <path id="DejaVuSans-Bold-8" d="M 4959 1925
Q 4738 1925 4616 1733
Q 4494 1541 4494 1184
Q 4494 825 4614 633
Q 4734 441 4959 441
Q 5184 441 5303 633
Q 5422 825 5422 1184
Q 5422 1541 5301 1733
Q 5181 1925 4959 1925
z
M 4959 2450
Q 5541 2450 5875 2112
Q 6209 1775 6209 1184
Q 6209 594 5875 251
Q 5541 -91 4959 -91
Q 4378 -91 4042 251
Q 3706 594 3706 1184
Q 3706 1772 4042 2111
Q 4378 2450 4959 2450
z
M 2094 -91
L 1403 -91
L 4319 4750
L 5013 4750
L 2094 -91
z
M 1453 4750
Q 2034 4750 2367 4411
Q 2700 4072 2700 3481
Q 2700 2891 2367 2550
Q 2034 2209 1453 2209
Q 872 2209 539 2550
Q 206 2891 206 3481
Q 206 4072 539 4411
Q 872 4750 1453 4750
z
M 1453 4225
Q 1228 4225 1106 4031
Q 984 3838 984 3481
Q 984 3122 1106 2926
Q 1228 2731 1453 2731
Q 1678 2731 1798 2926
Q 1919 3122 1919 3481
Q 1919 3838 1797 4031
Q 1675 4225 1453 4225
z
" transform="scale(0.015625)"/>
     </defs>
     <use xlink:href="#DejaVuSans-Bold-53"/>
     <use xlink:href="#DejaVuSans-Bold-52" transform="translate(71.578125 0)"/>
     <use xlink:href="#DejaVuSans-Bold-52" transform="translate(140.28125 0)"/>
     <use xlink:href="#DejaVuSans-Bold-4f" transform="translate(208.984375 0)"/>
     <use xlink:href="#DejaVuSans-Bold-48" transform="translate(243.265625 0)"/>
     <use xlink:href="#DejaVuSans-Bold-47" transform="translate(311.09375 0)"/>
     <use xlink:href="#DejaVuSans-Bold-3" transform="translate(382.671875 0)"/>
     <use xlink:href="#DejaVuSans-Bold-47" transform="translate(417.484375 0)"/>
     <use xlink:href="#DejaVuSans-Bold-44" transform="translate(489.0625 0)"/>
     <use xlink:href="#DejaVuSans-Bold-50" transform="translate(556.546875 0)"/>
     <use xlink:href="#DejaVuSans-Bold-44" transform="translate(660.75 0)"/>
     <use xlink:href="#DejaVuSans-Bold-4a" transform="translate(728.234375 0)"/>
     <use xlink:href="#DejaVuSans-Bold-48" transform="translate(799.8125 0)"/>
     <use xlink:href="#DejaVuSans-Bold-3" transform="translate(867.640625 0)"/>
     <use xlink:href="#DejaVuSans-Bold-c1d" transform="translate(902.453125 0)"/>
     <use xlink:href="#DejaVuSans-Bold-18" transform="translate(986.25 0)"/>
     <use xlink:href="#DejaVuSans-Bold-17" transform="translate(1055.828125 0)"/>
     <use xlink:href="#DejaVuSans-Bold-8" transform="translate(1125.40625 0)"/>
    </g>
   </g>
   <g id="text_19">
    <!-- below diagonal = rescue -->
    <g style="fill: #6b7280" transform="translate(52.766976 70.823506) scale(0.068 -0.068)">
     <defs>
      <path id="DejaVuSans-45" d="M 3116 1747
Q 3116 2381 2855 2742
Q 2594 3103 2138 3103
Q 1681 3103 1420 2742
Q 1159 2381 1159 1747
Q 1159 1113 1420 752
Q 1681 391 2138 391
Q 2594 391 2855 752
Q 3116 1113 3116 1747
z
M 1159 2969
Q 1341 3281 1617 3432
Q 1894 3584 2278 3584
Q 2916 3584 3314 3078
Q 3713 2572 3713 1747
Q 3713 922 3314 415
Q 2916 -91 2278 -91
Q 1894 -91 1617 61
Q 1341 213 1159 525
L 1159 0
L 581 0
L 581 4863
L 1159 4863
L 1159 2969
z
" transform="scale(0.015625)"/>
      <path id="DejaVuSans-4f" d="M 603 4863
L 1178 4863
L 1178 0
L 603 0
L 603 4863
z
" transform="scale(0.015625)"/>
      <path id="DejaVuSans-52" d="M 1959 3097
Q 1497 3097 1228 2736
Q 959 2375 959 1747
Q 959 1119 1226 758
Q 1494 397 1959 397
Q 2419 397 2687 759
Q 2956 1122 2956 1747
Q 2956 2369 2687 2733
Q 2419 3097 1959 3097
z
M 1959 3584
Q 2709 3584 3137 3096
Q 3566 2609 3566 1747
Q 3566 888 3137 398
Q 2709 -91 1959 -91
Q 1206 -91 779 398
Q 353 888 353 1747
Q 353 2609 779 3096
Q 1206 3584 1959 3584
z
" transform="scale(0.015625)"/>
      <path id="DejaVuSans-5a" d="M 269 3500
L 844 3500
L 1563 769
L 2278 3500
L 2956 3500
L 3675 769
L 4391 3500
L 4966 3500
L 4050 0
L 3372 0
L 2619 2869
L 1863 0
L 1184 0
L 269 3500
z
" transform="scale(0.015625)"/>
      <path id="DejaVuSans-47" d="M 2906 2969
L 2906 4863
L 3481 4863
L 3481 0
L 2906 0
L 2906 525
Q 2725 213 2448 61
Q 2172 -91 1784 -91
Q 1150 -91 751 415
Q 353 922 353 1747
Q 353 2572 751 3078
Q 1150 3584 1784 3584
Q 2172 3584 2448 3432
Q 2725 3281 2906 2969
z
M 947 1747
Q 947 1113 1208 752
Q 1469 391 1925 391
Q 2381 391 2643 752
Q 2906 1113 2906 1747
Q 2906 2381 2643 2742
Q 2381 3103 1925 3103
Q 1469 3103 1208 2742
Q 947 2381 947 1747
z
" transform="scale(0.015625)"/>
      <path id="DejaVuSans-4c" d="M 603 3500
L 1178 3500
L 1178 0
L 603 0
L 603 3500
z
M 603 4863
L 1178 4863
L 1178 4134
L 603 4134
L 603 4863
z
" transform="scale(0.015625)"/>
      <path id="DejaVuSans-51" d="M 3513 2113
L 3513 0
L 2938 0
L 2938 2094
Q 2938 2591 2744 2837
Q 2550 3084 2163 3084
Q 1697 3084 1428 2787
Q 1159 2491 1159 1978
L 1159 0
L 581 0
L 581 3500
L 1159 3500
L 1159 2956
Q 1366 3272 1645 3428
Q 1925 3584 2291 3584
Q 2894 3584 3203 3211
Q 3513 2838 3513 2113
z
" transform="scale(0.015625)"/>
      <path id="DejaVuSans-20" d="M 678 2906
L 4684 2906
L 4684 2381
L 678 2381
L 678 2906
z
M 678 1631
L 4684 1631
L 4684 1100
L 678 1100
L 678 1631
z
" transform="scale(0.015625)"/>
      <path id="DejaVuSans-56" d="M 2834 3397
L 2834 2853
Q 2591 2978 2328 3040
Q 2066 3103 1784 3103
Q 1356 3103 1142 2972
Q 928 2841 928 2578
Q 928 2378 1081 2264
Q 1234 2150 1697 2047
L 1894 2003
Q 2506 1872 2764 1633
Q 3022 1394 3022 966
Q 3022 478 2636 193
Q 2250 -91 1575 -91
Q 1294 -91 989 -36
Q 684 19 347 128
L 347 722
Q 666 556 975 473
Q 1284 391 1588 391
Q 1994 391 2212 530
Q 2431 669 2431 922
Q 2431 1156 2273 1281
Q 2116 1406 1581 1522
L 1381 1569
Q 847 1681 609 1914
Q 372 2147 372 2553
Q 372 3047 722 3315
Q 1072 3584 1716 3584
Q 2034 3584 2315 3537
Q 2597 3491 2834 3397
z
" transform="scale(0.015625)"/>
      <path id="DejaVuSans-58" d="M 544 1381
L 544 3500
L 1119 3500
L 1119 1403
Q 1119 906 1312 657
Q 1506 409 1894 409
Q 2359 409 2629 706
Q 2900 1003 2900 1516
L 2900 3500
L 3475 3500
L 3475 0
L 2900 0
L 2900 538
Q 2691 219 2414 64
Q 2138 -91 1772 -91
Q 1169 -91 856 284
Q 544 659 544 1381
z
M 1991 3584
L 1991 3584
z
" transform="scale(0.015625)"/>
     </defs>
     <use xlink:href="#DejaVuSans-45"/>
     <use xlink:href="#DejaVuSans-48" transform="translate(63.484375 0)"/>
     <use xlink:href="#DejaVuSans-4f" transform="translate(125.015625 0)"/>
     <use xlink:href="#DejaVuSans-52" transform="translate(152.796875 0)"/>
     <use xlink:href="#DejaVuSans-5a" transform="translate(213.984375 0)"/>
     <use xlink:href="#DejaVuSans-3" transform="translate(295.765625 0)"/>
     <use xlink:href="#DejaVuSans-47" transform="translate(327.546875 0)"/>
     <use xlink:href="#DejaVuSans-4c" transform="translate(391.03125 0)"/>
     <use xlink:href="#DejaVuSans-44" transform="translate(418.8125 0)"/>
     <use xlink:href="#DejaVuSans-4a" transform="translate(480.09375 0)"/>
     <use xlink:href="#DejaVuSans-52" transform="translate(543.578125 0)"/>
     <use xlink:href="#DejaVuSans-51" transform="translate(604.765625 0)"/>
     <use xlink:href="#DejaVuSans-44" transform="translate(668.140625 0)"/>
     <use xlink:href="#DejaVuSans-4f" transform="translate(729.421875 0)"/>
     <use xlink:href="#DejaVuSans-3" transform="translate(757.203125 0)"/>
     <use xlink:href="#DejaVuSans-20" transform="translate(788.984375 0)"/>
     <use xlink:href="#DejaVuSans-3" transform="translate(872.78125 0)"/>
     <use xlink:href="#DejaVuSans-55" transform="translate(904.5625 0)"/>
     <use xlink:href="#DejaVuSans-48" transform="translate(943.46875 0)"/>
     <use xlink:href="#DejaVuSans-56" transform="translate(1005 0)"/>
     <use xlink:href="#DejaVuSans-46" transform="translate(1057.09375 0)"/>
     <use xlink:href="#DejaVuSans-58" transform="translate(1112.078125 0)"/>
     <use xlink:href="#DejaVuSans-48" transform="translate(1175.453125 0)"/>
    </g>
   </g>
   <g id="text_20">
    <!-- a -->
    <g style="fill: #172033" transform="translate(24.664135 31.592869) scale(0.094 -0.094)">
     <use xlink:href="#DejaVuSans-Bold-44"/>
    </g>
   </g>
   <g id="text_21">
    <!-- Query-state patch -->
    <g style="fill: #172033" transform="translate(45.741266 34.597693) scale(0.096 -0.096)">
     <defs>
      <path id="DejaVuSans-Bold-34" d="M 2847 -84
L 2753 -84
Q 1600 -84 959 553
Q 319 1191 319 2328
Q 319 3463 958 4106
Q 1597 4750 2719 4750
Q 3853 4750 4486 4112
Q 5119 3475 5119 2328
Q 5119 1541 4783 972
Q 4447 403 3816 116
L 4756 -934
L 3609 -934
L 2847 -84
z
M 2719 3878
Q 2169 3878 1866 3472
Q 1563 3066 1563 2328
Q 1563 1578 1859 1179
Q 2156 781 2719 781
Q 3272 781 3575 1187
Q 3878 1594 3878 2328
Q 3878 3066 3575 3472
Q 3272 3878 2719 3878
z
" transform="scale(0.015625)"/>
      <path id="DejaVuSans-Bold-58" d="M 500 1363
L 500 3500
L 1625 3500
L 1625 3150
Q 1625 2866 1622 2436
Q 1619 2006 1619 1863
Q 1619 1441 1641 1255
Q 1663 1069 1716 984
Q 1784 875 1895 815
Q 2006 756 2150 756
Q 2500 756 2700 1025
Q 2900 1294 2900 1772
L 2900 3500
L 4019 3500
L 4019 0
L 2900 0
L 2900 506
Q 2647 200 2364 54
Q 2081 -91 1741 -91
Q 1134 -91 817 281
Q 500 653 500 1363
z
" transform="scale(0.015625)"/>
      <path id="DejaVuSans-Bold-55" d="M 3138 2547
Q 2991 2616 2845 2648
Q 2700 2681 2553 2681
Q 2122 2681 1889 2404
Q 1656 2128 1656 1613
L 1656 0
L 538 0
L 538 3500
L 1656 3500
L 1656 2925
Q 1872 3269 2151 3426
Q 2431 3584 2822 3584
Q 2878 3584 2943 3579
Q 3009 3575 3134 3559
L 3138 2547
z
" transform="scale(0.015625)"/>
      <path id="DejaVuSans-Bold-5c" d="M 78 3500
L 1197 3500
L 2138 1125
L 2938 3500
L 4056 3500
L 2584 -331
Q 2363 -916 2067 -1148
Q 1772 -1381 1288 -1381
L 641 -1381
L 641 -647
L 991 -647
Q 1275 -647 1404 -556
Q 1534 -466 1606 -231
L 1638 -134
L 78 3500
z
" transform="scale(0.015625)"/>
      <path id="DejaVuSans-Bold-10" d="M 347 2297
L 2309 2297
L 2309 1388
L 347 1388
L 347 2297
z
" transform="scale(0.015625)"/>
      <path id="DejaVuSans-Bold-56" d="M 3272 3391
L 3272 2541
Q 2913 2691 2578 2766
Q 2244 2841 1947 2841
Q 1628 2841 1473 2761
Q 1319 2681 1319 2516
Q 1319 2381 1436 2309
Q 1553 2238 1856 2203
L 2053 2175
Q 2913 2066 3209 1816
Q 3506 1566 3506 1031
Q 3506 472 3093 190
Q 2681 -91 1863 -91
Q 1516 -91 1145 -36
Q 775 19 384 128
L 384 978
Q 719 816 1070 734
Q 1422 653 1784 653
Q 2113 653 2278 743
Q 2444 834 2444 1013
Q 2444 1163 2330 1236
Q 2216 1309 1875 1350
L 1678 1375
Q 931 1469 631 1722
Q 331 1975 331 2491
Q 331 3047 712 3315
Q 1094 3584 1881 3584
Q 2191 3584 2531 3537
Q 2872 3491 3272 3391
z
" transform="scale(0.015625)"/>
      <path id="DejaVuSans-Bold-57" d="M 1759 4494
L 1759 3500
L 2913 3500
L 2913 2700
L 1759 2700
L 1759 1216
Q 1759 972 1856 886
Q 1953 800 2241 800
L 2816 800
L 2816 0
L 1856 0
Q 1194 0 917 276
Q 641 553 641 1216
L 641 2700
L 84 2700
L 84 3500
L 641 3500
L 641 4494
L 1759 4494
z
" transform="scale(0.015625)"/>
      <path id="DejaVuSans-Bold-46" d="M 3366 3391
L 3366 2478
Q 3138 2634 2908 2709
Q 2678 2784 2431 2784
Q 1963 2784 1702 2511
Q 1441 2238 1441 1747
Q 1441 1256 1702 982
Q 1963 709 2431 709
Q 2694 709 2930 787
Q 3166 866 3366 1019
L 3366 103
Q 3103 6 2833 -42
Q 2563 -91 2291 -91
Q 1344 -91 809 395
Q 275 881 275 1747
Q 275 2613 809 3098
Q 1344 3584 2291 3584
Q 2566 3584 2833 3536
Q 3100 3488 3366 3391
z
" transform="scale(0.015625)"/>
      <path id="DejaVuSans-Bold-4b" d="M 4056 2131
L 4056 0
L 2931 0
L 2931 347
L 2931 1625
Q 2931 2084 2911 2256
Q 2891 2428 2841 2509
Q 2775 2619 2662 2680
Q 2550 2741 2406 2741
Q 2056 2741 1856 2470
Q 1656 2200 1656 1722
L 1656 0
L 538 0
L 538 4863
L 1656 4863
L 1656 2988
Q 1909 3294 2193 3439
Q 2478 3584 2822 3584
Q 3428 3584 3742 3212
Q 4056 2841 4056 2131
z
" transform="scale(0.015625)"/>
     </defs>
     <use xlink:href="#DejaVuSans-Bold-34"/>
     <use xlink:href="#DejaVuSans-Bold-58" transform="translate(85.015625 0)"/>
     <use xlink:href="#DejaVuSans-Bold-48" transform="translate(156.203125 0)"/>
     <use xlink:href="#DejaVuSans-Bold-55" transform="translate(224.03125 0)"/>
     <use xlink:href="#DejaVuSans-Bold-5c" transform="translate(273.34375 0)"/>
     <use xlink:href="#DejaVuSans-Bold-10" transform="translate(338.53125 0)"/>
     <use xlink:href="#DejaVuSans-Bold-56" transform="translate(380.03125 0)"/>
     <use xlink:href="#DejaVuSans-Bold-57" transform="translate(439.546875 0)"/>
     <use xlink:href="#DejaVuSans-Bold-44" transform="translate(487.34375 0)"/>
     <use xlink:href="#DejaVuSans-Bold-57" transform="translate(554.828125 0)"/>
     <use xlink:href="#DejaVuSans-Bold-48" transform="translate(602.625 0)"/>
     <use xlink:href="#DejaVuSans-Bold-3" transform="translate(670.453125 0)"/>
     <use xlink:href="#DejaVuSans-Bold-53" transform="translate(705.265625 0)"/>
     <use xlink:href="#DejaVuSans-Bold-44" transform="translate(776.84375 0)"/>
     <use xlink:href="#DejaVuSans-Bold-57" transform="translate(844.328125 0)"/>
     <use xlink:href="#DejaVuSans-Bold-46" transform="translate(892.125 0)"/>
     <use xlink:href="#DejaVuSans-Bold-4b" transform="translate(951.40625 0)"/>
    </g>
   </g>
   <g id="PathCollection_2">
    <defs>
     <path id="m46acba8a61" d="M 0 -5
L -1.12257 -1.545085
L -4.755283 -1.545085
L -1.816356 0.59017
L -2.938926 4.045085
L -0 1.90983
L 2.938926 4.045085
L 1.816356 0.59017
L 4.755283 -1.545085
L 1.12257 -1.545085
z
" style="stroke: #172033; stroke-width: 0.6"/>
    </defs>
    <g clip-path="url(#pb24b71ce1e)">
     <use xlink:href="#m46acba8a61" x="113.251927" y="193.10239" style="fill: #d97706; stroke: #172033; stroke-width: 0.6"/>
    </g>
   </g>
  </g>
  <g id="axes_2">
   <g id="patch_5">
    <path d="M 307.009178 233.358271
L 541.19952 233.358271
L 541.19952 40.597693
L 307.009178 40.597693
z
" style="fill: #ffffff"/>
   </g>
   <g id="line2d_34">
    <path d="M 307.009178 233.358271
L 541.19952 40.597693
" clip-path="url(#p7f4053a656)" style="fill: none; stroke-dasharray: 3.7,1.6; stroke-dashoffset: 0; stroke: #9ca3af"/>
   </g>
   <g id="matplotlib.axis_3">
    <g id="xtick_9">
     <g id="line2d_35">
      <path d="M 310.777178 233.358271
L 310.777178 40.597693
" clip-path="url(#p7f4053a656)" style="fill: none; stroke: #e5e7eb; stroke-opacity: 0.9; stroke-width: 0.7; stroke-linecap: square"/>
     </g>
     <g id="line2d_36">
      <g>
       <use xlink:href="#m3eddaa08aa" x="310.777178" y="233.358271" style="fill: #4b5563; stroke: #4b5563; stroke-width: 0.8"/>
      </g>
     </g>
     <g id="text_22">
      <!-- −0.2 -->
      <g style="fill: #4b5563" transform="translate(301.306881 246.284443) scale(0.078 -0.078)">
       <use xlink:href="#DejaVuSans-c9c"/>
       <use xlink:href="#DejaVuSans-13" transform="translate(83.796875 0)"/>
       <use xlink:href="#DejaVuSans-11" transform="translate(147.421875 0)"/>
       <use xlink:href="#DejaVuSans-15" transform="translate(179.203125 0)"/>
      </g>
     </g>
    </g>
    <g id="xtick_10">
     <g id="line2d_37">
      <path d="M 340.114857 233.358271
L 340.114857 40.597693
" clip-path="url(#p7f4053a656)" style="fill: none; stroke: #e5e7eb; stroke-opacity: 0.9; stroke-width: 0.7; stroke-linecap: square"/>
     </g>
     <g id="line2d_38">
      <g>
       <use xlink:href="#m3eddaa08aa" x="340.114857" y="233.358271" style="fill: #4b5563; stroke: #4b5563; stroke-width: 0.8"/>
      </g>
     </g>
     <g id="text_23">
      <!-- 0.0 -->
      <g style="fill: #4b5563" transform="translate(333.912638 246.284443) scale(0.078 -0.078)">
       <use xlink:href="#DejaVuSans-13"/>
       <use xlink:href="#DejaVuSans-11" transform="translate(63.625 0)"/>
       <use xlink:href="#DejaVuSans-13" transform="translate(95.40625 0)"/>
      </g>
     </g>
    </g>
    <g id="xtick_11">
     <g id="line2d_39">
      <path d="M 369.452536 233.358271
L 369.452536 40.597693
" clip-path="url(#p7f4053a656)" style="fill: none; stroke: #e5e7eb; stroke-opacity: 0.9; stroke-width: 0.7; stroke-linecap: square"/>
     </g>
     <g id="line2d_40">
      <g>
       <use xlink:href="#m3eddaa08aa" x="369.452536" y="233.358271" style="fill: #4b5563; stroke: #4b5563; stroke-width: 0.8"/>
      </g>
     </g>
     <g id="text_24">
      <!-- 0.2 -->
      <g style="fill: #4b5563" transform="translate(363.250317 246.284443) scale(0.078 -0.078)">
       <use xlink:href="#DejaVuSans-13"/>
       <use xlink:href="#DejaVuSans-11" transform="translate(63.625 0)"/>
       <use xlink:href="#DejaVuSans-15" transform="translate(95.40625 0)"/>
      </g>
     </g>
    </g>
    <g id="xtick_12">
     <g id="line2d_41">
      <path d="M 398.790215 233.358271
L 398.790215 40.597693
" clip-path="url(#p7f4053a656)" style="fill: none; stroke: #e5e7eb; stroke-opacity: 0.9; stroke-width: 0.7; stroke-linecap: square"/>
     </g>
     <g id="line2d_42">
      <g>
       <use xlink:href="#m3eddaa08aa" x="398.790215" y="233.358271" style="fill: #4b5563; stroke: #4b5563; stroke-width: 0.8"/>
      </g>
     </g>
     <g id="text_25">
      <!-- 0.4 -->
      <g style="fill: #4b5563" transform="translate(392.587996 246.284443) scale(0.078 -0.078)">
       <use xlink:href="#DejaVuSans-13"/>
       <use xlink:href="#DejaVuSans-11" transform="translate(63.625 0)"/>
       <use xlink:href="#DejaVuSans-17" transform="translate(95.40625 0)"/>
      </g>
     </g>
    </g>
    <g id="xtick_13">
     <g id="line2d_43">
      <path d="M 428.127894 233.358271
L 428.127894 40.597693
" clip-path="url(#p7f4053a656)" style="fill: none; stroke: #e5e7eb; stroke-opacity: 0.9; stroke-width: 0.7; stroke-linecap: square"/>
     </g>
     <g id="line2d_44">
      <g>
       <use xlink:href="#m3eddaa08aa" x="428.127894" y="233.358271" style="fill: #4b5563; stroke: #4b5563; stroke-width: 0.8"/>
      </g>
     </g>
     <g id="text_26">
      <!-- 0.6 -->
      <g style="fill: #4b5563" transform="translate(421.925675 246.284443) scale(0.078 -0.078)">
       <use xlink:href="#DejaVuSans-13"/>
       <use xlink:href="#DejaVuSans-11" transform="translate(63.625 0)"/>
       <use xlink:href="#DejaVuSans-19" transform="translate(95.40625 0)"/>
      </g>
     </g>
    </g>
    <g id="xtick_14">
     <g id="line2d_45">
      <path d="M 457.465573 233.358271
L 457.465573 40.597693
" clip-path="url(#p7f4053a656)" style="fill: none; stroke: #e5e7eb; stroke-opacity: 0.9; stroke-width: 0.7; stroke-linecap: square"/>
     </g>
     <g id="line2d_46">
      <g>
       <use xlink:href="#m3eddaa08aa" x="457.465573" y="233.358271" style="fill: #4b5563; stroke: #4b5563; stroke-width: 0.8"/>
      </g>
     </g>
     <g id="text_27">
      <!-- 0.8 -->
      <g style="fill: #4b5563" transform="translate(451.263354 246.284443) scale(0.078 -0.078)">
       <use xlink:href="#DejaVuSans-13"/>
       <use xlink:href="#DejaVuSans-11" transform="translate(63.625 0)"/>
       <use xlink:href="#DejaVuSans-1b" transform="translate(95.40625 0)"/>
      </g>
     </g>
    </g>
    <g id="xtick_15">
     <g id="line2d_47">
      <path d="M 486.803252 233.358271
L 486.803252 40.597693
" clip-path="url(#p7f4053a656)" style="fill: none; stroke: #e5e7eb; stroke-opacity: 0.9; stroke-width: 0.7; stroke-linecap: square"/>
     </g>
     <g id="line2d_48">
      <g>
       <use xlink:href="#m3eddaa08aa" x="486.803252" y="233.358271" style="fill: #4b5563; stroke: #4b5563; stroke-width: 0.8"/>
      </g>
     </g>
     <g id="text_28">
      <!-- 1.0 -->
      <g style="fill: #4b5563" transform="translate(480.601034 246.284443) scale(0.078 -0.078)">
       <use xlink:href="#DejaVuSans-14"/>
       <use xlink:href="#DejaVuSans-11" transform="translate(63.625 0)"/>
       <use xlink:href="#DejaVuSans-13" transform="translate(95.40625 0)"/>
      </g>
     </g>
    </g>
    <g id="xtick_16">
     <g id="line2d_49">
      <path d="M 516.140931 233.358271
L 516.140931 40.597693
" clip-path="url(#p7f4053a656)" style="fill: none; stroke: #e5e7eb; stroke-opacity: 0.9; stroke-width: 0.7; stroke-linecap: square"/>
     </g>
     <g id="line2d_50">
      <g>
       <use xlink:href="#m3eddaa08aa" x="516.140931" y="233.358271" style="fill: #4b5563; stroke: #4b5563; stroke-width: 0.8"/>
      </g>
     </g>
     <g id="text_29">
      <!-- 1.2 -->
      <g style="fill: #4b5563" transform="translate(509.938713 246.284443) scale(0.078 -0.078)">
       <use xlink:href="#DejaVuSans-14"/>
       <use xlink:href="#DejaVuSans-11" transform="translate(63.625 0)"/>
       <use xlink:href="#DejaVuSans-15" transform="translate(95.40625 0)"/>
      </g>
     </g>
    </g>
   </g>
   <g id="matplotlib.axis_4">
    <g id="ytick_9">
     <g id="line2d_51">
      <path d="M 307.009178 230.256854
L 541.19952 230.256854
" clip-path="url(#p7f4053a656)" style="fill: none; stroke: #e5e7eb; stroke-opacity: 0.9; stroke-width: 0.7; stroke-linecap: square"/>
     </g>
     <g id="line2d_52">
      <g>
       <use xlink:href="#m9c7b1d5a88" x="307.009178" y="230.256854" style="fill: #4b5563; stroke: #4b5563; stroke-width: 0.8"/>
      </g>
     </g>
    </g>
    <g id="ytick_10">
     <g id="line2d_53">
      <path d="M 307.009178 206.109198
L 541.19952 206.109198
" clip-path="url(#p7f4053a656)" style="fill: none; stroke: #e5e7eb; stroke-opacity: 0.9; stroke-width: 0.7; stroke-linecap: square"/>
     </g>
     <g id="line2d_54">
      <g>
       <use xlink:href="#m9c7b1d5a88" x="307.009178" y="206.109198" style="fill: #4b5563; stroke: #4b5563; stroke-width: 0.8"/>
      </g>
     </g>
    </g>
    <g id="ytick_11">
     <g id="line2d_55">
      <path d="M 307.009178 181.961541
L 541.19952 181.961541
" clip-path="url(#p7f4053a656)" style="fill: none; stroke: #e5e7eb; stroke-opacity: 0.9; stroke-width: 0.7; stroke-linecap: square"/>
     </g>
     <g id="line2d_56">
      <g>
       <use xlink:href="#m9c7b1d5a88" x="307.009178" y="181.961541" style="fill: #4b5563; stroke: #4b5563; stroke-width: 0.8"/>
      </g>
     </g>
    </g>
    <g id="ytick_12">
     <g id="line2d_57">
      <path d="M 307.009178 157.813884
L 541.19952 157.813884
" clip-path="url(#p7f4053a656)" style="fill: none; stroke: #e5e7eb; stroke-opacity: 0.9; stroke-width: 0.7; stroke-linecap: square"/>
     </g>
     <g id="line2d_58">
      <g>
       <use xlink:href="#m9c7b1d5a88" x="307.009178" y="157.813884" style="fill: #4b5563; stroke: #4b5563; stroke-width: 0.8"/>
      </g>
     </g>
    </g>
    <g id="ytick_13">
     <g id="line2d_59">
      <path d="M 307.009178 133.666228
L 541.19952 133.666228
" clip-path="url(#p7f4053a656)" style="fill: none; stroke: #e5e7eb; stroke-opacity: 0.9; stroke-width: 0.7; stroke-linecap: square"/>
     </g>
     <g id="line2d_60">
      <g>
       <use xlink:href="#m9c7b1d5a88" x="307.009178" y="133.666228" style="fill: #4b5563; stroke: #4b5563; stroke-width: 0.8"/>
      </g>
     </g>
    </g>
    <g id="ytick_14">
     <g id="line2d_61">
      <path d="M 307.009178 109.518571
L 541.19952 109.518571
" clip-path="url(#p7f4053a656)" style="fill: none; stroke: #e5e7eb; stroke-opacity: 0.9; stroke-width: 0.7; stroke-linecap: square"/>
     </g>
     <g id="line2d_62">
      <g>
       <use xlink:href="#m9c7b1d5a88" x="307.009178" y="109.518571" style="fill: #4b5563; stroke: #4b5563; stroke-width: 0.8"/>
      </g>
     </g>
    </g>
    <g id="ytick_15">
     <g id="line2d_63">
      <path d="M 307.009178 85.370914
L 541.19952 85.370914
" clip-path="url(#p7f4053a656)" style="fill: none; stroke: #e5e7eb; stroke-opacity: 0.9; stroke-width: 0.7; stroke-linecap: square"/>
     </g>
     <g id="line2d_64">
      <g>
       <use xlink:href="#m9c7b1d5a88" x="307.009178" y="85.370914" style="fill: #4b5563; stroke: #4b5563; stroke-width: 0.8"/>
      </g>
     </g>
    </g>
    <g id="ytick_16">
     <g id="line2d_65">
      <path d="M 307.009178 61.223257
L 541.19952 61.223257
" clip-path="url(#p7f4053a656)" style="fill: none; stroke: #e5e7eb; stroke-opacity: 0.9; stroke-width: 0.7; stroke-linecap: square"/>
     </g>
     <g id="line2d_66">
      <g>
       <use xlink:href="#m9c7b1d5a88" x="307.009178" y="61.223257" style="fill: #4b5563; stroke: #4b5563; stroke-width: 0.8"/>
      </g>
     </g>
    </g>
   </g>
   <g id="PathCollection_3">
    <defs>
     <path id="m03a85fc125" d="M 0 2.738613
C 0.726289 2.738613 1.422928 2.450055 1.936492 1.936492
C 2.450055 1.422928 2.738613 0.726289 2.738613 0
C 2.738613 -0.726289 2.450055 -1.422928 1.936492 -1.936492
C 1.422928 -2.450055 0.726289 -2.738613 0 -2.738613
C -0.726289 -2.738613 -1.422928 -2.450055 -1.936492 -1.936492
C -2.450055 -1.422928 -2.738613 -0.726289 -2.738613 0
C -2.738613 0.726289 -2.450055 1.422928 -1.936492 1.936492
C -1.422928 2.450055 -0.726289 2.738613 0 2.738613
z
" style="stroke: #ffffff; stroke-opacity: 0.78; stroke-width: 0.45"/>
    </defs>
    <g clip-path="url(#p7f4053a656)">
     <use xlink:href="#m03a85fc125" x="345.420997" y="201.812217" style="fill: #6b7280; fill-opacity: 0.78; stroke: #ffffff; stroke-opacity: 0.78; stroke-width: 0.45"/>
     <use xlink:href="#m03a85fc125" x="449.16869" y="112.415711" style="fill: #6b7280; fill-opacity: 0.78; stroke: #ffffff; stroke-opacity: 0.78; stroke-width: 0.45"/>
     <use xlink:href="#m03a85fc125" x="342.058529" y="204.404591" style="fill: #6b7280; fill-opacity: 0.78; stroke: #ffffff; stroke-opacity: 0.78; stroke-width: 0.45"/>
     <use xlink:href="#m03a85fc125" x="347.391529" y="199.593833" style="fill: #6b7280; fill-opacity: 0.78; stroke: #ffffff; stroke-opacity: 0.78; stroke-width: 0.45"/>
     <use xlink:href="#m03a85fc125" x="442.746204" y="113.244755" style="fill: #6b7280; fill-opacity: 0.78; stroke: #ffffff; stroke-opacity: 0.78; stroke-width: 0.45"/>
     <use xlink:href="#m03a85fc125" x="345.020063" y="201.199645" style="fill: #6b7280; fill-opacity: 0.78; stroke: #ffffff; stroke-opacity: 0.78; stroke-width: 0.45"/>
     <use xlink:href="#m03a85fc125" x="340.369462" y="205.90424" style="fill: #6b7280; fill-opacity: 0.78; stroke: #ffffff; stroke-opacity: 0.78; stroke-width: 0.45"/>
     <use xlink:href="#m03a85fc125" x="359.539273" y="178.896289" style="fill: #6b7280; fill-opacity: 0.78; stroke: #ffffff; stroke-opacity: 0.78; stroke-width: 0.45"/>
     <use xlink:href="#m03a85fc125" x="457.405587" y="118.081536" style="fill: #6b7280; fill-opacity: 0.78; stroke: #ffffff; stroke-opacity: 0.78; stroke-width: 0.45"/>
     <use xlink:href="#m03a85fc125" x="340.728707" y="205.511365" style="fill: #6b7280; fill-opacity: 0.78; stroke: #ffffff; stroke-opacity: 0.78; stroke-width: 0.45"/>
     <use xlink:href="#m03a85fc125" x="356.299912" y="193.713148" style="fill: #6b7280; fill-opacity: 0.78; stroke: #ffffff; stroke-opacity: 0.78; stroke-width: 0.45"/>
     <use xlink:href="#m03a85fc125" x="529.464448" y="50.270573" style="fill: #6b7280; fill-opacity: 0.78; stroke: #ffffff; stroke-opacity: 0.78; stroke-width: 0.45"/>
     <use xlink:href="#m03a85fc125" x="349.890017" y="200.463638" style="fill: #6b7280; fill-opacity: 0.78; stroke: #ffffff; stroke-opacity: 0.78; stroke-width: 0.45"/>
     <use xlink:href="#m03a85fc125" x="340.192637" y="206.035966" style="fill: #6b7280; fill-opacity: 0.78; stroke: #ffffff; stroke-opacity: 0.78; stroke-width: 0.45"/>
     <use xlink:href="#m03a85fc125" x="464.765355" y="93.004797" style="fill: #6b7280; fill-opacity: 0.78; stroke: #ffffff; stroke-opacity: 0.78; stroke-width: 0.45"/>
     <use xlink:href="#m03a85fc125" x="390.632441" y="172.797749" style="fill: #6b7280; fill-opacity: 0.78; stroke: #ffffff; stroke-opacity: 0.78; stroke-width: 0.45"/>
     <use xlink:href="#m03a85fc125" x="330.315635" y="215.301914" style="fill: #6b7280; fill-opacity: 0.78; stroke: #ffffff; stroke-opacity: 0.78; stroke-width: 0.45"/>
     <use xlink:href="#m03a85fc125" x="383.365842" y="169.032968" style="fill: #6b7280; fill-opacity: 0.78; stroke: #ffffff; stroke-opacity: 0.78; stroke-width: 0.45"/>
     <use xlink:href="#m03a85fc125" x="340.140037" y="206.079721" style="fill: #6b7280; fill-opacity: 0.78; stroke: #ffffff; stroke-opacity: 0.78; stroke-width: 0.45"/>
     <use xlink:href="#m03a85fc125" x="344.042771" y="201.134934" style="fill: #6b7280; fill-opacity: 0.78; stroke: #ffffff; stroke-opacity: 0.78; stroke-width: 0.45"/>
     <use xlink:href="#m03a85fc125" x="344.696071" y="203.330519" style="fill: #6b7280; fill-opacity: 0.78; stroke: #ffffff; stroke-opacity: 0.78; stroke-width: 0.45"/>
     <use xlink:href="#m03a85fc125" x="340.115976" y="206.108277" style="fill: #6b7280; fill-opacity: 0.78; stroke: #ffffff; stroke-opacity: 0.78; stroke-width: 0.45"/>
     <use xlink:href="#m03a85fc125" x="343.414092" y="202.647018" style="fill: #6b7280; fill-opacity: 0.78; stroke: #ffffff; stroke-opacity: 0.78; stroke-width: 0.45"/>
     <use xlink:href="#m03a85fc125" x="361.291852" y="184.166706" style="fill: #6b7280; fill-opacity: 0.78; stroke: #ffffff; stroke-opacity: 0.78; stroke-width: 0.45"/>
    </g>
   </g>
   <g id="patch_6">
    <path d="M 307.009178 233.358271
L 307.009178 40.597693
" style="fill: none; stroke: #9ca3af; stroke-width: 0.8; stroke-linejoin: miter; stroke-linecap: square"/>
   </g>
   <g id="patch_7">
    <path d="M 307.009178 233.358271
L 541.19952 233.358271
" style="fill: none; stroke: #9ca3af; stroke-width: 0.8; stroke-linejoin: miter; stroke-linecap: square"/>
   </g>
   <g id="text_30">
    <!-- pooled change −3% -->
    <g style="fill: #6b7280" transform="translate(314.034888 57.786171) scale(0.074 -0.074)">
     <defs>
      <path id="DejaVuSans-Bold-51" d="M 4056 2131
L 4056 0
L 2931 0
L 2931 347
L 2931 1631
Q 2931 2084 2911 2256
Q 2891 2428 2841 2509
Q 2775 2619 2662 2680
Q 2550 2741 2406 2741
Q 2056 2741 1856 2470
Q 1656 2200 1656 1722
L 1656 0
L 538 0
L 538 3500
L 1656 3500
L 1656 2988
Q 1909 3294 2193 3439
Q 2478 3584 2822 3584
Q 3428 3584 3742 3212
Q 4056 2841 4056 2131
z
" transform="scale(0.015625)"/>
      <path id="DejaVuSans-Bold-c9c" d="M 678 2375
L 4684 2375
L 4684 1638
L 678 1638
L 678 2375
z
" transform="scale(0.015625)"/>
      <path id="DejaVuSans-Bold-16" d="M 2981 2516
Q 3453 2394 3698 2092
Q 3944 1791 3944 1325
Q 3944 631 3412 270
Q 2881 -91 1863 -91
Q 1503 -91 1142 -33
Q 781 25 428 141
L 428 1069
Q 766 900 1098 814
Q 1431 728 1753 728
Q 2231 728 2486 893
Q 2741 1059 2741 1369
Q 2741 1688 2480 1852
Q 2219 2016 1709 2016
L 1228 2016
L 1228 2791
L 1734 2791
Q 2188 2791 2409 2933
Q 2631 3075 2631 3366
Q 2631 3634 2415 3781
Q 2200 3928 1806 3928
Q 1516 3928 1219 3862
Q 922 3797 628 3669
L 628 4550
Q 984 4650 1334 4700
Q 1684 4750 2022 4750
Q 2931 4750 3382 4451
Q 3834 4153 3834 3553
Q 3834 3144 3618 2883
Q 3403 2622 2981 2516
z
" transform="scale(0.015625)"/>
     </defs>
     <use xlink:href="#DejaVuSans-Bold-53"/>
     <use xlink:href="#DejaVuSans-Bold-52" transform="translate(71.578125 0)"/>
     <use xlink:href="#DejaVuSans-Bold-52" transform="translate(140.28125 0)"/>
     <use xlink:href="#DejaVuSans-Bold-4f" transform="translate(208.984375 0)"/>
     <use xlink:href="#DejaVuSans-Bold-48" transform="translate(243.265625 0)"/>
     <use xlink:href="#DejaVuSans-Bold-47" transform="translate(311.09375 0)"/>
     <use xlink:href="#DejaVuSans-Bold-3" transform="translate(382.671875 0)"/>
     <use xlink:href="#DejaVuSans-Bold-46" transform="translate(417.484375 0)"/>
     <use xlink:href="#DejaVuSans-Bold-4b" transform="translate(476.765625 0)"/>
     <use xlink:href="#DejaVuSans-Bold-44" transform="translate(547.953125 0)"/>
     <use xlink:href="#DejaVuSans-Bold-51" transform="translate(615.4375 0)"/>
     <use xlink:href="#DejaVuSans-Bold-4a" transform="translate(686.625 0)"/>
     <use xlink:href="#DejaVuSans-Bold-48" transform="translate(758.203125 0)"/>
     <use xlink:href="#DejaVuSans-Bold-3" transform="translate(826.03125 0)"/>
     <use xlink:href="#DejaVuSans-Bold-c9c" transform="translate(860.84375 0)"/>
     <use xlink:href="#DejaVuSans-Bold-16" transform="translate(944.640625 0)"/>
     <use xlink:href="#DejaVuSans-Bold-8" transform="translate(1014.21875 0)"/>
    </g>
   </g>
   <g id="text_31">
    <!-- b -->
    <g style="fill: #172033" transform="translate(285.932047 31.592869) scale(0.094 -0.094)">
     <defs>
      <path id="DejaVuSans-Bold-45" d="M 2400 722
Q 2759 722 2948 984
Q 3138 1247 3138 1747
Q 3138 2247 2948 2509
Q 2759 2772 2400 2772
Q 2041 2772 1848 2508
Q 1656 2244 1656 1747
Q 1656 1250 1848 986
Q 2041 722 2400 722
z
M 1656 2988
Q 1888 3294 2169 3439
Q 2450 3584 2816 3584
Q 3463 3584 3878 3070
Q 4294 2556 4294 1747
Q 4294 938 3878 423
Q 3463 -91 2816 -91
Q 2450 -91 2169 54
Q 1888 200 1656 506
L 1656 0
L 538 0
L 538 4863
L 1656 4863
L 1656 2988
z
" transform="scale(0.015625)"/>
     </defs>
     <use xlink:href="#DejaVuSans-Bold-45"/>
    </g>
   </g>
   <g id="text_32">
    <!-- Seeded sham patch -->
    <g style="fill: #172033" transform="translate(307.009178 34.597693) scale(0.096 -0.096)">
     <defs>
      <path id="DejaVuSans-Bold-36" d="M 3834 4519
L 3834 3531
Q 3450 3703 3084 3790
Q 2719 3878 2394 3878
Q 1963 3878 1756 3759
Q 1550 3641 1550 3391
Q 1550 3203 1689 3098
Q 1828 2994 2194 2919
L 2706 2816
Q 3484 2659 3812 2340
Q 4141 2022 4141 1434
Q 4141 663 3683 286
Q 3225 -91 2284 -91
Q 1841 -91 1394 -6
Q 947 78 500 244
L 500 1259
Q 947 1022 1364 901
Q 1781 781 2169 781
Q 2563 781 2772 912
Q 2981 1044 2981 1288
Q 2981 1506 2839 1625
Q 2697 1744 2272 1838
L 1806 1941
Q 1106 2091 782 2419
Q 459 2747 459 3303
Q 459 4000 909 4375
Q 1359 4750 2203 4750
Q 2588 4750 2994 4692
Q 3400 4634 3834 4519
z
" transform="scale(0.015625)"/>
     </defs>
     <use xlink:href="#DejaVuSans-Bold-36"/>
     <use xlink:href="#DejaVuSans-Bold-48" transform="translate(72.015625 0)"/>
     <use xlink:href="#DejaVuSans-Bold-48" transform="translate(139.84375 0)"/>
     <use xlink:href="#DejaVuSans-Bold-47" transform="translate(207.671875 0)"/>
     <use xlink:href="#DejaVuSans-Bold-48" transform="translate(279.25 0)"/>
     <use xlink:href="#DejaVuSans-Bold-47" transform="translate(347.078125 0)"/>
     <use xlink:href="#DejaVuSans-Bold-3" transform="translate(418.65625 0)"/>
     <use xlink:href="#DejaVuSans-Bold-56" transform="translate(453.46875 0)"/>
     <use xlink:href="#DejaVuSans-Bold-4b" transform="translate(512.984375 0)"/>
     <use xlink:href="#DejaVuSans-Bold-44" transform="translate(584.171875 0)"/>
     <use xlink:href="#DejaVuSans-Bold-50" transform="translate(651.65625 0)"/>
     <use xlink:href="#DejaVuSans-Bold-3" transform="translate(755.859375 0)"/>
     <use xlink:href="#DejaVuSans-Bold-53" transform="translate(790.671875 0)"/>
     <use xlink:href="#DejaVuSans-Bold-44" transform="translate(862.25 0)"/>
     <use xlink:href="#DejaVuSans-Bold-57" transform="translate(929.734375 0)"/>
     <use xlink:href="#DejaVuSans-Bold-46" transform="translate(977.53125 0)"/>
     <use xlink:href="#DejaVuSans-Bold-4b" transform="translate(1036.8125 0)"/>
    </g>
   </g>
   <g id="PathCollection_4">
    <g clip-path="url(#p7f4053a656)">
     <use xlink:href="#m46acba8a61" x="374.519839" y="176.881338" style="fill: #d97706; stroke: #172033; stroke-width: 0.6"/>
    </g>
   </g>
  </g>
  <g id="text_33">
   <!-- Damage without patch at the 24 registered query tokens (ΔNLL) -->
   <g transform="translate(115.792673 261.635614) scale(0.0984 -0.0984)">
    <defs>
     <path id="DejaVuSans-54" d="M 947 1747
Q 947 1113 1208 752
Q 1469 391 1925 391
Q 2381 391 2643 752
Q 2906 1113 2906 1747
Q 2906 2381 2643 2742
Q 2381 3103 1925 3103
Q 1469 3103 1208 2742
Q 947 2381 947 1747
z
M 2906 525
Q 2725 213 2448 61
Q 2172 -91 1784 -91
Q 1150 -91 751 415
Q 353 922 353 1747
Q 353 2572 751 3078
Q 1150 3584 1784 3584
Q 2172 3584 2448 3432
Q 2725 3281 2906 2969
L 2906 3500
L 3481 3500
L 3481 -1331
L 2906 -1331
L 2906 525
z
" transform="scale(0.015625)"/>
     <path id="DejaVuSans-5c" d="M 2059 -325
Q 1816 -950 1584 -1140
Q 1353 -1331 966 -1331
L 506 -1331
L 506 -850
L 844 -850
Q 1081 -850 1212 -737
Q 1344 -625 1503 -206
L 1606 56
L 191 3500
L 800 3500
L 1894 763
L 2988 3500
L 3597 3500
L 2059 -325
z
" transform="scale(0.015625)"/>
     <path id="DejaVuSans-4e" d="M 581 4863
L 1159 4863
L 1159 1991
L 2875 3500
L 3609 3500
L 1753 1863
L 3688 0
L 2938 0
L 1159 1709
L 1159 0
L 581 0
L 581 4863
z
" transform="scale(0.015625)"/>
    </defs>
    <use xlink:href="#DejaVuSans-27"/>
    <use xlink:href="#DejaVuSans-44" transform="translate(77 0)"/>
    <use xlink:href="#DejaVuSans-50" transform="translate(138.28125 0)"/>
    <use xlink:href="#DejaVuSans-44" transform="translate(235.6875 0)"/>
    <use xlink:href="#DejaVuSans-4a" transform="translate(296.96875 0)"/>
    <use xlink:href="#DejaVuSans-48" transform="translate(360.453125 0)"/>
    <use xlink:href="#DejaVuSans-3" transform="translate(421.984375 0)"/>
    <use xlink:href="#DejaVuSans-5a" transform="translate(453.765625 0)"/>
    <use xlink:href="#DejaVuSans-4c" transform="translate(535.546875 0)"/>
    <use xlink:href="#DejaVuSans-57" transform="translate(563.328125 0)"/>
    <use xlink:href="#DejaVuSans-4b" transform="translate(602.53125 0)"/>
    <use xlink:href="#DejaVuSans-52" transform="translate(665.90625 0)"/>
    <use xlink:href="#DejaVuSans-58" transform="translate(727.09375 0)"/>
    <use xlink:href="#DejaVuSans-57" transform="translate(790.46875 0)"/>
    <use xlink:href="#DejaVuSans-3" transform="translate(829.671875 0)"/>
    <use xlink:href="#DejaVuSans-53" transform="translate(861.453125 0)"/>
    <use xlink:href="#DejaVuSans-44" transform="translate(924.9375 0)"/>
    <use xlink:href="#DejaVuSans-57" transform="translate(986.21875 0)"/>
    <use xlink:href="#DejaVuSans-46" transform="translate(1025.421875 0)"/>
    <use xlink:href="#DejaVuSans-4b" transform="translate(1080.40625 0)"/>
    <use xlink:href="#DejaVuSans-3" transform="translate(1143.78125 0)"/>
    <use xlink:href="#DejaVuSans-44" transform="translate(1175.5625 0)"/>
    <use xlink:href="#DejaVuSans-57" transform="translate(1236.84375 0)"/>
    <use xlink:href="#DejaVuSans-3" transform="translate(1276.046875 0)"/>
    <use xlink:href="#DejaVuSans-57" transform="translate(1307.828125 0)"/>
    <use xlink:href="#DejaVuSans-4b" transform="translate(1347.03125 0)"/>
    <use xlink:href="#DejaVuSans-48" transform="translate(1410.40625 0)"/>
    <use xlink:href="#DejaVuSans-3" transform="translate(1471.9375 0)"/>
    <use xlink:href="#DejaVuSans-15" transform="translate(1503.71875 0)"/>
    <use xlink:href="#DejaVuSans-17" transform="translate(1567.34375 0)"/>
    <use xlink:href="#DejaVuSans-3" transform="translate(1630.96875 0)"/>
    <use xlink:href="#DejaVuSans-55" transform="translate(1662.75 0)"/>
    <use xlink:href="#DejaVuSans-48" transform="translate(1701.65625 0)"/>
    <use xlink:href="#DejaVuSans-4a" transform="translate(1763.1875 0)"/>
    <use xlink:href="#DejaVuSans-4c" transform="translate(1826.671875 0)"/>
    <use xlink:href="#DejaVuSans-56" transform="translate(1854.453125 0)"/>
    <use xlink:href="#DejaVuSans-57" transform="translate(1906.546875 0)"/>
    <use xlink:href="#DejaVuSans-48" transform="translate(1945.75 0)"/>
    <use xlink:href="#DejaVuSans-55" transform="translate(2007.28125 0)"/>
    <use xlink:href="#DejaVuSans-48" transform="translate(2046.1875 0)"/>
    <use xlink:href="#DejaVuSans-47" transform="translate(2107.71875 0)"/>
    <use xlink:href="#DejaVuSans-3" transform="translate(2171.203125 0)"/>
    <use xlink:href="#DejaVuSans-54" transform="translate(2202.984375 0)"/>
    <use xlink:href="#DejaVuSans-58" transform="translate(2266.46875 0)"/>
    <use xlink:href="#DejaVuSans-48" transform="translate(2329.84375 0)"/>
    <use xlink:href="#DejaVuSans-55" transform="translate(2391.375 0)"/>
    <use xlink:href="#DejaVuSans-5c" transform="translate(2432.484375 0)"/>
    <use xlink:href="#DejaVuSans-3" transform="translate(2491.671875 0)"/>
    <use xlink:href="#DejaVuSans-57" transform="translate(2523.453125 0)"/>
    <use xlink:href="#DejaVuSans-52" transform="translate(2562.65625 0)"/>
    <use xlink:href="#DejaVuSans-4e" transform="translate(2623.84375 0)"/>
    <use xlink:href="#DejaVuSans-48" transform="translate(2678.1875 0)"/>
    <use xlink:href="#DejaVuSans-51" transform="translate(2739.71875 0)"/>
    <use xlink:href="#DejaVuSans-56" transform="translate(2803.09375 0)"/>
    <use xlink:href="#DejaVuSans-3" transform="translate(2855.1875 0)"/>
    <use xlink:href="#DejaVuSans-b" transform="translate(2886.96875 0)"/>
    <use xlink:href="#DejaVuSans-329" transform="translate(2925.984375 0)"/>
    <use xlink:href="#DejaVuSans-31" transform="translate(2994.390625 0)"/>
    <use xlink:href="#DejaVuSans-2f" transform="translate(3069.203125 0)"/>
    <use xlink:href="#DejaVuSans-2f" transform="translate(3124.921875 0)"/>
    <use xlink:href="#DejaVuSans-c" transform="translate(3180.640625 0)"/>
   </g>
  </g>
  <g id="text_34">
   <!-- F7-5b | Query-state patching moves damaged tokens toward baseline; sham patching does not -->
   <g transform="translate(9.59976 15.75925) scale(0.112 -0.112)">
    <defs>
     <path id="DejaVuSans-Bold-29" d="M 588 4666
L 3834 4666
L 3834 3756
L 1791 3756
L 1791 2888
L 3713 2888
L 3713 1978
L 1791 1978
L 1791 0
L 588 0
L 588 4666
z
" transform="scale(0.015625)"/>
     <path id="DejaVuSans-Bold-1a" d="M 428 4666
L 3944 4666
L 3944 3988
L 2125 0
L 953 0
L 2675 3781
L 428 3781
L 428 4666
z
" transform="scale(0.015625)"/>
     <path id="DejaVuSans-Bold-5f" d="M 1522 4891
L 1522 -1509
L 813 -1509
L 813 4891
L 1522 4891
z
" transform="scale(0.015625)"/>
     <path id="DejaVuSans-Bold-4c" d="M 538 3500
L 1656 3500
L 1656 0
L 538 0
L 538 3500
z
M 538 4863
L 1656 4863
L 1656 3950
L 538 3950
L 538 4863
z
" transform="scale(0.015625)"/>
     <path id="DejaVuSans-Bold-59" d="M 97 3500
L 1216 3500
L 2088 1081
L 2956 3500
L 4078 3500
L 2700 0
L 1472 0
L 97 3500
z
" transform="scale(0.015625)"/>
     <path id="DejaVuSans-Bold-4e" d="M 538 4863
L 1656 4863
L 1656 2216
L 2944 3500
L 4244 3500
L 2534 1894
L 4378 0
L 3022 0
L 1656 1459
L 1656 0
L 538 0
L 538 4863
z
" transform="scale(0.015625)"/>
     <path id="DejaVuSans-Bold-5a" d="M 225 3500
L 1313 3500
L 1900 1088
L 2491 3500
L 3425 3500
L 4013 1113
L 4603 3500
L 5691 3500
L 4769 0
L 3547 0
L 2956 2406
L 2369 0
L 1147 0
L 225 3500
z
" transform="scale(0.015625)"/>
     <path id="DejaVuSans-Bold-1e" d="M 716 1209
L 1844 1209
L 1844 256
L 1069 -909
L 403 -909
L 716 256
L 716 1209
z
M 716 3500
L 1844 3500
L 1844 2291
L 716 2291
L 716 3500
z
" transform="scale(0.015625)"/>
    </defs>
    <use xlink:href="#DejaVuSans-Bold-29"/>
    <use xlink:href="#DejaVuSans-Bold-1a" transform="translate(68.3125 0)"/>
    <use xlink:href="#DejaVuSans-Bold-10" transform="translate(137.890625 0)"/>
    <use xlink:href="#DejaVuSans-Bold-18" transform="translate(179.390625 0)"/>
    <use xlink:href="#DejaVuSans-Bold-45" transform="translate(248.96875 0)"/>
    <use xlink:href="#DejaVuSans-Bold-3" transform="translate(320.546875 0)"/>
    <use xlink:href="#DejaVuSans-Bold-5f" transform="translate(355.359375 0)"/>
    <use xlink:href="#DejaVuSans-Bold-3" transform="translate(391.890625 0)"/>
    <use xlink:href="#DejaVuSans-Bold-34" transform="translate(426.703125 0)"/>
    <use xlink:href="#DejaVuSans-Bold-58" transform="translate(511.71875 0)"/>
    <use xlink:href="#DejaVuSans-Bold-48" transform="translate(582.90625 0)"/>
    <use xlink:href="#DejaVuSans-Bold-55" transform="translate(650.734375 0)"/>
    <use xlink:href="#DejaVuSans-Bold-5c" transform="translate(700.046875 0)"/>
    <use xlink:href="#DejaVuSans-Bold-10" transform="translate(765.234375 0)"/>
    <use xlink:href="#DejaVuSans-Bold-56" transform="translate(806.734375 0)"/>
    <use xlink:href="#DejaVuSans-Bold-57" transform="translate(866.25 0)"/>
    <use xlink:href="#DejaVuSans-Bold-44" transform="translate(914.046875 0)"/>
    <use xlink:href="#DejaVuSans-Bold-57" transform="translate(981.53125 0)"/>
    <use xlink:href="#DejaVuSans-Bold-48" transform="translate(1029.328125 0)"/>
    <use xlink:href="#DejaVuSans-Bold-3" transform="translate(1097.15625 0)"/>
    <use xlink:href="#DejaVuSans-Bold-53" transform="translate(1131.96875 0)"/>
    <use xlink:href="#DejaVuSans-Bold-44" transform="translate(1203.546875 0)"/>
    <use xlink:href="#DejaVuSans-Bold-57" transform="translate(1271.03125 0)"/>
    <use xlink:href="#DejaVuSans-Bold-46" transform="translate(1318.828125 0)"/>
    <use xlink:href="#DejaVuSans-Bold-4b" transform="translate(1378.109375 0)"/>
    <use xlink:href="#DejaVuSans-Bold-4c" transform="translate(1449.296875 0)"/>
    <use xlink:href="#DejaVuSans-Bold-51" transform="translate(1483.578125 0)"/>
    <use xlink:href="#DejaVuSans-Bold-4a" transform="translate(1554.765625 0)"/>
    <use xlink:href="#DejaVuSans-Bold-3" transform="translate(1626.34375 0)"/>
    <use xlink:href="#DejaVuSans-Bold-50" transform="translate(1661.15625 0)"/>
    <use xlink:href="#DejaVuSans-Bold-52" transform="translate(1765.359375 0)"/>
    <use xlink:href="#DejaVuSans-Bold-59" transform="translate(1834.0625 0)"/>
    <use xlink:href="#DejaVuSans-Bold-48" transform="translate(1899.25 0)"/>
    <use xlink:href="#DejaVuSans-Bold-56" transform="translate(1967.078125 0)"/>
    <use xlink:href="#DejaVuSans-Bold-3" transform="translate(2026.59375 0)"/>
    <use xlink:href="#DejaVuSans-Bold-47" transform="translate(2061.40625 0)"/>
    <use xlink:href="#DejaVuSans-Bold-44" transform="translate(2132.984375 0)"/>
    <use xlink:href="#DejaVuSans-Bold-50" transform="translate(2200.46875 0)"/>
    <use xlink:href="#DejaVuSans-Bold-44" transform="translate(2304.671875 0)"/>
    <use xlink:href="#DejaVuSans-Bold-4a" transform="translate(2372.15625 0)"/>
    <use xlink:href="#DejaVuSans-Bold-48" transform="translate(2443.734375 0)"/>
    <use xlink:href="#DejaVuSans-Bold-47" transform="translate(2511.5625 0)"/>
    <use xlink:href="#DejaVuSans-Bold-3" transform="translate(2583.140625 0)"/>
    <use xlink:href="#DejaVuSans-Bold-57" transform="translate(2617.953125 0)"/>
    <use xlink:href="#DejaVuSans-Bold-52" transform="translate(2665.75 0)"/>
    <use xlink:href="#DejaVuSans-Bold-4e" transform="translate(2734.453125 0)"/>
    <use xlink:href="#DejaVuSans-Bold-48" transform="translate(2798.265625 0)"/>
    <use xlink:href="#DejaVuSans-Bold-51" transform="translate(2866.09375 0)"/>
    <use xlink:href="#DejaVuSans-Bold-56" transform="translate(2937.28125 0)"/>
    <use xlink:href="#DejaVuSans-Bold-3" transform="translate(2996.796875 0)"/>
    <use xlink:href="#DejaVuSans-Bold-57" transform="translate(3031.609375 0)"/>
    <use xlink:href="#DejaVuSans-Bold-52" transform="translate(3079.40625 0)"/>
    <use xlink:href="#DejaVuSans-Bold-5a" transform="translate(3148.109375 0)"/>
    <use xlink:href="#DejaVuSans-Bold-44" transform="translate(3240.5 0)"/>
    <use xlink:href="#DejaVuSans-Bold-55" transform="translate(3307.984375 0)"/>
    <use xlink:href="#DejaVuSans-Bold-47" transform="translate(3357.296875 0)"/>
    <use xlink:href="#DejaVuSans-Bold-3" transform="translate(3428.875 0)"/>
    <use xlink:href="#DejaVuSans-Bold-45" transform="translate(3463.6875 0)"/>
    <use xlink:href="#DejaVuSans-Bold-44" transform="translate(3535.265625 0)"/>
    <use xlink:href="#DejaVuSans-Bold-56" transform="translate(3602.75 0)"/>
    <use xlink:href="#DejaVuSans-Bold-48" transform="translate(3662.265625 0)"/>
    <use xlink:href="#DejaVuSans-Bold-4f" transform="translate(3730.09375 0)"/>
    <use xlink:href="#DejaVuSans-Bold-4c" transform="translate(3764.375 0)"/>
    <use xlink:href="#DejaVuSans-Bold-51" transform="translate(3798.65625 0)"/>
    <use xlink:href="#DejaVuSans-Bold-48" transform="translate(3869.84375 0)"/>
    <use xlink:href="#DejaVuSans-Bold-1e" transform="translate(3937.671875 0)"/>
    <use xlink:href="#DejaVuSans-Bold-3" transform="translate(3977.65625 0)"/>
    <use xlink:href="#DejaVuSans-Bold-56" transform="translate(4012.46875 0)"/>
    <use xlink:href="#DejaVuSans-Bold-4b" transform="translate(4071.984375 0)"/>
    <use xlink:href="#DejaVuSans-Bold-44" transform="translate(4143.171875 0)"/>
    <use xlink:href="#DejaVuSans-Bold-50" transform="translate(4210.65625 0)"/>
    <use xlink:href="#DejaVuSans-Bold-3" transform="translate(4314.859375 0)"/>
    <use xlink:href="#DejaVuSans-Bold-53" transform="translate(4349.671875 0)"/>
    <use xlink:href="#DejaVuSans-Bold-44" transform="translate(4421.25 0)"/>
    <use xlink:href="#DejaVuSans-Bold-57" transform="translate(4488.734375 0)"/>
    <use xlink:href="#DejaVuSans-Bold-46" transform="translate(4536.53125 0)"/>
    <use xlink:href="#DejaVuSans-Bold-4b" transform="translate(4595.8125 0)"/>
    <use xlink:href="#DejaVuSans-Bold-4c" transform="translate(4667 0)"/>
    <use xlink:href="#DejaVuSans-Bold-51" transform="translate(4701.28125 0)"/>
    <use xlink:href="#DejaVuSans-Bold-4a" transform="translate(4772.46875 0)"/>
    <use xlink:href="#DejaVuSans-Bold-3" transform="translate(4844.046875 0)"/>
    <use xlink:href="#DejaVuSans-Bold-47" transform="translate(4878.859375 0)"/>
    <use xlink:href="#DejaVuSans-Bold-52" transform="translate(4950.4375 0)"/>
    <use xlink:href="#DejaVuSans-Bold-48" transform="translate(5019.140625 0)"/>
    <use xlink:href="#DejaVuSans-Bold-56" transform="translate(5086.96875 0)"/>
    <use xlink:href="#DejaVuSans-Bold-3" transform="translate(5146.484375 0)"/>
    <use xlink:href="#DejaVuSans-Bold-51" transform="translate(5181.296875 0)"/>
    <use xlink:href="#DejaVuSans-Bold-52" transform="translate(5252.484375 0)"/>
    <use xlink:href="#DejaVuSans-Bold-57" transform="translate(5321.1875 0)"/>
   </g>
  </g>
 </g>
 <defs>
  <clipPath id="pb24b71ce1e">
   <rect x="45.741266" y="40.597693" width="234.190342" height="192.760578"/>
  </clipPath>
  <clipPath id="p7f4053a656">
   <rect x="307.009178" y="40.597693" width="234.190342" height="192.760578"/>
  </clipPath>
 </defs>
</svg>
