<?xml version="1.0" encoding="utf-8" standalone="no"?>
<!DOCTYPE svg PUBLIC "-//W3C//DTD SVG 1.1//EN"
  "http://www.w3.org/Graphics/SVG/1.1/DTD/svg11.dtd">
<svg xmlns:xlink="http://www.w3.org/1999/xlink" width="656.136723pt" height="307.19952pt" viewBox="0 0 656.136723 307.19952" xmlns="http://www.w3.org/2000/svg" version="1.1">
 <metadata>
  <rdf:RDF xmlns:dc="http://purl.org/dc/elements/1.1/" xmlns:cc="http://creativecommons.org/ns#" xmlns:rdf="http://www.w3.org/1999/02/22-rdf-syntax-ns#">
   <cc:Work>
    <dc:type rdf:resource="http://purl.org/dc/dcmitype/StillImage"/>
    <dc:date>2026-07-19T02:46:15.089229</dc:date>
    <dc:format>image/svg+xml</dc:format>
    <dc:creator>
     <cc:Agent>
      <dc:title>Matplotlib v3.11.0, https://matplotlib.org/</dc:title>
     </cc:Agent>
    </dc:creator>
   </cc:Work>
  </rdf:RDF>
 </metadata>
 <defs>
  <style type="text/css">*{stroke-linejoin: round; stroke-linecap: butt}</style>
 </defs>
 <g id="figure_1">
  <g id="patch_1">
   <path d="M 0 307.19952
L 656.136723 307.19952
L 656.136723 0
L 0 0
z
" style="fill: #ffffff"/>
  </g>
  <g id="axes_1">
   <g id="patch_2">
    <path d="M 110.813969 272.598848
L 269.175743 272.598848
L 269.175743 37.744855
L 110.813969 37.744855
z
" style="fill: #ffffff"/>
   </g>
   <g id="patch_3">
    <path d="M 189.994856 272.598848
L 269.175743 272.598848
L 269.175743 37.744855
L 189.994856 37.744855
z
" clip-path="url(#pcd5c03cbf0)" style="fill: #d1fae5; opacity: 0.45; stroke: #d1fae5; stroke-linejoin: miter"/>
   </g>
   <g id="matplotlib.axis_1">
    <g id="xtick_1">
     <g id="line2d_1">
      <path d="M 146.005474 272.598848
L 146.005474 37.744855
" clip-path="url(#pcd5c03cbf0)" style="fill: none; stroke: #e5e7eb; stroke-opacity: 0.9; stroke-width: 0.7; stroke-linecap: square"/>
     </g>
     <g id="line2d_2">
      <defs>
       <path id="m34e9f9c79c" d="M 0 0
L 0 3.5
" style="stroke: #4b5563; stroke-width: 0.8"/>
      </defs>
      <g>
       <use xlink:href="#m34e9f9c79c" x="146.005474" y="272.598848" style="fill: #4b5563; stroke: #4b5563; stroke-width: 0.8"/>
      </g>
     </g>
     <g id="text_1">
      <!-- −0.2 -->
      <g style="fill: #4b5563" transform="translate(136.535177 285.52502) scale(0.078 -0.078)">
       <defs>
        <path id="DejaVuSans-c9c" d="M 678 2272
L 4684 2272
L 4684 1741
L 678 1741
L 678 2272
z
" transform="scale(0.015625)"/>
        <path id="DejaVuSans-13" d="M 2034 4250
Q 1547 4250 1301 3770
Q 1056 3291 1056 2328
Q 1056 1369 1301 889
Q 1547 409 2034 409
Q 2525 409 2770 889
Q 3016 1369 3016 2328
Q 3016 3291 2770 3770
Q 2525 4250 2034 4250
z
M 2034 4750
Q 2819 4750 3233 4129
Q 3647 3509 3647 2328
Q 3647 1150 3233 529
Q 2819 -91 2034 -91
Q 1250 -91 836 529
Q 422 1150 422 2328
Q 422 3509 836 4129
Q 1250 4750 2034 4750
z
" transform="scale(0.015625)"/>
        <path id="DejaVuSans-11" d="M 684 794
L 1344 794
L 1344 0
L 684 0
L 684 794
z
" transform="scale(0.015625)"/>
        <path id="DejaVuSans-15" d="M 1228 531
L 3431 531
L 3431 0
L 469 0
L 469 531
Q 828 903 1448 1529
Q 2069 2156 2228 2338
Q 2531 2678 2651 2914
Q 2772 3150 2772 3378
Q 2772 3750 2511 3984
Q 2250 4219 1831 4219
Q 1534 4219 1204 4116
Q 875 4013 500 3803
L 500 4441
Q 881 4594 1212 4672
Q 1544 4750 1819 4750
Q 2544 4750 2975 4387
Q 3406 4025 3406 3419
Q 3406 3131 3298 2873
Q 3191 2616 2906 2266
Q 2828 2175 2409 1742
Q 1991 1309 1228 531
z
" transform="scale(0.015625)"/>
       </defs>
       <use xlink:href="#DejaVuSans-c9c"/>
       <use xlink:href="#DejaVuSans-13" transform="translate(83.796875 0)"/>
       <use xlink:href="#DejaVuSans-11" transform="translate(147.421875 0)"/>
       <use xlink:href="#DejaVuSans-15" transform="translate(179.203125 0)"/>
      </g>
     </g>
    </g>
    <g id="xtick_2">
     <g id="line2d_3">
      <path d="M 189.994856 272.598848
L 189.994856 37.744855
" clip-path="url(#pcd5c03cbf0)" style="fill: none; stroke: #e5e7eb; stroke-opacity: 0.9; stroke-width: 0.7; stroke-linecap: square"/>
     </g>
     <g id="line2d_4">
      <g>
       <use xlink:href="#m34e9f9c79c" x="189.994856" y="272.598848" style="fill: #4b5563; stroke: #4b5563; stroke-width: 0.8"/>
      </g>
     </g>
     <g id="text_2">
      <!-- 0.0 -->
      <g style="fill: #4b5563" transform="translate(183.792637 285.52502) scale(0.078 -0.078)">
       <use xlink:href="#DejaVuSans-13"/>
       <use xlink:href="#DejaVuSans-11" transform="translate(63.625 0)"/>
       <use xlink:href="#DejaVuSans-13" transform="translate(95.40625 0)"/>
      </g>
     </g>
    </g>
    <g id="xtick_3">
     <g id="line2d_5">
      <path d="M 233.984238 272.598848
L 233.984238 37.744855
" clip-path="url(#pcd5c03cbf0)" style="fill: none; stroke: #e5e7eb; stroke-opacity: 0.9; stroke-width: 0.7; stroke-linecap: square"/>
     </g>
     <g id="line2d_6">
      <g>
       <use xlink:href="#m34e9f9c79c" x="233.984238" y="272.598848" style="fill: #4b5563; stroke: #4b5563; stroke-width: 0.8"/>
      </g>
     </g>
     <g id="text_3">
      <!-- 0.2 -->
      <g style="fill: #4b5563" transform="translate(227.782019 285.52502) scale(0.078 -0.078)">
       <use xlink:href="#DejaVuSans-13"/>
       <use xlink:href="#DejaVuSans-11" transform="translate(63.625 0)"/>
       <use xlink:href="#DejaVuSans-15" transform="translate(95.40625 0)"/>
      </g>
     </g>
    </g>
    <g id="text_4">
     <!-- Matched class contrast in ΔNLL -->
     <g style="fill: #172033" transform="translate(122.753606 297.933504) scale(0.086 -0.086)">
      <defs>
       <path id="DejaVuSans-30" d="M 628 4666
L 1569 4666
L 2759 1491
L 3956 4666
L 4897 4666
L 4897 0
L 4281 0
L 4281 4097
L 3078 897
L 2444 897
L 1241 4097
L 1241 0
L 628 0
L 628 4666
z
" transform="scale(0.015625)"/>
       <path id="DejaVuSans-44" d="M 2194 1759
Q 1497 1759 1228 1600
Q 959 1441 959 1056
Q 959 750 1161 570
Q 1363 391 1709 391
Q 2188 391 2477 730
Q 2766 1069 2766 1631
L 2766 1759
L 2194 1759
z
M 3341 1997
L 3341 0
L 2766 0
L 2766 531
Q 2569 213 2275 61
Q 1981 -91 1556 -91
Q 1019 -91 701 211
Q 384 513 384 1019
Q 384 1609 779 1909
Q 1175 2209 1959 2209
L 2766 2209
L 2766 2266
Q 2766 2663 2505 2880
Q 2244 3097 1772 3097
Q 1472 3097 1187 3025
Q 903 2953 641 2809
L 641 3341
Q 956 3463 1253 3523
Q 1550 3584 1831 3584
Q 2591 3584 2966 3190
Q 3341 2797 3341 1997
z
" transform="scale(0.015625)"/>
       <path id="DejaVuSans-57" d="M 1172 4494
L 1172 3500
L 2356 3500
L 2356 3053
L 1172 3053
L 1172 1153
Q 1172 725 1289 603
Q 1406 481 1766 481
L 2356 481
L 2356 0
L 1766 0
Q 1100 0 847 248
Q 594 497 594 1153
L 594 3053
L 172 3053
L 172 3500
L 594 3500
L 594 4494
L 1172 4494
z
" transform="scale(0.015625)"/>
       <path id="DejaVuSans-46" d="M 3122 3366
L 3122 2828
Q 2878 2963 2633 3030
Q 2388 3097 2138 3097
Q 1578 3097 1268 2742
Q 959 2388 959 1747
Q 959 1106 1268 751
Q 1578 397 2138 397
Q 2388 397 2633 464
Q 2878 531 3122 666
L 3122 134
Q 2881 22 2623 -34
Q 2366 -91 2075 -91
Q 1284 -91 818 406
Q 353 903 353 1747
Q 353 2603 823 3093
Q 1294 3584 2113 3584
Q 2378 3584 2631 3529
Q 2884 3475 3122 3366
z
" transform="scale(0.015625)"/>
       <path id="DejaVuSans-4b" d="M 3513 2113
L 3513 0
L 2938 0
L 2938 2094
Q 2938 2591 2744 2837
Q 2550 3084 2163 3084
Q 1697 3084 1428 2787
Q 1159 2491 1159 1978
L 1159 0
L 581 0
L 581 4863
L 1159 4863
L 1159 2956
Q 1366 3272 1645 3428
Q 1925 3584 2291 3584
Q 2894 3584 3203 3211
Q 3513 2838 3513 2113
z
" transform="scale(0.015625)"/>
       <path id="DejaVuSans-48" d="M 3597 1894
L 3597 1613
L 953 1613
Q 991 1019 1311 708
Q 1631 397 2203 397
Q 2534 397 2845 478
Q 3156 559 3463 722
L 3463 178
Q 3153 47 2828 -22
Q 2503 -91 2169 -91
Q 1331 -91 842 396
Q 353 884 353 1716
Q 353 2575 817 3079
Q 1281 3584 2069 3584
Q 2775 3584 3186 3129
Q 3597 2675 3597 1894
z
M 3022 2063
Q 3016 2534 2758 2815
Q 2500 3097 2075 3097
Q 1594 3097 1305 2825
Q 1016 2553 972 2059
L 3022 2063
z
" transform="scale(0.015625)"/>
       <path id="DejaVuSans-47" d="M 2906 2969
L 2906 4863
L 3481 4863
L 3481 0
L 2906 0
L 2906 525
Q 2725 213 2448 61
Q 2172 -91 1784 -91
Q 1150 -91 751 415
Q 353 922 353 1747
Q 353 2572 751 3078
Q 1150 3584 1784 3584
Q 2172 3584 2448 3432
Q 2725 3281 2906 2969
z
M 947 1747
Q 947 1113 1208 752
Q 1469 391 1925 391
Q 2381 391 2643 752
Q 2906 1113 2906 1747
Q 2906 2381 2643 2742
Q 2381 3103 1925 3103
Q 1469 3103 1208 2742
Q 947 2381 947 1747
z
" transform="scale(0.015625)"/>
       <path id="DejaVuSans-3" transform="scale(0.015625)"/>
       <path id="DejaVuSans-4f" d="M 603 4863
L 1178 4863
L 1178 0
L 603 0
L 603 4863
z
" transform="scale(0.015625)"/>
       <path id="DejaVuSans-56" d="M 2834 3397
L 2834 2853
Q 2591 2978 2328 3040
Q 2066 3103 1784 3103
Q 1356 3103 1142 2972
Q 928 2841 928 2578
Q 928 2378 1081 2264
Q 1234 2150 1697 2047
L 1894 2003
Q 2506 1872 2764 1633
Q 3022 1394 3022 966
Q 3022 478 2636 193
Q 2250 -91 1575 -91
Q 1294 -91 989 -36
Q 684 19 347 128
L 347 722
Q 666 556 975 473
Q 1284 391 1588 391
Q 1994 391 2212 530
Q 2431 669 2431 922
Q 2431 1156 2273 1281
Q 2116 1406 1581 1522
L 1381 1569
Q 847 1681 609 1914
Q 372 2147 372 2553
Q 372 3047 722 3315
Q 1072 3584 1716 3584
Q 2034 3584 2315 3537
Q 2597 3491 2834 3397
z
" transform="scale(0.015625)"/>
       <path id="DejaVuSans-52" d="M 1959 3097
Q 1497 3097 1228 2736
Q 959 2375 959 1747
Q 959 1119 1226 758
Q 1494 397 1959 397
Q 2419 397 2687 759
Q 2956 1122 2956 1747
Q 2956 2369 2687 2733
Q 2419 3097 1959 3097
z
M 1959 3584
Q 2709 3584 3137 3096
Q 3566 2609 3566 1747
Q 3566 888 3137 398
Q 2709 -91 1959 -91
Q 1206 -91 779 398
Q 353 888 353 1747
Q 353 2609 779 3096
Q 1206 3584 1959 3584
z
" transform="scale(0.015625)"/>
       <path id="DejaVuSans-51" d="M 3513 2113
L 3513 0
L 2938 0
L 2938 2094
Q 2938 2591 2744 2837
Q 2550 3084 2163 3084
Q 1697 3084 1428 2787
Q 1159 2491 1159 1978
L 1159 0
L 581 0
L 581 3500
L 1159 3500
L 1159 2956
Q 1366 3272 1645 3428
Q 1925 3584 2291 3584
Q 2894 3584 3203 3211
Q 3513 2838 3513 2113
z
" transform="scale(0.015625)"/>
       <path id="DejaVuSans-55" d="M 2631 2963
Q 2534 3019 2420 3045
Q 2306 3072 2169 3072
Q 1681 3072 1420 2755
Q 1159 2438 1159 1844
L 1159 0
L 581 0
L 581 3500
L 1159 3500
L 1159 2956
Q 1341 3275 1631 3429
Q 1922 3584 2338 3584
Q 2397 3584 2469 3576
Q 2541 3569 2628 3553
L 2631 2963
z
" transform="scale(0.015625)"/>
       <path id="DejaVuSans-4c" d="M 603 3500
L 1178 3500
L 1178 0
L 603 0
L 603 3500
z
M 603 4863
L 1178 4863
L 1178 4134
L 603 4134
L 603 4863
z
" transform="scale(0.015625)"/>
       <path id="DejaVuSans-329" d="M 2188 4044
L 906 525
L 3472 525
L 2188 4044
z
M 50 0
L 1831 4666
L 2547 4666
L 4325 0
L 50 0
z
" transform="scale(0.015625)"/>
       <path id="DejaVuSans-31" d="M 628 4666
L 1478 4666
L 3547 763
L 3547 4666
L 4159 4666
L 4159 0
L 3309 0
L 1241 3903
L 1241 0
L 628 0
L 628 4666
z
" transform="scale(0.015625)"/>
       <path id="DejaVuSans-2f" d="M 628 4666
L 1259 4666
L 1259 531
L 3531 531
L 3531 0
L 628 0
L 628 4666
z
" transform="scale(0.015625)"/>
      </defs>
      <use xlink:href="#DejaVuSans-30"/>
      <use xlink:href="#DejaVuSans-44" transform="translate(86.28125 0)"/>
      <use xlink:href="#DejaVuSans-57" transform="translate(147.5625 0)"/>
      <use xlink:href="#DejaVuSans-46" transform="translate(186.765625 0)"/>
      <use xlink:href="#DejaVuSans-4b" transform="translate(241.75 0)"/>
      <use xlink:href="#DejaVuSans-48" transform="translate(305.125 0)"/>
      <use xlink:href="#DejaVuSans-47" transform="translate(366.65625 0)"/>
      <use xlink:href="#DejaVuSans-3" transform="translate(430.140625 0)"/>
      <use xlink:href="#DejaVuSans-46" transform="translate(461.921875 0)"/>
      <use xlink:href="#DejaVuSans-4f" transform="translate(516.90625 0)"/>
      <use xlink:href="#DejaVuSans-44" transform="translate(544.6875 0)"/>
      <use xlink:href="#DejaVuSans-56" transform="translate(605.96875 0)"/>
      <use xlink:href="#DejaVuSans-56" transform="translate(658.0625 0)"/>
      <use xlink:href="#DejaVuSans-3" transform="translate(710.15625 0)"/>
      <use xlink:href="#DejaVuSans-46" transform="translate(741.9375 0)"/>
      <use xlink:href="#DejaVuSans-52" transform="translate(796.921875 0)"/>
      <use xlink:href="#DejaVuSans-51" transform="translate(858.109375 0)"/>
      <use xlink:href="#DejaVuSans-57" transform="translate(921.484375 0)"/>
      <use xlink:href="#DejaVuSans-55" transform="translate(960.6875 0)"/>
      <use xlink:href="#DejaVuSans-44" transform="translate(1001.796875 0)"/>
      <use xlink:href="#DejaVuSans-56" transform="translate(1063.078125 0)"/>
      <use xlink:href="#DejaVuSans-57" transform="translate(1115.171875 0)"/>
      <use xlink:href="#DejaVuSans-3" transform="translate(1154.375 0)"/>
      <use xlink:href="#DejaVuSans-4c" transform="translate(1186.15625 0)"/>
      <use xlink:href="#DejaVuSans-51" transform="translate(1213.9375 0)"/>
      <use xlink:href="#DejaVuSans-3" transform="translate(1277.3125 0)"/>
      <use xlink:href="#DejaVuSans-329" transform="translate(1309.09375 0)"/>
      <use xlink:href="#DejaVuSans-31" transform="translate(1377.5 0)"/>
      <use xlink:href="#DejaVuSans-2f" transform="translate(1452.3125 0)"/>
      <use xlink:href="#DejaVuSans-2f" transform="translate(1508.03125 0)"/>
     </g>
    </g>
   </g>
   <g id="matplotlib.axis_2">
    <g id="ytick_1">
     <g id="line2d_7">
      <defs>
       <path id="m0c132c9157" d="M 0 0
L -3.5 0
" style="stroke: #4b5563; stroke-width: 0.8"/>
      </defs>
      <g>
       <use xlink:href="#m0c132c9157" x="110.813969" y="48.420037" style="fill: #4b5563; stroke: #4b5563; stroke-width: 0.8"/>
      </g>
     </g>
     <g id="text_5">
      <!-- First content · primary -->
      <g style="fill: #4b5563" transform="translate(17.09625 51.383427) scale(0.078 -0.078)">
       <defs>
        <path id="DejaVuSans-29" d="M 628 4666
L 3309 4666
L 3309 4134
L 1259 4134
L 1259 2759
L 3109 2759
L 3109 2228
L 1259 2228
L 1259 0
L 628 0
L 628 4666
z
" transform="scale(0.015625)"/>
        <path id="DejaVuSans-79" d="M 684 2619
L 1344 2619
L 1344 1825
L 684 1825
L 684 2619
z
" transform="scale(0.015625)"/>
        <path id="DejaVuSans-53" d="M 1159 525
L 1159 -1331
L 581 -1331
L 581 3500
L 1159 3500
L 1159 2969
Q 1341 3281 1617 3432
Q 1894 3584 2278 3584
Q 2916 3584 3314 3078
Q 3713 2572 3713 1747
Q 3713 922 3314 415
Q 2916 -91 2278 -91
Q 1894 -91 1617 61
Q 1341 213 1159 525
z
M 3116 1747
Q 3116 2381 2855 2742
Q 2594 3103 2138 3103
Q 1681 3103 1420 2742
Q 1159 2381 1159 1747
Q 1159 1113 1420 752
Q 1681 391 2138 391
Q 2594 391 2855 752
Q 3116 1113 3116 1747
z
" transform="scale(0.015625)"/>
        <path id="DejaVuSans-50" d="M 3328 2828
Q 3544 3216 3844 3400
Q 4144 3584 4550 3584
Q 5097 3584 5394 3201
Q 5691 2819 5691 2113
L 5691 0
L 5113 0
L 5113 2094
Q 5113 2597 4934 2840
Q 4756 3084 4391 3084
Q 3944 3084 3684 2787
Q 3425 2491 3425 1978
L 3425 0
L 2847 0
L 2847 2094
Q 2847 2600 2669 2842
Q 2491 3084 2119 3084
Q 1678 3084 1418 2786
Q 1159 2488 1159 1978
L 1159 0
L 581 0
L 581 3500
L 1159 3500
L 1159 2956
Q 1356 3278 1631 3431
Q 1906 3584 2284 3584
Q 2666 3584 2933 3390
Q 3200 3197 3328 2828
z
" transform="scale(0.015625)"/>
        <path id="DejaVuSans-5c" d="M 2059 -325
Q 1816 -950 1584 -1140
Q 1353 -1331 966 -1331
L 506 -1331
L 506 -850
L 844 -850
Q 1081 -850 1212 -737
Q 1344 -625 1503 -206
L 1606 56
L 191 3500
L 800 3500
L 1894 763
L 2988 3500
L 3597 3500
L 2059 -325
z
" transform="scale(0.015625)"/>
       </defs>
       <use xlink:href="#DejaVuSans-29"/>
       <use xlink:href="#DejaVuSans-4c" transform="translate(50.234375 0)"/>
       <use xlink:href="#DejaVuSans-55" transform="translate(78.015625 0)"/>
       <use xlink:href="#DejaVuSans-56" transform="translate(119.125 0)"/>
       <use xlink:href="#DejaVuSans-57" transform="translate(171.21875 0)"/>
       <use xlink:href="#DejaVuSans-3" transform="translate(210.421875 0)"/>
       <use xlink:href="#DejaVuSans-46" transform="translate(242.203125 0)"/>
       <use xlink:href="#DejaVuSans-52" transform="translate(297.1875 0)"/>
       <use xlink:href="#DejaVuSans-51" transform="translate(358.375 0)"/>
       <use xlink:href="#DejaVuSans-57" transform="translate(421.75 0)"/>
       <use xlink:href="#DejaVuSans-48" transform="translate(460.953125 0)"/>
       <use xlink:href="#DejaVuSans-51" transform="translate(522.484375 0)"/>
       <use xlink:href="#DejaVuSans-57" transform="translate(585.859375 0)"/>
       <use xlink:href="#DejaVuSans-3" transform="translate(625.0625 0)"/>
       <use xlink:href="#DejaVuSans-79" transform="translate(656.84375 0)"/>
       <use xlink:href="#DejaVuSans-3" transform="translate(688.625 0)"/>
       <use xlink:href="#DejaVuSans-53" transform="translate(720.40625 0)"/>
       <use xlink:href="#DejaVuSans-55" transform="translate(783.890625 0)"/>
       <use xlink:href="#DejaVuSans-4c" transform="translate(825 0)"/>
       <use xlink:href="#DejaVuSans-50" transform="translate(852.78125 0)"/>
       <use xlink:href="#DejaVuSans-44" transform="translate(950.1875 0)"/>
       <use xlink:href="#DejaVuSans-55" transform="translate(1011.46875 0)"/>
       <use xlink:href="#DejaVuSans-5c" transform="translate(1052.578125 0)"/>
      </g>
     </g>
    </g>
    <g id="ytick_2">
     <g id="line2d_8">
      <g>
       <use xlink:href="#m0c132c9157" x="110.813969" y="119.587913" style="fill: #4b5563; stroke: #4b5563; stroke-width: 0.8"/>
      </g>
     </g>
     <g id="text_6">
      <!-- First content · secondary -->
      <g style="fill: #4b5563" transform="translate(7.2 122.551304) scale(0.078 -0.078)">
       <use xlink:href="#DejaVuSans-29"/>
       <use xlink:href="#DejaVuSans-4c" transform="translate(50.234375 0)"/>
       <use xlink:href="#DejaVuSans-55" transform="translate(78.015625 0)"/>
       <use xlink:href="#DejaVuSans-56" transform="translate(119.125 0)"/>
       <use xlink:href="#DejaVuSans-57" transform="translate(171.21875 0)"/>
       <use xlink:href="#DejaVuSans-3" transform="translate(210.421875 0)"/>
       <use xlink:href="#DejaVuSans-46" transform="translate(242.203125 0)"/>
       <use xlink:href="#DejaVuSans-52" transform="translate(297.1875 0)"/>
       <use xlink:href="#DejaVuSans-51" transform="translate(358.375 0)"/>
       <use xlink:href="#DejaVuSans-57" transform="translate(421.75 0)"/>
       <use xlink:href="#DejaVuSans-48" transform="translate(460.953125 0)"/>
       <use xlink:href="#DejaVuSans-51" transform="translate(522.484375 0)"/>
       <use xlink:href="#DejaVuSans-57" transform="translate(585.859375 0)"/>
       <use xlink:href="#DejaVuSans-3" transform="translate(625.0625 0)"/>
       <use xlink:href="#DejaVuSans-79" transform="translate(656.84375 0)"/>
       <use xlink:href="#DejaVuSans-3" transform="translate(688.625 0)"/>
       <use xlink:href="#DejaVuSans-56" transform="translate(720.40625 0)"/>
       <use xlink:href="#DejaVuSans-48" transform="translate(772.5 0)"/>
       <use xlink:href="#DejaVuSans-46" transform="translate(834.03125 0)"/>
       <use xlink:href="#DejaVuSans-52" transform="translate(889.015625 0)"/>
       <use xlink:href="#DejaVuSans-51" transform="translate(950.203125 0)"/>
       <use xlink:href="#DejaVuSans-47" transform="translate(1013.578125 0)"/>
       <use xlink:href="#DejaVuSans-44" transform="translate(1077.0625 0)"/>
       <use xlink:href="#DejaVuSans-55" transform="translate(1138.34375 0)"/>
       <use xlink:href="#DejaVuSans-5c" transform="translate(1179.453125 0)"/>
      </g>
     </g>
    </g>
    <g id="ytick_3">
     <g id="line2d_9">
      <g>
       <use xlink:href="#m0c132c9157" x="110.813969" y="190.75579" style="fill: #4b5563; stroke: #4b5563; stroke-width: 0.8"/>
      </g>
     </g>
     <g id="text_7">
      <!-- Pronouns · primary -->
      <g style="fill: #4b5563" transform="translate(29.811469 193.719181) scale(0.078 -0.078)">
       <defs>
        <path id="DejaVuSans-33" d="M 1259 4147
L 1259 2394
L 2053 2394
Q 2494 2394 2734 2622
Q 2975 2850 2975 3272
Q 2975 3691 2734 3919
Q 2494 4147 2053 4147
L 1259 4147
z
M 628 4666
L 2053 4666
Q 2838 4666 3239 4311
Q 3641 3956 3641 3272
Q 3641 2581 3239 2228
Q 2838 1875 2053 1875
L 1259 1875
L 1259 0
L 628 0
L 628 4666
z
" transform="scale(0.015625)"/>
        <path id="DejaVuSans-58" d="M 544 1381
L 544 3500
L 1119 3500
L 1119 1403
Q 1119 906 1312 657
Q 1506 409 1894 409
Q 2359 409 2629 706
Q 2900 1003 2900 1516
L 2900 3500
L 3475 3500
L 3475 0
L 2900 0
L 2900 538
Q 2691 219 2414 64
Q 2138 -91 1772 -91
Q 1169 -91 856 284
Q 544 659 544 1381
z
M 1991 3584
L 1991 3584
z
" transform="scale(0.015625)"/>
       </defs>
       <use xlink:href="#DejaVuSans-33"/>
       <use xlink:href="#DejaVuSans-55" transform="translate(58.546875 0)"/>
       <use xlink:href="#DejaVuSans-52" transform="translate(97.453125 0)"/>
       <use xlink:href="#DejaVuSans-51" transform="translate(158.640625 0)"/>
       <use xlink:href="#DejaVuSans-52" transform="translate(222.015625 0)"/>
       <use xlink:href="#DejaVuSans-58" transform="translate(283.203125 0)"/>
       <use xlink:href="#DejaVuSans-51" transform="translate(346.578125 0)"/>
       <use xlink:href="#DejaVuSans-56" transform="translate(409.953125 0)"/>
       <use xlink:href="#DejaVuSans-3" transform="translate(462.046875 0)"/>
       <use xlink:href="#DejaVuSans-79" transform="translate(493.828125 0)"/>
       <use xlink:href="#DejaVuSans-3" transform="translate(525.609375 0)"/>
       <use xlink:href="#DejaVuSans-53" transform="translate(557.390625 0)"/>
       <use xlink:href="#DejaVuSans-55" transform="translate(620.875 0)"/>
       <use xlink:href="#DejaVuSans-4c" transform="translate(661.984375 0)"/>
       <use xlink:href="#DejaVuSans-50" transform="translate(689.765625 0)"/>
       <use xlink:href="#DejaVuSans-44" transform="translate(787.171875 0)"/>
       <use xlink:href="#DejaVuSans-55" transform="translate(848.453125 0)"/>
       <use xlink:href="#DejaVuSans-5c" transform="translate(889.5625 0)"/>
      </g>
     </g>
    </g>
    <g id="ytick_4">
     <g id="line2d_10">
      <g>
       <use xlink:href="#m0c132c9157" x="110.813969" y="261.923667" style="fill: #4b5563; stroke: #4b5563; stroke-width: 0.8"/>
      </g>
     </g>
     <g id="text_8">
      <!-- Pronouns · secondary -->
      <g style="fill: #4b5563" transform="translate(19.915219 264.887057) scale(0.078 -0.078)">
       <use xlink:href="#DejaVuSans-33"/>
       <use xlink:href="#DejaVuSans-55" transform="translate(58.546875 0)"/>
       <use xlink:href="#DejaVuSans-52" transform="translate(97.453125 0)"/>
       <use xlink:href="#DejaVuSans-51" transform="translate(158.640625 0)"/>
       <use xlink:href="#DejaVuSans-52" transform="translate(222.015625 0)"/>
       <use xlink:href="#DejaVuSans-58" transform="translate(283.203125 0)"/>
       <use xlink:href="#DejaVuSans-51" transform="translate(346.578125 0)"/>
       <use xlink:href="#DejaVuSans-56" transform="translate(409.953125 0)"/>
       <use xlink:href="#DejaVuSans-3" transform="translate(462.046875 0)"/>
       <use xlink:href="#DejaVuSans-79" transform="translate(493.828125 0)"/>
       <use xlink:href="#DejaVuSans-3" transform="translate(525.609375 0)"/>
       <use xlink:href="#DejaVuSans-56" transform="translate(557.390625 0)"/>
       <use xlink:href="#DejaVuSans-48" transform="translate(609.484375 0)"/>
       <use xlink:href="#DejaVuSans-46" transform="translate(671.015625 0)"/>
       <use xlink:href="#DejaVuSans-52" transform="translate(726 0)"/>
       <use xlink:href="#DejaVuSans-51" transform="translate(787.1875 0)"/>
       <use xlink:href="#DejaVuSans-47" transform="translate(850.5625 0)"/>
       <use xlink:href="#DejaVuSans-44" transform="translate(914.046875 0)"/>
       <use xlink:href="#DejaVuSans-55" transform="translate(975.328125 0)"/>
       <use xlink:href="#DejaVuSans-5c" transform="translate(1016.4375 0)"/>
      </g>
     </g>
    </g>
   </g>
   <g id="LineCollection_1">
    <path d="M 126.514837 48.420037
L 210.581008 48.420037
" clip-path="url(#pcd5c03cbf0)" style="fill: none; stroke: #2f6bde; stroke-width: 1.5"/>
   </g>
   <g id="line2d_11">
    <defs>
     <path id="mb5e69b32b5" d="M 0 3
L 0 -3
" style="stroke: #2f6bde"/>
    </defs>
    <g clip-path="url(#pcd5c03cbf0)">
     <use xlink:href="#mb5e69b32b5" x="126.514837" y="48.420037" style="fill: #2f6bde; stroke: #2f6bde"/>
    </g>
   </g>
   <g id="line2d_12">
    <g clip-path="url(#pcd5c03cbf0)">
     <use xlink:href="#mb5e69b32b5" x="210.581008" y="48.420037" style="fill: #2f6bde; stroke: #2f6bde"/>
    </g>
   </g>
   <g id="LineCollection_2">
    <path d="M 155.783704 119.587913
L 253.758959 119.587913
" clip-path="url(#pcd5c03cbf0)" style="fill: none; stroke: #2f6bde; stroke-width: 1.5"/>
   </g>
   <g id="line2d_13">
    <g clip-path="url(#pcd5c03cbf0)">
     <use xlink:href="#mb5e69b32b5" x="155.783704" y="119.587913" style="fill: #2f6bde; stroke: #2f6bde"/>
    </g>
   </g>
   <g id="line2d_14">
    <g clip-path="url(#pcd5c03cbf0)">
     <use xlink:href="#mb5e69b32b5" x="253.758959" y="119.587913" style="fill: #2f6bde; stroke: #2f6bde"/>
    </g>
   </g>
   <g id="LineCollection_3">
    <path d="M 146.949958 190.75579
L 195.345691 190.75579
" clip-path="url(#pcd5c03cbf0)" style="fill: none; stroke: #2f6bde; stroke-width: 1.5"/>
   </g>
   <g id="line2d_15">
    <g clip-path="url(#pcd5c03cbf0)">
     <use xlink:href="#mb5e69b32b5" x="146.949958" y="190.75579" style="fill: #2f6bde; stroke: #2f6bde"/>
    </g>
   </g>
   <g id="line2d_16">
    <g clip-path="url(#pcd5c03cbf0)">
     <use xlink:href="#mb5e69b32b5" x="195.345691" y="190.75579" style="fill: #2f6bde; stroke: #2f6bde"/>
    </g>
   </g>
   <g id="LineCollection_4">
    <path d="M 124.752782 261.923667
L 164.055517 261.923667
" clip-path="url(#pcd5c03cbf0)" style="fill: none; stroke: #2f6bde; stroke-width: 1.5"/>
   </g>
   <g id="line2d_17">
    <g clip-path="url(#pcd5c03cbf0)">
     <use xlink:href="#mb5e69b32b5" x="124.752782" y="261.923667" style="fill: #2f6bde; stroke: #2f6bde"/>
    </g>
   </g>
   <g id="line2d_18">
    <g clip-path="url(#pcd5c03cbf0)">
     <use xlink:href="#mb5e69b32b5" x="164.055517" y="261.923667" style="fill: #2f6bde; stroke: #2f6bde"/>
    </g>
   </g>
   <g id="line2d_19">
    <path d="M 189.994856 272.598848
L 189.994856 37.744855
" clip-path="url(#pcd5c03cbf0)" style="fill: none; stroke: #172033; stroke-linecap: square"/>
   </g>
   <g id="line2d_20">
    <defs>
     <path id="mc09a982ff8" d="M 0 2.6
C 0.689528 2.6 1.350908 2.326048 1.838478 1.838478
C 2.326048 1.350908 2.6 0.689528 2.6 0
C 2.6 -0.689528 2.326048 -1.350908 1.838478 -1.838478
C 1.350908 -2.326048 0.689528 -2.6 0 -2.6
C -0.689528 -2.6 -1.350908 -2.326048 -1.838478 -1.838478
C -2.326048 -1.350908 -2.6 -0.689528 -2.6 0
C -2.6 0.689528 -2.326048 1.350908 -1.838478 1.838478
C -1.350908 2.326048 -0.689528 2.6 0 2.6
z
" style="stroke: #2f6bde"/>
    </defs>
    <g clip-path="url(#pcd5c03cbf0)">
     <use xlink:href="#mc09a982ff8" x="170.162812" y="48.420037" style="fill: #2f6bde; stroke: #2f6bde"/>
    </g>
   </g>
   <g id="line2d_21">
    <defs>
     <path id="m9636293ad7" d="M 0 2.6
C 0.689528 2.6 1.350908 2.326048 1.838478 1.838478
C 2.326048 1.350908 2.6 0.689528 2.6 0
C 2.6 -0.689528 2.326048 -1.350908 1.838478 -1.838478
C 1.350908 -2.326048 0.689528 -2.6 0 -2.6
C -0.689528 -2.6 -1.350908 -2.326048 -1.838478 -1.838478
C -2.326048 -1.350908 -2.6 -0.689528 -2.6 0
C -2.6 0.689528 -2.326048 1.350908 -1.838478 1.838478
C -1.350908 2.326048 -0.689528 2.6 0 2.6
z
" style="stroke: #2f6bde"/>
    </defs>
    <g clip-path="url(#pcd5c03cbf0)">
     <use xlink:href="#m9636293ad7" x="205.487596" y="119.587913" style="fill: #ffffff; stroke: #2f6bde"/>
    </g>
   </g>
   <g id="line2d_22">
    <g clip-path="url(#pcd5c03cbf0)">
     <use xlink:href="#mc09a982ff8" x="171.467079" y="190.75579" style="fill: #2f6bde; stroke: #2f6bde"/>
    </g>
   </g>
   <g id="line2d_23">
    <g clip-path="url(#pcd5c03cbf0)">
     <use xlink:href="#m9636293ad7" x="144.628429" y="261.923667" style="fill: #ffffff; stroke: #2f6bde"/>
    </g>
   </g>
   <g id="patch_4">
    <path d="M 110.813969 272.598848
L 110.813969 37.744855
" style="fill: none; stroke: #9ca3af; stroke-width: 0.8; stroke-linejoin: miter; stroke-linecap: square"/>
   </g>
   <g id="patch_5">
    <path d="M 110.813969 272.598848
L 269.175743 272.598848
" style="fill: none; stroke: #9ca3af; stroke-width: 0.8; stroke-linejoin: miter; stroke-linecap: square"/>
   </g>
   <g id="text_9">
    <!-- Fresh Slack · green = registered &gt;0 -->
    <g style="fill: #172033" transform="translate(110.813969 31.744855) scale(0.096 -0.096)">
     <defs>
      <path id="DejaVuSans-Bold-29" d="M 588 4666
L 3834 4666
L 3834 3756
L 1791 3756
L 1791 2888
L 3713 2888
L 3713 1978
L 1791 1978
L 1791 0
L 588 0
L 588 4666
z
" transform="scale(0.015625)"/>
      <path id="DejaVuSans-Bold-55" d="M 3138 2547
Q 2991 2616 2845 2648
Q 2700 2681 2553 2681
Q 2122 2681 1889 2404
Q 1656 2128 1656 1613
L 1656 0
L 538 0
L 538 3500
L 1656 3500
L 1656 2925
Q 1872 3269 2151 3426
Q 2431 3584 2822 3584
Q 2878 3584 2943 3579
Q 3009 3575 3134 3559
L 3138 2547
z
" transform="scale(0.015625)"/>
      <path id="DejaVuSans-Bold-48" d="M 4031 1759
L 4031 1441
L 1416 1441
Q 1456 1047 1700 850
Q 1944 653 2381 653
Q 2734 653 3104 758
Q 3475 863 3866 1075
L 3866 213
Q 3469 63 3072 -14
Q 2675 -91 2278 -91
Q 1328 -91 801 392
Q 275 875 275 1747
Q 275 2603 792 3093
Q 1309 3584 2216 3584
Q 3041 3584 3536 3087
Q 4031 2591 4031 1759
z
M 2881 2131
Q 2881 2450 2695 2645
Q 2509 2841 2209 2841
Q 1884 2841 1681 2658
Q 1478 2475 1428 2131
L 2881 2131
z
" transform="scale(0.015625)"/>
      <path id="DejaVuSans-Bold-56" d="M 3272 3391
L 3272 2541
Q 2913 2691 2578 2766
Q 2244 2841 1947 2841
Q 1628 2841 1473 2761
Q 1319 2681 1319 2516
Q 1319 2381 1436 2309
Q 1553 2238 1856 2203
L 2053 2175
Q 2913 2066 3209 1816
Q 3506 1566 3506 1031
Q 3506 472 3093 190
Q 2681 -91 1863 -91
Q 1516 -91 1145 -36
Q 775 19 384 128
L 384 978
Q 719 816 1070 734
Q 1422 653 1784 653
Q 2113 653 2278 743
Q 2444 834 2444 1013
Q 2444 1163 2330 1236
Q 2216 1309 1875 1350
L 1678 1375
Q 931 1469 631 1722
Q 331 1975 331 2491
Q 331 3047 712 3315
Q 1094 3584 1881 3584
Q 2191 3584 2531 3537
Q 2872 3491 3272 3391
z
" transform="scale(0.015625)"/>
      <path id="DejaVuSans-Bold-4b" d="M 4056 2131
L 4056 0
L 2931 0
L 2931 347
L 2931 1625
Q 2931 2084 2911 2256
Q 2891 2428 2841 2509
Q 2775 2619 2662 2680
Q 2550 2741 2406 2741
Q 2056 2741 1856 2470
Q 1656 2200 1656 1722
L 1656 0
L 538 0
L 538 4863
L 1656 4863
L 1656 2988
Q 1909 3294 2193 3439
Q 2478 3584 2822 3584
Q 3428 3584 3742 3212
Q 4056 2841 4056 2131
z
" transform="scale(0.015625)"/>
      <path id="DejaVuSans-Bold-3" transform="scale(0.015625)"/>
      <path id="DejaVuSans-Bold-36" d="M 3834 4519
L 3834 3531
Q 3450 3703 3084 3790
Q 2719 3878 2394 3878
Q 1963 3878 1756 3759
Q 1550 3641 1550 3391
Q 1550 3203 1689 3098
Q 1828 2994 2194 2919
L 2706 2816
Q 3484 2659 3812 2340
Q 4141 2022 4141 1434
Q 4141 663 3683 286
Q 3225 -91 2284 -91
Q 1841 -91 1394 -6
Q 947 78 500 244
L 500 1259
Q 947 1022 1364 901
Q 1781 781 2169 781
Q 2563 781 2772 912
Q 2981 1044 2981 1288
Q 2981 1506 2839 1625
Q 2697 1744 2272 1838
L 1806 1941
Q 1106 2091 782 2419
Q 459 2747 459 3303
Q 459 4000 909 4375
Q 1359 4750 2203 4750
Q 2588 4750 2994 4692
Q 3400 4634 3834 4519
z
" transform="scale(0.015625)"/>
      <path id="DejaVuSans-Bold-4f" d="M 538 4863
L 1656 4863
L 1656 0
L 538 0
L 538 4863
z
" transform="scale(0.015625)"/>
      <path id="DejaVuSans-Bold-44" d="M 2106 1575
Q 1756 1575 1579 1456
Q 1403 1338 1403 1106
Q 1403 894 1545 773
Q 1688 653 1941 653
Q 2256 653 2472 879
Q 2688 1106 2688 1447
L 2688 1575
L 2106 1575
z
M 3816 1997
L 3816 0
L 2688 0
L 2688 519
Q 2463 200 2181 54
Q 1900 -91 1497 -91
Q 953 -91 614 226
Q 275 544 275 1050
Q 275 1666 698 1953
Q 1122 2241 2028 2241
L 2688 2241
L 2688 2328
Q 2688 2594 2478 2717
Q 2269 2841 1825 2841
Q 1466 2841 1156 2769
Q 847 2697 581 2553
L 581 3406
Q 941 3494 1303 3539
Q 1666 3584 2028 3584
Q 2975 3584 3395 3211
Q 3816 2838 3816 1997
z
" transform="scale(0.015625)"/>
      <path id="DejaVuSans-Bold-46" d="M 3366 3391
L 3366 2478
Q 3138 2634 2908 2709
Q 2678 2784 2431 2784
Q 1963 2784 1702 2511
Q 1441 2238 1441 1747
Q 1441 1256 1702 982
Q 1963 709 2431 709
Q 2694 709 2930 787
Q 3166 866 3366 1019
L 3366 103
Q 3103 6 2833 -42
Q 2563 -91 2291 -91
Q 1344 -91 809 395
Q 275 881 275 1747
Q 275 2613 809 3098
Q 1344 3584 2291 3584
Q 2566 3584 2833 3536
Q 3100 3488 3366 3391
z
" transform="scale(0.015625)"/>
      <path id="DejaVuSans-Bold-4e" d="M 538 4863
L 1656 4863
L 1656 2216
L 2944 3500
L 4244 3500
L 2534 1894
L 4378 0
L 3022 0
L 1656 1459
L 1656 0
L 538 0
L 538 4863
z
" transform="scale(0.015625)"/>
      <path id="DejaVuSans-Bold-79" d="M 653 2828
L 1778 2828
L 1778 1619
L 653 1619
L 653 2828
z
" transform="scale(0.015625)"/>
      <path id="DejaVuSans-Bold-4a" d="M 2919 594
Q 2688 288 2409 144
Q 2131 0 1766 0
Q 1125 0 706 504
Q 288 1009 288 1791
Q 288 2575 706 3076
Q 1125 3578 1766 3578
Q 2131 3578 2409 3434
Q 2688 3291 2919 2981
L 2919 3500
L 4044 3500
L 4044 353
Q 4044 -491 3511 -936
Q 2978 -1381 1966 -1381
Q 1638 -1381 1331 -1331
Q 1025 -1281 716 -1178
L 716 -306
Q 1009 -475 1290 -558
Q 1572 -641 1856 -641
Q 2406 -641 2662 -400
Q 2919 -159 2919 353
L 2919 594
z
M 2181 2772
Q 1834 2772 1640 2515
Q 1447 2259 1447 1791
Q 1447 1309 1634 1061
Q 1822 813 2181 813
Q 2531 813 2725 1069
Q 2919 1325 2919 1791
Q 2919 2259 2725 2515
Q 2531 2772 2181 2772
z
" transform="scale(0.015625)"/>
      <path id="DejaVuSans-Bold-51" d="M 4056 2131
L 4056 0
L 2931 0
L 2931 347
L 2931 1631
Q 2931 2084 2911 2256
Q 2891 2428 2841 2509
Q 2775 2619 2662 2680
Q 2550 2741 2406 2741
Q 2056 2741 1856 2470
Q 1656 2200 1656 1722
L 1656 0
L 538 0
L 538 3500
L 1656 3500
L 1656 2988
Q 1909 3294 2193 3439
Q 2478 3584 2822 3584
Q 3428 3584 3742 3212
Q 4056 2841 4056 2131
z
" transform="scale(0.015625)"/>
      <path id="DejaVuSans-Bold-20" d="M 678 3084
L 4684 3084
L 4684 2350
L 678 2350
L 678 3084
z
M 678 1663
L 4684 1663
L 4684 922
L 678 922
L 678 1663
z
" transform="scale(0.015625)"/>
      <path id="DejaVuSans-Bold-4c" d="M 538 3500
L 1656 3500
L 1656 0
L 538 0
L 538 3500
z
M 538 4863
L 1656 4863
L 1656 3950
L 538 3950
L 538 4863
z
" transform="scale(0.015625)"/>
      <path id="DejaVuSans-Bold-57" d="M 1759 4494
L 1759 3500
L 2913 3500
L 2913 2700
L 1759 2700
L 1759 1216
Q 1759 972 1856 886
Q 1953 800 2241 800
L 2816 800
L 2816 0
L 1856 0
Q 1194 0 917 276
Q 641 553 641 1216
L 641 2700
L 84 2700
L 84 3500
L 641 3500
L 641 4494
L 1759 4494
z
" transform="scale(0.015625)"/>
      <path id="DejaVuSans-Bold-47" d="M 2919 2988
L 2919 4863
L 4044 4863
L 4044 0
L 2919 0
L 2919 506
Q 2688 197 2409 53
Q 2131 -91 1766 -91
Q 1119 -91 703 423
Q 288 938 288 1747
Q 288 2556 703 3070
Q 1119 3584 1766 3584
Q 2128 3584 2408 3439
Q 2688 3294 2919 2988
z
M 2181 722
Q 2541 722 2730 984
Q 2919 1247 2919 1747
Q 2919 2247 2730 2509
Q 2541 2772 2181 2772
Q 1825 2772 1636 2509
Q 1447 2247 1447 1747
Q 1447 1247 1636 984
Q 1825 722 2181 722
z
" transform="scale(0.015625)"/>
      <path id="DejaVuSans-Bold-21" d="M 678 3041
L 678 3822
L 4684 2375
L 4684 1638
L 678 191
L 678 972
L 3694 2003
L 678 3041
z
" transform="scale(0.015625)"/>
      <path id="DejaVuSans-Bold-13" d="M 2944 2338
Q 2944 3213 2780 3570
Q 2616 3928 2228 3928
Q 1841 3928 1675 3570
Q 1509 3213 1509 2338
Q 1509 1453 1675 1090
Q 1841 728 2228 728
Q 2613 728 2778 1090
Q 2944 1453 2944 2338
z
M 4147 2328
Q 4147 1169 3647 539
Q 3147 -91 2228 -91
Q 1306 -91 806 539
Q 306 1169 306 2328
Q 306 3491 806 4120
Q 1306 4750 2228 4750
Q 3147 4750 3647 4120
Q 4147 3491 4147 2328
z
" transform="scale(0.015625)"/>
     </defs>
     <use xlink:href="#DejaVuSans-Bold-29"/>
     <use xlink:href="#DejaVuSans-Bold-55" transform="translate(61.921875 0)"/>
     <use xlink:href="#DejaVuSans-Bold-48" transform="translate(111.234375 0)"/>
     <use xlink:href="#DejaVuSans-Bold-56" transform="translate(179.0625 0)"/>
     <use xlink:href="#DejaVuSans-Bold-4b" transform="translate(238.578125 0)"/>
     <use xlink:href="#DejaVuSans-Bold-3" transform="translate(309.765625 0)"/>
     <use xlink:href="#DejaVuSans-Bold-36" transform="translate(344.578125 0)"/>
     <use xlink:href="#DejaVuSans-Bold-4f" transform="translate(416.59375 0)"/>
     <use xlink:href="#DejaVuSans-Bold-44" transform="translate(450.875 0)"/>
     <use xlink:href="#DejaVuSans-Bold-46" transform="translate(518.359375 0)"/>
     <use xlink:href="#DejaVuSans-Bold-4e" transform="translate(577.640625 0)"/>
     <use xlink:href="#DejaVuSans-Bold-3" transform="translate(644.140625 0)"/>
     <use xlink:href="#DejaVuSans-Bold-79" transform="translate(678.953125 0)"/>
     <use xlink:href="#DejaVuSans-Bold-3" transform="translate(716.9375 0)"/>
     <use xlink:href="#DejaVuSans-Bold-4a" transform="translate(751.75 0)"/>
     <use xlink:href="#DejaVuSans-Bold-55" transform="translate(823.328125 0)"/>
     <use xlink:href="#DejaVuSans-Bold-48" transform="translate(872.640625 0)"/>
     <use xlink:href="#DejaVuSans-Bold-48" transform="translate(940.46875 0)"/>
     <use xlink:href="#DejaVuSans-Bold-51" transform="translate(1008.296875 0)"/>
     <use xlink:href="#DejaVuSans-Bold-3" transform="translate(1079.484375 0)"/>
     <use xlink:href="#DejaVuSans-Bold-20" transform="translate(1114.296875 0)"/>
     <use xlink:href="#DejaVuSans-Bold-3" transform="translate(1198.09375 0)"/>
     <use xlink:href="#DejaVuSans-Bold-55" transform="translate(1232.90625 0)"/>
     <use xlink:href="#DejaVuSans-Bold-48" transform="translate(1282.21875 0)"/>
     <use xlink:href="#DejaVuSans-Bold-4a" transform="translate(1350.046875 0)"/>
     <use xlink:href="#DejaVuSans-Bold-4c" transform="translate(1421.625 0)"/>
     <use xlink:href="#DejaVuSans-Bold-56" transform="translate(1455.90625 0)"/>
     <use xlink:href="#DejaVuSans-Bold-57" transform="translate(1515.421875 0)"/>
     <use xlink:href="#DejaVuSans-Bold-48" transform="translate(1563.21875 0)"/>
     <use xlink:href="#DejaVuSans-Bold-55" transform="translate(1631.046875 0)"/>
     <use xlink:href="#DejaVuSans-Bold-48" transform="translate(1680.359375 0)"/>
     <use xlink:href="#DejaVuSans-Bold-47" transform="translate(1748.1875 0)"/>
     <use xlink:href="#DejaVuSans-Bold-3" transform="translate(1819.765625 0)"/>
     <use xlink:href="#DejaVuSans-Bold-21" transform="translate(1854.578125 0)"/>
     <use xlink:href="#DejaVuSans-Bold-13" transform="translate(1938.375 0)"/>
    </g>
   </g>
  </g>
  <g id="axes_2">
   <g id="patch_6">
    <path d="M 404.285223 272.598848
L 562.646998 272.598848
L 562.646998 37.744855
L 404.285223 37.744855
z
" style="fill: #ffffff"/>
   </g>
   <g id="patch_7">
    <path d="M 467.164163 272.598848
L 562.646998 272.598848
L 562.646998 37.744855
L 467.164163 37.744855
z
" clip-path="url(#p7176734ffd)" style="fill: #d1fae5; opacity: 0.45; stroke: #d1fae5; stroke-linejoin: miter"/>
   </g>
   <g id="matplotlib.axis_3">
    <g id="xtick_4">
     <g id="line2d_24">
      <path d="M 420.587171 272.598848
L 420.587171 37.744855
" clip-path="url(#p7176734ffd)" style="fill: none; stroke: #e5e7eb; stroke-opacity: 0.9; stroke-width: 0.7; stroke-linecap: square"/>
     </g>
     <g id="line2d_25">
      <g>
       <use xlink:href="#m34e9f9c79c" x="420.587171" y="272.598848" style="fill: #4b5563; stroke: #4b5563; stroke-width: 0.8"/>
      </g>
     </g>
     <g id="text_10">
      <!-- −1 -->
      <g style="fill: #4b5563" transform="translate(414.837717 285.52502) scale(0.078 -0.078)">
       <defs>
        <path id="DejaVuSans-14" d="M 794 531
L 1825 531
L 1825 4091
L 703 3866
L 703 4441
L 1819 4666
L 2450 4666
L 2450 531
L 3481 531
L 3481 0
L 794 0
L 794 531
z
" transform="scale(0.015625)"/>
       </defs>
       <use xlink:href="#DejaVuSans-c9c"/>
       <use xlink:href="#DejaVuSans-14" transform="translate(83.796875 0)"/>
      </g>
     </g>
    </g>
    <g id="xtick_5">
     <g id="line2d_26">
      <path d="M 467.164163 272.598848
L 467.164163 37.744855
" clip-path="url(#p7176734ffd)" style="fill: none; stroke: #e5e7eb; stroke-opacity: 0.9; stroke-width: 0.7; stroke-linecap: square"/>
     </g>
     <g id="line2d_27">
      <g>
       <use xlink:href="#m34e9f9c79c" x="467.164163" y="272.598848" style="fill: #4b5563; stroke: #4b5563; stroke-width: 0.8"/>
      </g>
     </g>
     <g id="text_11">
      <!-- 0 -->
      <g style="fill: #4b5563" transform="translate(464.682788 285.52502) scale(0.078 -0.078)">
       <use xlink:href="#DejaVuSans-13"/>
      </g>
     </g>
    </g>
    <g id="xtick_6">
     <g id="line2d_28">
      <path d="M 513.741156 272.598848
L 513.741156 37.744855
" clip-path="url(#p7176734ffd)" style="fill: none; stroke: #e5e7eb; stroke-opacity: 0.9; stroke-width: 0.7; stroke-linecap: square"/>
     </g>
     <g id="line2d_29">
      <g>
       <use xlink:href="#m34e9f9c79c" x="513.741156" y="272.598848" style="fill: #4b5563; stroke: #4b5563; stroke-width: 0.8"/>
      </g>
     </g>
     <g id="text_12">
      <!-- 1 -->
      <g style="fill: #4b5563" transform="translate(511.259781 285.52502) scale(0.078 -0.078)">
       <use xlink:href="#DejaVuSans-14"/>
      </g>
     </g>
    </g>
    <g id="xtick_7">
     <g id="line2d_30">
      <path d="M 560.318148 272.598848
L 560.318148 37.744855
" clip-path="url(#p7176734ffd)" style="fill: none; stroke: #e5e7eb; stroke-opacity: 0.9; stroke-width: 0.7; stroke-linecap: square"/>
     </g>
     <g id="line2d_31">
      <g>
       <use xlink:href="#m34e9f9c79c" x="560.318148" y="272.598848" style="fill: #4b5563; stroke: #4b5563; stroke-width: 0.8"/>
      </g>
     </g>
     <g id="text_13">
      <!-- 2 -->
      <g style="fill: #4b5563" transform="translate(557.836773 285.52502) scale(0.078 -0.078)">
       <use xlink:href="#DejaVuSans-15"/>
      </g>
     </g>
    </g>
    <g id="text_14">
     <!-- Matched class contrast in ΔNLL -->
     <g style="fill: #172033" transform="translate(416.22486 297.933504) scale(0.086 -0.086)">
      <use xlink:href="#DejaVuSans-30"/>
      <use xlink:href="#DejaVuSans-44" transform="translate(86.28125 0)"/>
      <use xlink:href="#DejaVuSans-57" transform="translate(147.5625 0)"/>
      <use xlink:href="#DejaVuSans-46" transform="translate(186.765625 0)"/>
      <use xlink:href="#DejaVuSans-4b" transform="translate(241.75 0)"/>
      <use xlink:href="#DejaVuSans-48" transform="translate(305.125 0)"/>
      <use xlink:href="#DejaVuSans-47" transform="translate(366.65625 0)"/>
      <use xlink:href="#DejaVuSans-3" transform="translate(430.140625 0)"/>
      <use xlink:href="#DejaVuSans-46" transform="translate(461.921875 0)"/>
      <use xlink:href="#DejaVuSans-4f" transform="translate(516.90625 0)"/>
      <use xlink:href="#DejaVuSans-44" transform="translate(544.6875 0)"/>
      <use xlink:href="#DejaVuSans-56" transform="translate(605.96875 0)"/>
      <use xlink:href="#DejaVuSans-56" transform="translate(658.0625 0)"/>
      <use xlink:href="#DejaVuSans-3" transform="translate(710.15625 0)"/>
      <use xlink:href="#DejaVuSans-46" transform="translate(741.9375 0)"/>
      <use xlink:href="#DejaVuSans-52" transform="translate(796.921875 0)"/>
      <use xlink:href="#DejaVuSans-51" transform="translate(858.109375 0)"/>
      <use xlink:href="#DejaVuSans-57" transform="translate(921.484375 0)"/>
      <use xlink:href="#DejaVuSans-55" transform="translate(960.6875 0)"/>
      <use xlink:href="#DejaVuSans-44" transform="translate(1001.796875 0)"/>
      <use xlink:href="#DejaVuSans-56" transform="translate(1063.078125 0)"/>
      <use xlink:href="#DejaVuSans-57" transform="translate(1115.171875 0)"/>
      <use xlink:href="#DejaVuSans-3" transform="translate(1154.375 0)"/>
      <use xlink:href="#DejaVuSans-4c" transform="translate(1186.15625 0)"/>
      <use xlink:href="#DejaVuSans-51" transform="translate(1213.9375 0)"/>
      <use xlink:href="#DejaVuSans-3" transform="translate(1277.3125 0)"/>
      <use xlink:href="#DejaVuSans-329" transform="translate(1309.09375 0)"/>
      <use xlink:href="#DejaVuSans-31" transform="translate(1377.5 0)"/>
      <use xlink:href="#DejaVuSans-2f" transform="translate(1452.3125 0)"/>
      <use xlink:href="#DejaVuSans-2f" transform="translate(1508.03125 0)"/>
     </g>
    </g>
   </g>
   <g id="matplotlib.axis_4">
    <g id="ytick_5">
     <g id="line2d_32">
      <g>
       <use xlink:href="#m0c132c9157" x="404.285223" y="48.420037" style="fill: #4b5563; stroke: #4b5563; stroke-width: 0.8"/>
      </g>
     </g>
     <g id="text_15">
      <!-- Provider-unit starts · primary -->
      <g style="fill: #4b5563" transform="translate(285.072473 51.383427) scale(0.078 -0.078)">
       <defs>
        <path id="DejaVuSans-59" d="M 191 3500
L 800 3500
L 1894 563
L 2988 3500
L 3597 3500
L 2284 0
L 1503 0
L 191 3500
z
" transform="scale(0.015625)"/>
        <path id="DejaVuSans-10" d="M 313 2009
L 1997 2009
L 1997 1497
L 313 1497
L 313 2009
z
" transform="scale(0.015625)"/>
       </defs>
       <use xlink:href="#DejaVuSans-33"/>
       <use xlink:href="#DejaVuSans-55" transform="translate(58.546875 0)"/>
       <use xlink:href="#DejaVuSans-52" transform="translate(97.453125 0)"/>
       <use xlink:href="#DejaVuSans-59" transform="translate(158.640625 0)"/>
       <use xlink:href="#DejaVuSans-4c" transform="translate(217.828125 0)"/>
       <use xlink:href="#DejaVuSans-47" transform="translate(245.609375 0)"/>
       <use xlink:href="#DejaVuSans-48" transform="translate(309.09375 0)"/>
       <use xlink:href="#DejaVuSans-55" transform="translate(370.625 0)"/>
       <use xlink:href="#DejaVuSans-10" transform="translate(405.34375 0)"/>
       <use xlink:href="#DejaVuSans-58" transform="translate(441.421875 0)"/>
       <use xlink:href="#DejaVuSans-51" transform="translate(504.796875 0)"/>
       <use xlink:href="#DejaVuSans-4c" transform="translate(568.171875 0)"/>
       <use xlink:href="#DejaVuSans-57" transform="translate(595.953125 0)"/>
       <use xlink:href="#DejaVuSans-3" transform="translate(635.15625 0)"/>
       <use xlink:href="#DejaVuSans-56" transform="translate(666.9375 0)"/>
       <use xlink:href="#DejaVuSans-57" transform="translate(719.03125 0)"/>
       <use xlink:href="#DejaVuSans-44" transform="translate(758.234375 0)"/>
       <use xlink:href="#DejaVuSans-55" transform="translate(819.515625 0)"/>
       <use xlink:href="#DejaVuSans-57" transform="translate(860.625 0)"/>
       <use xlink:href="#DejaVuSans-56" transform="translate(899.828125 0)"/>
       <use xlink:href="#DejaVuSans-3" transform="translate(951.921875 0)"/>
       <use xlink:href="#DejaVuSans-79" transform="translate(983.703125 0)"/>
       <use xlink:href="#DejaVuSans-3" transform="translate(1015.484375 0)"/>
       <use xlink:href="#DejaVuSans-53" transform="translate(1047.265625 0)"/>
       <use xlink:href="#DejaVuSans-55" transform="translate(1110.75 0)"/>
       <use xlink:href="#DejaVuSans-4c" transform="translate(1151.859375 0)"/>
       <use xlink:href="#DejaVuSans-50" transform="translate(1179.640625 0)"/>
       <use xlink:href="#DejaVuSans-44" transform="translate(1277.046875 0)"/>
       <use xlink:href="#DejaVuSans-55" transform="translate(1338.328125 0)"/>
       <use xlink:href="#DejaVuSans-5c" transform="translate(1379.4375 0)"/>
      </g>
     </g>
    </g>
    <g id="ytick_6">
     <g id="line2d_33">
      <g>
       <use xlink:href="#m0c132c9157" x="404.285223" y="119.587913" style="fill: #4b5563; stroke: #4b5563; stroke-width: 0.8"/>
      </g>
     </g>
     <g id="text_16">
      <!-- Provider-unit starts · secondary -->
      <g style="fill: #4b5563" transform="translate(275.176223 122.551304) scale(0.078 -0.078)">
       <use xlink:href="#DejaVuSans-33"/>
       <use xlink:href="#DejaVuSans-55" transform="translate(58.546875 0)"/>
       <use xlink:href="#DejaVuSans-52" transform="translate(97.453125 0)"/>
       <use xlink:href="#DejaVuSans-59" transform="translate(158.640625 0)"/>
       <use xlink:href="#DejaVuSans-4c" transform="translate(217.828125 0)"/>
       <use xlink:href="#DejaVuSans-47" transform="translate(245.609375 0)"/>
       <use xlink:href="#DejaVuSans-48" transform="translate(309.09375 0)"/>
       <use xlink:href="#DejaVuSans-55" transform="translate(370.625 0)"/>
       <use xlink:href="#DejaVuSans-10" transform="translate(405.34375 0)"/>
       <use xlink:href="#DejaVuSans-58" transform="translate(441.421875 0)"/>
       <use xlink:href="#DejaVuSans-51" transform="translate(504.796875 0)"/>
       <use xlink:href="#DejaVuSans-4c" transform="translate(568.171875 0)"/>
       <use xlink:href="#DejaVuSans-57" transform="translate(595.953125 0)"/>
       <use xlink:href="#DejaVuSans-3" transform="translate(635.15625 0)"/>
       <use xlink:href="#DejaVuSans-56" transform="translate(666.9375 0)"/>
       <use xlink:href="#DejaVuSans-57" transform="translate(719.03125 0)"/>
       <use xlink:href="#DejaVuSans-44" transform="translate(758.234375 0)"/>
       <use xlink:href="#DejaVuSans-55" transform="translate(819.515625 0)"/>
       <use xlink:href="#DejaVuSans-57" transform="translate(860.625 0)"/>
       <use xlink:href="#DejaVuSans-56" transform="translate(899.828125 0)"/>
       <use xlink:href="#DejaVuSans-3" transform="translate(951.921875 0)"/>
       <use xlink:href="#DejaVuSans-79" transform="translate(983.703125 0)"/>
       <use xlink:href="#DejaVuSans-3" transform="translate(1015.484375 0)"/>
       <use xlink:href="#DejaVuSans-56" transform="translate(1047.265625 0)"/>
       <use xlink:href="#DejaVuSans-48" transform="translate(1099.359375 0)"/>
       <use xlink:href="#DejaVuSans-46" transform="translate(1160.890625 0)"/>
       <use xlink:href="#DejaVuSans-52" transform="translate(1215.875 0)"/>
       <use xlink:href="#DejaVuSans-51" transform="translate(1277.0625 0)"/>
       <use xlink:href="#DejaVuSans-47" transform="translate(1340.4375 0)"/>
       <use xlink:href="#DejaVuSans-44" transform="translate(1403.921875 0)"/>
       <use xlink:href="#DejaVuSans-55" transform="translate(1465.203125 0)"/>
       <use xlink:href="#DejaVuSans-5c" transform="translate(1506.3125 0)"/>
      </g>
     </g>
    </g>
    <g id="ytick_7">
     <g id="line2d_34">
      <g>
       <use xlink:href="#m0c132c9157" x="404.285223" y="190.75579" style="fill: #4b5563; stroke: #4b5563; stroke-width: 0.8"/>
      </g>
     </g>
     <g id="text_17">
      <!-- Pronouns · primary -->
      <g style="fill: #4b5563" transform="translate(323.282723 193.719181) scale(0.078 -0.078)">
       <use xlink:href="#DejaVuSans-33"/>
       <use xlink:href="#DejaVuSans-55" transform="translate(58.546875 0)"/>
       <use xlink:href="#DejaVuSans-52" transform="translate(97.453125 0)"/>
       <use xlink:href="#DejaVuSans-51" transform="translate(158.640625 0)"/>
       <use xlink:href="#DejaVuSans-52" transform="translate(222.015625 0)"/>
       <use xlink:href="#DejaVuSans-58" transform="translate(283.203125 0)"/>
       <use xlink:href="#DejaVuSans-51" transform="translate(346.578125 0)"/>
       <use xlink:href="#DejaVuSans-56" transform="translate(409.953125 0)"/>
       <use xlink:href="#DejaVuSans-3" transform="translate(462.046875 0)"/>
       <use xlink:href="#DejaVuSans-79" transform="translate(493.828125 0)"/>
       <use xlink:href="#DejaVuSans-3" transform="translate(525.609375 0)"/>
       <use xlink:href="#DejaVuSans-53" transform="translate(557.390625 0)"/>
       <use xlink:href="#DejaVuSans-55" transform="translate(620.875 0)"/>
       <use xlink:href="#DejaVuSans-4c" transform="translate(661.984375 0)"/>
       <use xlink:href="#DejaVuSans-50" transform="translate(689.765625 0)"/>
       <use xlink:href="#DejaVuSans-44" transform="translate(787.171875 0)"/>
       <use xlink:href="#DejaVuSans-55" transform="translate(848.453125 0)"/>
       <use xlink:href="#DejaVuSans-5c" transform="translate(889.5625 0)"/>
      </g>
     </g>
    </g>
    <g id="ytick_8">
     <g id="line2d_35">
      <g>
       <use xlink:href="#m0c132c9157" x="404.285223" y="261.923667" style="fill: #4b5563; stroke: #4b5563; stroke-width: 0.8"/>
      </g>
     </g>
     <g id="text_18">
      <!-- Pronouns · secondary -->
      <g style="fill: #4b5563" transform="translate(313.386473 264.887057) scale(0.078 -0.078)">
       <use xlink:href="#DejaVuSans-33"/>
       <use xlink:href="#DejaVuSans-55" transform="translate(58.546875 0)"/>
       <use xlink:href="#DejaVuSans-52" transform="translate(97.453125 0)"/>
       <use xlink:href="#DejaVuSans-51" transform="translate(158.640625 0)"/>
       <use xlink:href="#DejaVuSans-52" transform="translate(222.015625 0)"/>
       <use xlink:href="#DejaVuSans-58" transform="translate(283.203125 0)"/>
       <use xlink:href="#DejaVuSans-51" transform="translate(346.578125 0)"/>
       <use xlink:href="#DejaVuSans-56" transform="translate(409.953125 0)"/>
       <use xlink:href="#DejaVuSans-3" transform="translate(462.046875 0)"/>
       <use xlink:href="#DejaVuSans-79" transform="translate(493.828125 0)"/>
       <use xlink:href="#DejaVuSans-3" transform="translate(525.609375 0)"/>
       <use xlink:href="#DejaVuSans-56" transform="translate(557.390625 0)"/>
       <use xlink:href="#DejaVuSans-48" transform="translate(609.484375 0)"/>
       <use xlink:href="#DejaVuSans-46" transform="translate(671.015625 0)"/>
       <use xlink:href="#DejaVuSans-52" transform="translate(726 0)"/>
       <use xlink:href="#DejaVuSans-51" transform="translate(787.1875 0)"/>
       <use xlink:href="#DejaVuSans-47" transform="translate(850.5625 0)"/>
       <use xlink:href="#DejaVuSans-44" transform="translate(914.046875 0)"/>
       <use xlink:href="#DejaVuSans-55" transform="translate(975.328125 0)"/>
       <use xlink:href="#DejaVuSans-5c" transform="translate(1016.4375 0)"/>
      </g>
     </g>
    </g>
   </g>
   <g id="LineCollection_5">
    <path d="M 413.550294 48.420037
L 487.692306 48.420037
" clip-path="url(#p7176734ffd)" style="fill: none; stroke: #d97706; stroke-width: 1.5"/>
   </g>
   <g id="line2d_36">
    <defs>
     <path id="ma05c5d3cab" d="M 0 3
L 0 -3
" style="stroke: #d97706"/>
    </defs>
    <g clip-path="url(#p7176734ffd)">
     <use xlink:href="#ma05c5d3cab" x="413.550294" y="48.420037" style="fill: #d97706; stroke: #d97706"/>
    </g>
   </g>
   <g id="line2d_37">
    <g clip-path="url(#p7176734ffd)">
     <use xlink:href="#ma05c5d3cab" x="487.692306" y="48.420037" style="fill: #d97706; stroke: #d97706"/>
    </g>
   </g>
   <g id="LineCollection_6">
    <path d="M 409.834586 119.587913
L 555.303224 119.587913
" clip-path="url(#p7176734ffd)" style="fill: none; stroke: #d97706; stroke-width: 1.5"/>
   </g>
   <g id="line2d_38">
    <g clip-path="url(#p7176734ffd)">
     <use xlink:href="#ma05c5d3cab" x="409.834586" y="119.587913" style="fill: #d97706; stroke: #d97706"/>
    </g>
   </g>
   <g id="line2d_39">
    <g clip-path="url(#p7176734ffd)">
     <use xlink:href="#ma05c5d3cab" x="555.303224" y="119.587913" style="fill: #d97706; stroke: #d97706"/>
    </g>
   </g>
   <g id="LineCollection_7">
    <path d="M 456.448232 190.75579
L 474.574599 190.75579
" clip-path="url(#p7176734ffd)" style="fill: none; stroke: #d97706; stroke-width: 1.5"/>
   </g>
   <g id="line2d_40">
    <g clip-path="url(#p7176734ffd)">
     <use xlink:href="#ma05c5d3cab" x="456.448232" y="190.75579" style="fill: #d97706; stroke: #d97706"/>
    </g>
   </g>
   <g id="line2d_41">
    <g clip-path="url(#p7176734ffd)">
     <use xlink:href="#ma05c5d3cab" x="474.574599" y="190.75579" style="fill: #d97706; stroke: #d97706"/>
    </g>
   </g>
   <g id="LineCollection_8">
    <path d="M 464.455447 261.923667
L 482.170819 261.923667
" clip-path="url(#p7176734ffd)" style="fill: none; stroke: #d97706; stroke-width: 1.5"/>
   </g>
   <g id="line2d_42">
    <g clip-path="url(#p7176734ffd)">
     <use xlink:href="#ma05c5d3cab" x="464.455447" y="261.923667" style="fill: #d97706; stroke: #d97706"/>
    </g>
   </g>
   <g id="line2d_43">
    <g clip-path="url(#p7176734ffd)">
     <use xlink:href="#ma05c5d3cab" x="482.170819" y="261.923667" style="fill: #d97706; stroke: #d97706"/>
    </g>
   </g>
   <g id="line2d_44">
    <path d="M 467.164163 272.598848
L 467.164163 37.744855
" clip-path="url(#p7176734ffd)" style="fill: none; stroke: #172033; stroke-linecap: square"/>
   </g>
   <g id="line2d_45">
    <defs>
     <path id="m3dbc7705f7" d="M 0 2.6
C 0.689528 2.6 1.350908 2.326048 1.838478 1.838478
C 2.326048 1.350908 2.6 0.689528 2.6 0
C 2.6 -0.689528 2.326048 -1.350908 1.838478 -1.838478
C 1.350908 -2.326048 0.689528 -2.6 0 -2.6
C -0.689528 -2.6 -1.350908 -2.326048 -1.838478 -1.838478
C -2.326048 -1.350908 -2.6 -0.689528 -2.6 0
C -2.6 0.689528 -2.326048 1.350908 -1.838478 1.838478
C -1.350908 2.326048 -0.689528 2.6 0 2.6
z
" style="stroke: #d97706"/>
    </defs>
    <g clip-path="url(#p7176734ffd)">
     <use xlink:href="#m3dbc7705f7" x="454.552851" y="48.420037" style="fill: #d97706; stroke: #d97706"/>
    </g>
   </g>
   <g id="line2d_46">
    <defs>
     <path id="m7de746f905" d="M 0 2.6
C 0.689528 2.6 1.350908 2.326048 1.838478 1.838478
C 2.326048 1.350908 2.6 0.689528 2.6 0
C 2.6 -0.689528 2.326048 -1.350908 1.838478 -1.838478
C 1.350908 -2.326048 0.689528 -2.6 0 -2.6
C -0.689528 -2.6 -1.350908 -2.326048 -1.838478 -1.838478
C -2.326048 -1.350908 -2.6 -0.689528 -2.6 0
C -2.6 0.689528 -2.326048 1.350908 -1.838478 1.838478
C -1.350908 2.326048 -0.689528 2.6 0 2.6
z
" style="stroke: #d97706"/>
    </defs>
    <g clip-path="url(#p7176734ffd)">
     <use xlink:href="#m7de746f905" x="487.018243" y="119.587913" style="fill: #ffffff; stroke: #d97706"/>
    </g>
   </g>
   <g id="line2d_47">
    <g clip-path="url(#p7176734ffd)">
     <use xlink:href="#m3dbc7705f7" x="465.672691" y="190.75579" style="fill: #d97706; stroke: #d97706"/>
    </g>
   </g>
   <g id="line2d_48">
    <g clip-path="url(#p7176734ffd)">
     <use xlink:href="#m7de746f905" x="473.482917" y="261.923667" style="fill: #ffffff; stroke: #d97706"/>
    </g>
   </g>
   <g id="patch_8">
    <path d="M 404.285223 272.598848
L 404.285223 37.744855
" style="fill: none; stroke: #9ca3af; stroke-width: 0.8; stroke-linejoin: miter; stroke-linecap: square"/>
   </g>
   <g id="patch_9">
    <path d="M 404.285223 272.598848
L 562.646998 272.598848
" style="fill: none; stroke: #9ca3af; stroke-width: 0.8; stroke-linejoin: miter; stroke-linecap: square"/>
   </g>
   <g id="text_19">
    <!-- Fresh assistant math · green = registered &gt;0 -->
    <g style="fill: #172033" transform="translate(404.285223 31.744855) scale(0.096 -0.096)">
     <defs>
      <path id="DejaVuSans-Bold-50" d="M 3781 2919
Q 3994 3244 4286 3414
Q 4578 3584 4928 3584
Q 5531 3584 5847 3212
Q 6163 2841 6163 2131
L 6163 0
L 5038 0
L 5038 1825
Q 5041 1866 5042 1909
Q 5044 1953 5044 2034
Q 5044 2406 4934 2573
Q 4825 2741 4581 2741
Q 4263 2741 4089 2478
Q 3916 2216 3909 1719
L 3909 0
L 2784 0
L 2784 1825
Q 2784 2406 2684 2573
Q 2584 2741 2328 2741
Q 2006 2741 1831 2477
Q 1656 2213 1656 1722
L 1656 0
L 531 0
L 531 3500
L 1656 3500
L 1656 2988
Q 1863 3284 2130 3434
Q 2397 3584 2719 3584
Q 3081 3584 3359 3409
Q 3638 3234 3781 2919
z
" transform="scale(0.015625)"/>
     </defs>
     <use xlink:href="#DejaVuSans-Bold-29"/>
     <use xlink:href="#DejaVuSans-Bold-55" transform="translate(61.921875 0)"/>
     <use xlink:href="#DejaVuSans-Bold-48" transform="translate(111.234375 0)"/>
     <use xlink:href="#DejaVuSans-Bold-56" transform="translate(179.0625 0)"/>
     <use xlink:href="#DejaVuSans-Bold-4b" transform="translate(238.578125 0)"/>
     <use xlink:href="#DejaVuSans-Bold-3" transform="translate(309.765625 0)"/>
     <use xlink:href="#DejaVuSans-Bold-44" transform="translate(344.578125 0)"/>
     <use xlink:href="#DejaVuSans-Bold-56" transform="translate(412.0625 0)"/>
     <use xlink:href="#DejaVuSans-Bold-56" transform="translate(471.578125 0)"/>
     <use xlink:href="#DejaVuSans-Bold-4c" transform="translate(531.09375 0)"/>
     <use xlink:href="#DejaVuSans-Bold-56" transform="translate(565.375 0)"/>
     <use xlink:href="#DejaVuSans-Bold-57" transform="translate(624.890625 0)"/>
     <use xlink:href="#DejaVuSans-Bold-44" transform="translate(672.6875 0)"/>
     <use xlink:href="#DejaVuSans-Bold-51" transform="translate(740.171875 0)"/>
     <use xlink:href="#DejaVuSans-Bold-57" transform="translate(811.359375 0)"/>
     <use xlink:href="#DejaVuSans-Bold-3" transform="translate(859.15625 0)"/>
     <use xlink:href="#DejaVuSans-Bold-50" transform="translate(893.96875 0)"/>
     <use xlink:href="#DejaVuSans-Bold-44" transform="translate(998.171875 0)"/>
     <use xlink:href="#DejaVuSans-Bold-57" transform="translate(1065.65625 0)"/>
     <use xlink:href="#DejaVuSans-Bold-4b" transform="translate(1113.453125 0)"/>
     <use xlink:href="#DejaVuSans-Bold-3" transform="translate(1184.640625 0)"/>
     <use xlink:href="#DejaVuSans-Bold-79" transform="translate(1219.453125 0)"/>
     <use xlink:href="#DejaVuSans-Bold-3" transform="translate(1257.4375 0)"/>
     <use xlink:href="#DejaVuSans-Bold-4a" transform="translate(1292.25 0)"/>
     <use xlink:href="#DejaVuSans-Bold-55" transform="translate(1363.828125 0)"/>
     <use xlink:href="#DejaVuSans-Bold-48" transform="translate(1413.140625 0)"/>
     <use xlink:href="#DejaVuSans-Bold-48" transform="translate(1480.96875 0)"/>
     <use xlink:href="#DejaVuSans-Bold-51" transform="translate(1548.796875 0)"/>
     <use xlink:href="#DejaVuSans-Bold-3" transform="translate(1619.984375 0)"/>
     <use xlink:href="#DejaVuSans-Bold-20" transform="translate(1654.796875 0)"/>
     <use xlink:href="#DejaVuSans-Bold-3" transform="translate(1738.59375 0)"/>
     <use xlink:href="#DejaVuSans-Bold-55" transform="translate(1773.40625 0)"/>
     <use xlink:href="#DejaVuSans-Bold-48" transform="translate(1822.71875 0)"/>
     <use xlink:href="#DejaVuSans-Bold-4a" transform="translate(1890.546875 0)"/>
     <use xlink:href="#DejaVuSans-Bold-4c" transform="translate(1962.125 0)"/>
     <use xlink:href="#DejaVuSans-Bold-56" transform="translate(1996.40625 0)"/>
     <use xlink:href="#DejaVuSans-Bold-57" transform="translate(2055.921875 0)"/>
     <use xlink:href="#DejaVuSans-Bold-48" transform="translate(2103.71875 0)"/>
     <use xlink:href="#DejaVuSans-Bold-55" transform="translate(2171.546875 0)"/>
     <use xlink:href="#DejaVuSans-Bold-48" transform="translate(2220.859375 0)"/>
     <use xlink:href="#DejaVuSans-Bold-47" transform="translate(2288.6875 0)"/>
     <use xlink:href="#DejaVuSans-Bold-3" transform="translate(2360.265625 0)"/>
     <use xlink:href="#DejaVuSans-Bold-21" transform="translate(2395.078125 0)"/>
     <use xlink:href="#DejaVuSans-Bold-13" transform="translate(2478.875 0)"/>
    </g>
   </g>
  </g>
  <g id="text_20">
   <!-- F7-7b | Fresh class effects are null or reversed—not the registered positive effect -->
   <g transform="translate(9.81576 15.75925) scale(0.112 -0.112)">
    <defs>
     <path id="DejaVuSans-Bold-1a" d="M 428 4666
L 3944 4666
L 3944 3988
L 2125 0
L 953 0
L 2675 3781
L 428 3781
L 428 4666
z
" transform="scale(0.015625)"/>
     <path id="DejaVuSans-Bold-10" d="M 347 2297
L 2309 2297
L 2309 1388
L 347 1388
L 347 2297
z
" transform="scale(0.015625)"/>
     <path id="DejaVuSans-Bold-45" d="M 2400 722
Q 2759 722 2948 984
Q 3138 1247 3138 1747
Q 3138 2247 2948 2509
Q 2759 2772 2400 2772
Q 2041 2772 1848 2508
Q 1656 2244 1656 1747
Q 1656 1250 1848 986
Q 2041 722 2400 722
z
M 1656 2988
Q 1888 3294 2169 3439
Q 2450 3584 2816 3584
Q 3463 3584 3878 3070
Q 4294 2556 4294 1747
Q 4294 938 3878 423
Q 3463 -91 2816 -91
Q 2450 -91 2169 54
Q 1888 200 1656 506
L 1656 0
L 538 0
L 538 4863
L 1656 4863
L 1656 2988
z
" transform="scale(0.015625)"/>
     <path id="DejaVuSans-Bold-5f" d="M 1522 4891
L 1522 -1509
L 813 -1509
L 813 4891
L 1522 4891
z
" transform="scale(0.015625)"/>
     <path id="DejaVuSans-Bold-13aa" d="M 2841 4863
L 2841 4128
L 2222 4128
Q 1984 4128 1891 4044
Q 1797 3956 1797 3744
L 1797 3500
L 3078 3500
L 3078 3744
Q 3078 4316 3397 4588
Q 3716 4863 4384 4863
L 5241 4863
L 5241 4128
L 4622 4128
Q 4384 4128 4291 4044
Q 4197 3956 4197 3744
L 4197 3500
L 5153 3500
L 5153 2700
L 4197 2700
L 4197 0
L 3078 0
L 3078 2700
L 1797 2700
L 1797 0
L 678 0
L 678 2700
L 122 2700
L 122 3500
L 678 3500
L 678 3744
Q 678 4316 997 4588
Q 1316 4863 1984 4863
L 2841 4863
z
" transform="scale(0.015625)"/>
     <path id="DejaVuSans-Bold-58" d="M 500 1363
L 500 3500
L 1625 3500
L 1625 3150
Q 1625 2866 1622 2436
Q 1619 2006 1619 1863
Q 1619 1441 1641 1255
Q 1663 1069 1716 984
Q 1784 875 1895 815
Q 2006 756 2150 756
Q 2500 756 2700 1025
Q 2900 1294 2900 1772
L 2900 3500
L 4019 3500
L 4019 0
L 2900 0
L 2900 506
Q 2647 200 2364 54
Q 2081 -91 1741 -91
Q 1134 -91 817 281
Q 500 653 500 1363
z
" transform="scale(0.015625)"/>
     <path id="DejaVuSans-Bold-52" d="M 2203 2784
Q 1831 2784 1636 2517
Q 1441 2250 1441 1747
Q 1441 1244 1636 976
Q 1831 709 2203 709
Q 2569 709 2762 976
Q 2956 1244 2956 1747
Q 2956 2250 2762 2517
Q 2569 2784 2203 2784
z
M 2203 3584
Q 3106 3584 3614 3096
Q 4122 2609 4122 1747
Q 4122 884 3614 396
Q 3106 -91 2203 -91
Q 1297 -91 786 396
Q 275 884 275 1747
Q 275 2609 786 3096
Q 1297 3584 2203 3584
z
" transform="scale(0.015625)"/>
     <path id="DejaVuSans-Bold-59" d="M 97 3500
L 1216 3500
L 2088 1081
L 2956 3500
L 4078 3500
L 2700 0
L 1472 0
L 97 3500
z
" transform="scale(0.015625)"/>
     <path id="DejaVuSans-Bold-af6" d="M 344 2156
L 6056 2156
L 6056 1350
L 344 1350
L 344 2156
z
" transform="scale(0.015625)"/>
     <path id="DejaVuSans-Bold-53" d="M 1656 506
L 1656 -1331
L 538 -1331
L 538 3500
L 1656 3500
L 1656 2988
Q 1888 3294 2169 3439
Q 2450 3584 2816 3584
Q 3463 3584 3878 3070
Q 4294 2556 4294 1747
Q 4294 938 3878 423
Q 3463 -91 2816 -91
Q 2450 -91 2169 54
Q 1888 200 1656 506
z
M 2400 2772
Q 2041 2772 1848 2508
Q 1656 2244 1656 1747
Q 1656 1250 1848 986
Q 2041 722 2400 722
Q 2759 722 2948 984
Q 3138 1247 3138 1747
Q 3138 2247 2948 2509
Q 2759 2772 2400 2772
z
" transform="scale(0.015625)"/>
    </defs>
    <use xlink:href="#DejaVuSans-Bold-29"/>
    <use xlink:href="#DejaVuSans-Bold-1a" transform="translate(68.3125 0)"/>
    <use xlink:href="#DejaVuSans-Bold-10" transform="translate(137.890625 0)"/>
    <use xlink:href="#DejaVuSans-Bold-1a" transform="translate(179.390625 0)"/>
    <use xlink:href="#DejaVuSans-Bold-45" transform="translate(248.96875 0)"/>
    <use xlink:href="#DejaVuSans-Bold-3" transform="translate(320.546875 0)"/>
    <use xlink:href="#DejaVuSans-Bold-5f" transform="translate(355.359375 0)"/>
    <use xlink:href="#DejaVuSans-Bold-3" transform="translate(391.890625 0)"/>
    <use xlink:href="#DejaVuSans-Bold-29" transform="translate(426.703125 0)"/>
    <use xlink:href="#DejaVuSans-Bold-55" transform="translate(488.625 0)"/>
    <use xlink:href="#DejaVuSans-Bold-48" transform="translate(537.9375 0)"/>
    <use xlink:href="#DejaVuSans-Bold-56" transform="translate(605.765625 0)"/>
    <use xlink:href="#DejaVuSans-Bold-4b" transform="translate(665.28125 0)"/>
    <use xlink:href="#DejaVuSans-Bold-3" transform="translate(736.46875 0)"/>
    <use xlink:href="#DejaVuSans-Bold-46" transform="translate(771.28125 0)"/>
    <use xlink:href="#DejaVuSans-Bold-4f" transform="translate(830.5625 0)"/>
    <use xlink:href="#DejaVuSans-Bold-44" transform="translate(864.84375 0)"/>
    <use xlink:href="#DejaVuSans-Bold-56" transform="translate(932.328125 0)"/>
    <use xlink:href="#DejaVuSans-Bold-56" transform="translate(991.84375 0)"/>
    <use xlink:href="#DejaVuSans-Bold-3" transform="translate(1051.359375 0)"/>
    <use xlink:href="#DejaVuSans-Bold-48" transform="translate(1086.171875 0)"/>
    <use xlink:href="#DejaVuSans-Bold-13aa" transform="translate(1154 0)"/>
    <use xlink:href="#DejaVuSans-Bold-48" transform="translate(1235 0)"/>
    <use xlink:href="#DejaVuSans-Bold-46" transform="translate(1302.828125 0)"/>
    <use xlink:href="#DejaVuSans-Bold-57" transform="translate(1362.109375 0)"/>
    <use xlink:href="#DejaVuSans-Bold-56" transform="translate(1409.90625 0)"/>
    <use xlink:href="#DejaVuSans-Bold-3" transform="translate(1469.421875 0)"/>
    <use xlink:href="#DejaVuSans-Bold-44" transform="translate(1504.234375 0)"/>
    <use xlink:href="#DejaVuSans-Bold-55" transform="translate(1571.71875 0)"/>
    <use xlink:href="#DejaVuSans-Bold-48" transform="translate(1621.03125 0)"/>
    <use xlink:href="#DejaVuSans-Bold-3" transform="translate(1688.859375 0)"/>
    <use xlink:href="#DejaVuSans-Bold-51" transform="translate(1723.671875 0)"/>
    <use xlink:href="#DejaVuSans-Bold-58" transform="translate(1794.859375 0)"/>
    <use xlink:href="#DejaVuSans-Bold-4f" transform="translate(1866.046875 0)"/>
    <use xlink:href="#DejaVuSans-Bold-4f" transform="translate(1900.328125 0)"/>
    <use xlink:href="#DejaVuSans-Bold-3" transform="translate(1934.609375 0)"/>
    <use xlink:href="#DejaVuSans-Bold-52" transform="translate(1969.421875 0)"/>
    <use xlink:href="#DejaVuSans-Bold-55" transform="translate(2038.125 0)"/>
    <use xlink:href="#DejaVuSans-Bold-3" transform="translate(2087.4375 0)"/>
    <use xlink:href="#DejaVuSans-Bold-55" transform="translate(2122.25 0)"/>
    <use xlink:href="#DejaVuSans-Bold-48" transform="translate(2171.5625 0)"/>
    <use xlink:href="#DejaVuSans-Bold-59" transform="translate(2239.390625 0)"/>
    <use xlink:href="#DejaVuSans-Bold-48" transform="translate(2304.578125 0)"/>
    <use xlink:href="#DejaVuSans-Bold-55" transform="translate(2372.40625 0)"/>
    <use xlink:href="#DejaVuSans-Bold-56" transform="translate(2421.71875 0)"/>
    <use xlink:href="#DejaVuSans-Bold-48" transform="translate(2481.234375 0)"/>
    <use xlink:href="#DejaVuSans-Bold-47" transform="translate(2549.0625 0)"/>
    <use xlink:href="#DejaVuSans-Bold-af6" transform="translate(2620.640625 0)"/>
    <use xlink:href="#DejaVuSans-Bold-51" transform="translate(2720.640625 0)"/>
    <use xlink:href="#DejaVuSans-Bold-52" transform="translate(2791.828125 0)"/>
    <use xlink:href="#DejaVuSans-Bold-57" transform="translate(2860.53125 0)"/>
    <use xlink:href="#DejaVuSans-Bold-3" transform="translate(2908.328125 0)"/>
    <use xlink:href="#DejaVuSans-Bold-57" transform="translate(2943.140625 0)"/>
    <use xlink:href="#DejaVuSans-Bold-4b" transform="translate(2990.9375 0)"/>
    <use xlink:href="#DejaVuSans-Bold-48" transform="translate(3062.125 0)"/>
    <use xlink:href="#DejaVuSans-Bold-3" transform="translate(3129.953125 0)"/>
    <use xlink:href="#DejaVuSans-Bold-55" transform="translate(3164.765625 0)"/>
    <use xlink:href="#DejaVuSans-Bold-48" transform="translate(3214.078125 0)"/>
    <use xlink:href="#DejaVuSans-Bold-4a" transform="translate(3281.90625 0)"/>
    <use xlink:href="#DejaVuSans-Bold-4c" transform="translate(3353.484375 0)"/>
    <use xlink:href="#DejaVuSans-Bold-56" transform="translate(3387.765625 0)"/>
    <use xlink:href="#DejaVuSans-Bold-57" transform="translate(3447.28125 0)"/>
    <use xlink:href="#DejaVuSans-Bold-48" transform="translate(3495.078125 0)"/>
    <use xlink:href="#DejaVuSans-Bold-55" transform="translate(3562.90625 0)"/>
    <use xlink:href="#DejaVuSans-Bold-48" transform="translate(3612.21875 0)"/>
    <use xlink:href="#DejaVuSans-Bold-47" transform="translate(3680.046875 0)"/>
    <use xlink:href="#DejaVuSans-Bold-3" transform="translate(3751.625 0)"/>
    <use xlink:href="#DejaVuSans-Bold-53" transform="translate(3786.4375 0)"/>
    <use xlink:href="#DejaVuSans-Bold-52" transform="translate(3858.015625 0)"/>
    <use xlink:href="#DejaVuSans-Bold-56" transform="translate(3926.71875 0)"/>
    <use xlink:href="#DejaVuSans-Bold-4c" transform="translate(3986.234375 0)"/>
    <use xlink:href="#DejaVuSans-Bold-57" transform="translate(4020.515625 0)"/>
    <use xlink:href="#DejaVuSans-Bold-4c" transform="translate(4068.3125 0)"/>
    <use xlink:href="#DejaVuSans-Bold-59" transform="translate(4102.59375 0)"/>
    <use xlink:href="#DejaVuSans-Bold-48" transform="translate(4167.78125 0)"/>
    <use xlink:href="#DejaVuSans-Bold-3" transform="translate(4235.609375 0)"/>
    <use xlink:href="#DejaVuSans-Bold-48" transform="translate(4270.421875 0)"/>
    <use xlink:href="#DejaVuSans-Bold-13aa" transform="translate(4338.25 0)"/>
    <use xlink:href="#DejaVuSans-Bold-48" transform="translate(4419.25 0)"/>
    <use xlink:href="#DejaVuSans-Bold-46" transform="translate(4487.078125 0)"/>
    <use xlink:href="#DejaVuSans-Bold-57" transform="translate(4546.359375 0)"/>
   </g>
  </g>
 </g>
 <defs>
  <clipPath id="pcd5c03cbf0">
   <rect x="110.813969" y="37.744855" width="158.361774" height="234.853993"/>
  </clipPath>
  <clipPath id="p7176734ffd">
   <rect x="404.285223" y="37.744855" width="158.361774" height="234.853993"/>
  </clipPath>
 </defs>
</svg>
